<?xml version="1.0" encoding="UTF-8"?>
<svg width="20px" height="14px" viewBox="0 0 20 14" version="1.1" xmlns="http://www.w3.org/2000/svg" xmlns:xlink="http://www.w3.org/1999/xlink">
    <!-- Generator: Sketch 61.2 (89653) - https://sketch.com -->
    <title>形状@2x</title>
    <desc>Created with Sketch.</desc>
    <g id="针线互联用户端" stroke="none" stroke-width="1" fill="none" fill-rule="evenodd">
        <g id="登录_申请企业未审批_批注" transform="translate(-809.000000, -637.000000)" fill="#409EFF" fill-rule="nonzero">
            <g id="编组" transform="translate(809.000000, 637.000000)">
                <path d="M12.8116798,8.46448582 L15.6358388,11.8331293 C15.9621066,12.2224292 16.0367994,12.7703214 15.8270886,13.2359995 C15.6173777,13.7016776 15.1616562,13.9998871 14.6602202,13.999561 L5.30540739,13.999561 C4.80412626,13.999561 4.34871046,13.7012074 4.1392162,13.2356019 C3.92972194,12.7699963 4.00447771,12.2223089 4.33064463,11.8331293 L7.15480366,8.46448582 C7.5163816,8.71822779 7.91219176,8.92472127 8.33367609,9.07521649 L5.30540739,12.6871022 L14.6606481,12.6871022 L11.6319515,9.07521649 C12.0538638,8.92472125 12.4496739,8.71866527 12.8116798,8.46448582 L12.8116798,8.46448582 Z M14.0384773,1.79905504e-06 C16.3298973,1.79905504e-06 18.1878516,1.89913103 18.1878516,4.2423069 C18.1878516,5.72975983 17.4390215,7.03784346 16.3063626,7.79556948 L19.6910744,11.8331293 C20.0172413,12.2223089 20.0919971,12.7699963 19.8825028,13.2356019 C19.6730086,13.7012074 19.2175928,13.9995452 18.7163117,13.9995607 L16.6726475,14.0000018 C16.8977244,13.6018858 16.9593424,13.1285258 16.8480877,12.6875397 L18.7163117,12.6871022 L14.3799438,7.51470336 L15.6033182,6.69704173 C16.6585029,5.99408645 17.1411069,4.66916294 16.7926883,3.43178773 C16.4442698,2.19441251 15.3465028,1.33464334 14.0872583,1.31289957 C13.780006,0.864148799 13.4047307,0.468358906 12.9755666,0.140436675 C13.3224471,0.046868377 13.6797272,-0.000335895166 14.0384773,1.79905504e-06 Z M5.96152267,1.79905413e-06 C6.32027282,-0.000335895167 6.67755287,0.046868377 7.02443343,0.140436675 C6.59526927,0.468358906 6.219994,0.864148799 5.91274174,1.31289957 C4.65349716,1.33464334 3.55573022,2.19441251 3.20731168,3.43178773 C2.85889314,4.66916294 3.34149708,5.99408645 4.39668182,6.69704173 L4.39668182,6.69704173 L5.62005617,7.51470336 L1.28368835,12.6871022 L3.15191233,12.6875397 C3.04065759,13.1285258 3.10227561,13.6018858 3.32735252,14.0000018 L3.32735252,14.0000018 L1.28368835,13.9995607 C0.782407223,13.9995452 0.326991423,13.7012074 0.117497159,13.2356019 C-0.0919971059,12.7699963 -0.0172413278,12.2223089 0.308925584,11.8331293 L0.308925584,11.8331293 L3.69363738,7.79556948 C2.56097845,7.03784346 1.81214841,5.72975983 1.81214841,4.2423069 C1.81214841,1.89913103 3.67010273,1.79905413e-06 5.96152267,1.79905413e-06 Z M9.98324171,3.61746705e-06 C12.2746616,3.61746705e-06 14.132616,1.89913103 14.132616,4.2423069 C14.132616,6.58504528 12.2746616,8.48461018 9.98324171,8.48461018 C7.69139387,8.48461018 5.83386745,6.58504528 5.83386745,4.2423069 C5.83386745,1.89913103 7.69139387,3.61746705e-06 9.98324171,3.61746705e-06 Z M9.98324171,1.3124621 C8.95943799,1.3124621 8.01340433,1.87088734 7.50150246,2.77738448 C6.9896006,3.68388163 6.9896006,4.80073217 7.50150246,5.70722931 C8.01340433,6.61372645 8.95943799,7.1721517 9.98324171,7.1721517 C11.5659051,7.1721517 12.8489073,5.8604155 12.8489073,4.2423069 C12.8489073,2.62419829 11.5659051,1.3124621 9.98324171,1.3124621 Z" id="形状"></path>
            </g>
        </g>
    </g>
</svg>