<?xml version="1.0" encoding="UTF-8"?>
<svg width="20px" height="20px" viewBox="0 0 20 20" version="1.1" xmlns="http://www.w3.org/2000/svg" xmlns:xlink="http://www.w3.org/1999/xlink">
    <!-- Generator: Sketch 61.2 (89653) - https://sketch.com -->
    <title>形状结合@2x</title>
    <desc>Created with Sketch.</desc>
    <g id="针线互联用户端" stroke="none" stroke-width="1" fill="none" fill-rule="evenodd">
        <g id="添加团队成员" transform="translate(-418.000000, -439.000000)" fill="#F56C6C">
            <g id="形状结合-2" transform="translate(418.000000, 439.000000)">
                <path d="M10,0 C15.5228475,0 20,4.4771525 20,10 C20,15.5228475 15.5228475,20 10,20 C4.4771525,20 0,15.5228475 0,10 C0,4.4771525 4.4771525,0 10,0 Z M10,5 C9.44771525,5 9,5.44771525 9,6 L9,6 L9,9 L6,9 C5.48716416,9 5.06449284,9.38604019 5.00672773,9.88337887 L5,10 C5,10.5522847 5.44771525,11 6,11 L6,11 L9,11 L9,14 C9,14.5128358 9.38604019,14.9355072 9.88337887,14.9932723 L10,15 C10.5522847,15 11,14.5522847 11,14 L11,14 L11,11 L14,11 C14.5128358,11 14.9355072,10.6139598 14.9932723,10.1166211 L15,10 C15,9.44771525 14.5522847,9 14,9 L14,9 L11,9 L11,6 C11,5.48716416 10.6139598,5.06449284 10.1166211,5.00672773 Z" id="形状结合"></path>
            </g>
        </g>
    </g>
</svg>