<?xml version="1.0" encoding="UTF-8"?>
<svg width="71px" height="61px" viewBox="0 0 53 46" version="1.1" xmlns="http://www.w3.org/2000/svg" xmlns:xlink="http://www.w3.org/1999/xlink">
    <!-- Generator: Sketch 61.2 (89653) - https://sketch.com -->
    <title>编组@2x</title>
    <desc>Created with Sketch.</desc>
    <g id="针线互联用户端" stroke="none" stroke-width="1" fill="none" fill-rule="evenodd">
        <g id="联系人_组织架构" transform="translate(-84.000000, -84.000000)" fill-rule="nonzero">
            <g id="编组-5" transform="translate(84.000000, 84.000000)">
                <g id="编组">
                    <path d="M30.0185937,21.3829687 C30.0185937,23.8516816 32.0198809,25.8529687 34.4885937,25.8529687 C36.9573066,25.8529687 38.9585937,23.8516816 38.9585937,21.3829687 C38.9585937,18.9142559 36.9573066,16.9129687 34.4885937,16.9129687 C32.0198809,16.9129687 30.0185937,18.9142559 30.0185937,21.3829687 Z" id="路径" fill="#FFC670"></path>
                    <path d="M33.3685938,25.8529687 L35.6085937,25.8529687 C39.3089016,25.8529687 42.3085938,28.8526609 42.3085938,32.5529688 L26.6685937,32.5529688 C26.6685937,28.8526609 29.6682859,25.8529687 33.3685938,25.8529687 L33.3685938,25.8529687 Z" id="路径" fill="#69BAF9"></path>
                    <path d="M13.6585938,21.3829687 C13.6585938,23.8516816 15.6598809,25.8529687 18.1285938,25.8529687 C20.5973066,25.8529687 22.5985938,23.8516816 22.5985938,21.3829687 C22.5985938,18.9142559 20.5973066,16.9129687 18.1285938,16.9129687 C15.6598809,16.9129687 13.6585938,18.9142559 13.6585938,21.3829687 L13.6585938,21.3829687 Z" id="路径" fill="#FFC670"></path>
                    <path d="M17.0085937,25.8529687 L19.2385938,25.8529687 C22.9389016,25.8529687 25.9385937,28.852661 25.9385937,32.5529688 L10.3085937,32.5529688 C10.3085937,28.8526609 13.3082859,25.8529687 17.0085938,25.8529687 L17.0085937,25.8529687 Z" id="路径" fill="#69BAF9"></path>
                    <path d="M44.3085938,36.4329687 L44.3085938,40.5529687 L8.30859375,40.5529687 L8.30859375,36.5529687 C14.1637816,37.2332607 20.0540352,37.5671753 25.9485938,37.5529687 C32.0858777,37.5600568 38.2176789,37.1860035 44.3085938,36.4329687 L44.3085938,36.4329687 Z" id="路径" fill="#F6716F"></path>
                    <path d="M51.6385938,35.2229688 L37.6385937,35.2229688 L37.6385937,37.0829688 C33.8685938,37.3729688 29.9685937,37.5429688 25.9485937,37.5429687 C22.1885937,37.5429687 18.5285937,37.3929687 14.9485937,37.1429688 L14.9485937,35.2229688 L0.94859373,35.2229688 L5.60859375,39.8829687 L0.97859373,44.5529688 L14.9785938,44.5529688 L14.9785938,40.5529687 L37.6385937,40.5529687 L37.6385937,44.5529688 L51.6385938,44.5529688 L46.9785937,39.8829687 L51.6385938,35.2229688 Z" id="路径" fill="#F0504D"></path>
                    <path d="M44.3085938,31.2229687 L44.3085938,36.4329687 C38.2174708,37.1826609 32.0856704,37.5533743 25.9485938,37.5429687 C20.0540352,37.5571753 14.1637816,37.2232607 8.30859375,36.5429688 L8.30859375,31.2429687 L44.3085938,31.2229687 Z" id="路径" fill="#F6716F"></path>
                    <path d="M20.3585937,18.0729687 C20.3585937,21.359063 23.0224995,24.0229687 26.3085938,24.0229687 C29.594688,24.0229687 32.2585938,21.359063 32.2585938,18.0729687 C32.2585938,14.7868745 29.594688,12.1229687 26.3085938,12.1229687 C23.0224995,12.1229687 20.3585937,14.7868745 20.3585937,18.0729687 L20.3585937,18.0729687 Z" id="路径" fill="#FFDEAD"></path>
                    <path d="M26.3085938,21.1329687 C23.753391,21.1383055 21.439077,19.6255536 20.4185937,17.2829688 C20.3783771,17.5443753 20.358318,17.8084869 20.3585909,18.0729687 C20.3585909,21.359063 23.0224995,24.0229687 26.3085938,24.0229687 C29.594688,24.0229687 32.2585966,21.359063 32.2585966,18.0729687 C32.2588695,17.8084869 32.2388104,17.5443753 32.1985938,17.2829688 C31.1781105,19.6255536 28.8637965,21.1383055 26.3085938,21.1329687 L26.3085938,21.1329687 Z" id="路径" fill="#FFC670"></path>
                    <path d="M24.8885937,24.0229688 L27.7285938,24.0229688 C29.9995412,24.009657 32.1820472,24.9024708 33.7925629,26.5036012 C35.4030786,28.1047316 36.3085937,30.2819823 36.3085937,32.5529688 L16.3085937,32.5529688 C16.3085937,30.2819823 17.2141089,28.1047316 18.8246246,26.5036012 C20.4351403,24.9024708 22.6176463,24.009657 24.8885937,24.0229688 L24.8885937,24.0229688 Z" id="路径" fill="#96DDFF"></path>
                    <path d="M26.3085938,31.2229687 L31.4885937,24.9029688 C30.319495,24.3247115 29.032884,24.0235898 27.7285938,24.0229687 L24.8885937,24.0229687 C23.5465062,24.0235195 22.2236682,24.3422344 21.0285937,24.9529687 L26.3085938,31.2229687 Z" id="路径" fill="#EDF4FF"></path>
                    <path d="M25.9485937,0.0329687695 C25.396309,0.0329687695 24.9485937,0.480683993 24.9485937,1.03296877 L24.9485937,3.03296877 C24.9485937,3.58525353 25.396309,4.03296877 25.9485937,4.03296877 C26.5008785,4.03296877 26.9485937,3.58525353 26.9485937,3.03296877 L26.9485937,1.03296877 C26.9485937,0.480683993 26.5008785,0.0329687695 25.9485937,0.0329687695 L25.9485937,0.0329687695 Z M16.9385937,2.45296875 C16.4741974,2.72685972 16.3105322,3.31959316 16.5685938,3.79296873 L17.5685937,5.52296877 C17.7388566,5.84844714 18.0738551,6.05438123 18.4411437,6.05935263 C18.8084322,6.06432402 19.1488818,5.86753239 19.3278916,5.54678156 C19.5069015,5.22603073 19.4956531,4.83295783 19.2985938,4.52296875 L18.3085938,2.79296877 C18.0235034,2.32166511 17.4109632,2.16964781 16.9385937,2.45296875 L16.9385937,2.45296875 Z M10.3085937,9.05296875 C10.0372054,9.53094794 10.2024573,10.1383603 10.6785938,10.4129688 L12.4085937,11.4129687 C12.6379024,11.5473427 12.9112706,11.5849041 13.1683236,11.5173573 C13.4253766,11.4498105 13.6449658,11.2827129 13.7785938,11.0529687 C13.9121388,10.822445 13.9481775,10.5481624 13.8787154,10.2909651 C13.8092533,10.0337677 13.6400335,9.81491997 13.4085938,9.68296875 L11.6785938,8.68296873 C11.44807,8.54942371 11.1737875,8.51338501 10.9165901,8.58284708 C10.6593927,8.65230914 10.440545,8.82152903 10.3085937,9.05296875 L10.3085937,9.05296875 Z M34.9685937,2.45296875 C35.4221413,2.73676328 35.5719709,3.32726792 35.3085938,3.79296873 L34.3085937,5.52296877 C34.138331,5.84844737 33.8033324,6.05438168 33.4360437,6.05935314 C33.068755,6.06432461 32.7283053,5.86753288 32.5492955,5.54678189 C32.3702856,5.2260309 32.3815341,4.83295783 32.5785938,4.52296875 L33.5785938,2.79296877 C33.7155907,2.561059 33.9403486,2.39422074 34.2019868,2.33022289 C34.4636251,2.26622505 34.7400173,2.3104798 34.9685937,2.45296875 L34.9685937,2.45296875 Z M41.5785938,9.05296875 C41.8499821,9.53094794 41.6847302,10.1383603 41.2085937,10.4129688 L39.4785938,11.4129687 C39.1686047,11.6100284 38.7755316,11.6212769 38.4547806,11.442267 C38.1340296,11.2632572 37.9372379,10.9228075 37.9422094,10.5555188 C37.9471808,10.18823 38.1531151,9.8532315 38.4785937,9.68296875 L40.2085938,8.68296873 C40.4391175,8.54942373 40.7134001,8.51338504 40.9705974,8.5828471 C41.2277948,8.65230917 41.4466425,8.82152905 41.5785938,9.05296875 L41.5785938,9.05296875 Z" id="形状" fill="#F0504D"></path>
                    <path d="M44.3085938,31.2229687 L44.3085938,36.4329687 C38.2174708,37.1826609 32.0856704,37.5533743 25.9485938,37.5429687 C20.0540352,37.5571753 14.1637816,37.2232607 8.30859375,36.5429688 L8.30859375,31.2429687 L44.3085938,31.2229687 Z" id="路径" fill="#F6716F"></path>
                    <path d="M48.3885937,39.8829687 L52.3885938,35.8829688 C52.6699224,35.595963 52.7520988,35.1684232 52.5972147,34.7975741 C52.4423307,34.426725 52.0804835,34.1846303 51.6785937,34.1829687 L45.3085938,34.1829687 L45.3085938,31.1829687 C45.3085937,30.630684 44.8608785,30.1829688 44.3085937,30.1829688 L42.9385938,30.1829688 C42.2132708,27.9439816 40.5098149,26.1559048 38.3085937,25.3229688 C40.1307631,23.5881684 40.5316179,20.8328311 39.2792894,18.6507435 C38.0269608,16.4686558 35.4456968,15.4247954 33.0285937,16.1229687 C32.161405,13.1610585 29.444842,11.1258128 26.3585938,11.1258128 C23.2723455,11.1258128 20.5557825,13.1610585 19.6885938,16.1229687 C18.034779,15.6455114 16.2527285,15.9728809 14.8765874,17.0069526 C13.5004463,18.0410244 12.6901574,19.6616128 12.6885938,21.3829688 C12.6867141,22.8747394 13.3020324,24.30083 14.3885937,25.3229688 C12.1593902,26.1517 10.4341201,27.9580724 9.70859373,30.2229687 L8.30859375,30.2229687 C8.04337725,30.2229687 7.78902334,30.3283256 7.60148696,30.515862 C7.41395057,30.7033983 7.30859373,30.9577523 7.30859373,31.2229688 L7.30859373,34.2229688 L0.97859373,34.2229688 C0.583933713,34.2400441 0.236312076,34.4878499 0.0914674725,34.855366 C-0.0533771307,35.2228822 0.0317041058,35.6412238 0.30859377,35.9229687 L4.30859373,39.9229688 L0.30859377,43.9229688 C0.0201338438,44.2090592 -0.0665680522,44.6412355 0.0892228454,45.0164503 C0.245013743,45.391665 0.612328691,45.6353314 1.01859375,45.6329688 L15.0185937,45.6329688 C15.5708785,45.6329688 16.0185938,45.1852535 16.0185938,44.6329688 L16.0185938,41.6329688 L36.6385938,41.6329688 L36.6385938,44.6329688 C36.6385938,45.1852535 37.086309,45.6329687 37.6385937,45.6329688 L51.6385938,45.6329688 C52.076657,45.6589284 52.4804617,45.3962553 52.6342942,44.98527 C52.7881266,44.5742847 52.6560394,44.1110263 52.3085937,43.8429687 L48.3885937,39.8829687 Z M40.7885937,30.2229687 L36.9585937,30.2229687 C36.6592771,29.0033788 36.1223655,27.8547957 35.3785938,26.8429688 L35.5985937,26.8429688 C37.8439585,26.8469164 39.8770329,28.170961 40.7885937,30.2229687 L40.7885937,30.2229687 Z M33.3085937,18.1429688 C33.7008333,17.9908654 34.1178952,17.9128782 34.5385938,17.9129687 C36.2485515,17.955986 37.6720975,19.2386627 37.8924209,20.9349126 C38.1127443,22.6311624 37.0641165,24.2349462 35.4218885,24.7133739 C33.7796605,25.1918017 32.0337552,24.4021449 31.3085937,22.8529688 C32.5457735,21.5916294 33.2602196,19.9091088 33.3085937,18.1429688 L33.3085937,18.1429688 Z M31.7885937,26.1429687 C33.2862777,27.0805463 34.4025469,28.5192934 34.9385937,30.2029688 L28.4185938,30.2029688 L31.7885937,26.1429687 Z M26.3085938,29.6529687 L22.6785938,25.3529688 C23.398785,25.1363851 24.146544,25.0252318 24.8985937,25.0229688 L27.7385937,25.0229688 C28.4560769,25.0195237 29.1702375,25.1205841 29.8585938,25.3229688 L26.3085938,29.6529687 Z M26.3085938,13.1229687 C28.3353319,13.1027003 30.1738027,14.3079764 30.9634864,16.1746521 C31.75317,18.0413277 31.3378212,20.2000659 29.9118493,21.6404417 C28.4858773,23.0808174 26.3314224,23.5178406 24.4569047,22.7469569 C22.582387,21.9760732 21.3586951,20.1498082 21.3585938,18.1229688 C21.3584566,15.3809539 23.566716,13.1503889 26.3085937,13.1229687 L26.3085938,13.1229687 Z M24.1585938,30.2229688 L17.7285938,30.2229688 C18.2533345,28.5748464 19.3351864,27.1606611 20.7885938,26.2229688 L24.1585938,30.2229688 Z M18.1585938,17.9129687 C18.5792923,17.9128782 18.9963542,17.9908654 19.3885938,18.1429688 C19.4153846,19.8981735 20.1006633,21.5792476 21.3085938,22.8529688 C20.5795943,24.4117529 18.8183053,25.2007885 17.1698185,24.7070886 C15.5213316,24.2133887 14.4836959,22.5861124 14.7315241,20.8832238 C14.9793522,19.1803352 16.4377692,17.9163194 18.1585938,17.9129687 L18.1585938,17.9129687 Z M17.0485938,26.8529688 L17.2685937,26.8529688 C16.523036,27.8600391 15.985886,29.0057324 15.6885938,30.2229687 L11.8285938,30.2229687 C12.7431429,28.1748702 14.7755818,26.8551555 17.0185938,26.8529688 L17.0485938,26.8529688 Z M3.38859375,43.5529687 L6.38859375,40.5529687 C6.77631733,40.1629313 6.77631733,39.5330062 6.38859375,39.1429688 L3.38859375,36.1429688 L7.30859373,36.1429688 L7.30859373,40.4729688 C7.315616,40.8188813 7.50094509,41.1365883 7.79859375,41.3129688 L11.3685937,43.4729688 L3.38859375,43.5529687 Z M13.9785938,42.7929687 L11.9185938,41.5629687 L13.9785938,41.5629687 L13.9785938,42.7929687 Z M9.30859377,39.5529687 L9.30859377,32.2229688 L43.3085938,32.2229688 L43.3085938,39.5529687 L9.30859377,39.5529687 Z M38.6385937,42.7929687 L38.6385937,41.5529688 L40.6985937,41.5529688 L38.6385937,42.7929687 Z M41.2485937,43.5629688 L44.8185937,41.4029688 C45.1162424,41.2265883 45.3015715,40.9088813 45.3085938,40.5629688 L45.3085938,36.2229687 L49.2285938,36.2229687 L46.2285937,39.2229687 C45.8408702,39.6130062 45.8408702,40.2429313 46.2285938,40.6329687 L49.2285938,43.6329687 L41.2485937,43.5629688 Z" id="形状" fill="#3D3D63"></path>
                    <path d="M35.6385938,34.8829687 L16.9785938,34.8829687 C16.4264035,34.8831024 15.9788358,35.3307785 15.9788358,35.8829687 C15.9788358,36.435159 16.4264035,36.8828351 16.9785938,36.8829687 L35.6385938,36.8829687 C36.190784,36.8828351 36.6383517,36.435159 36.6383517,35.8829687 C36.6383517,35.3307785 36.190784,34.8831024 35.6385938,34.8829687 L35.6385938,34.8829687 Z M25.9485937,4.03296871 C26.5008785,4.03296871 26.9485937,3.58525351 26.9485937,3.03296871 L26.9485937,1.03296871 C26.9485937,0.48068397 26.5008785,0.0329687109 25.9485937,0.0329687109 C25.396309,0.0329687109 24.9485937,0.48068397 24.9485937,1.03296871 L24.9485937,3.03296871 C24.9485937,3.58525351 25.396309,4.03296871 25.9485937,4.03296871 L25.9485937,4.03296871 Z M17.5685937,5.54296875 C17.7388566,5.86844712 18.0738551,6.07438121 18.4411437,6.07935261 C18.8084322,6.084324 19.1488818,5.88753237 19.3278916,5.56678154 C19.5069015,5.24603071 19.4956531,4.85295781 19.2985938,4.54296873 L18.3085938,2.79296877 C18.0210977,2.34071634 17.428197,2.19548884 16.9642337,2.46367575 C16.5002703,2.73186266 16.3301922,3.31811831 16.5785937,3.79296873 L17.5685937,5.54296875 Z M10.6985937,10.4129688 L12.4285938,11.4129687 C12.6579024,11.5473427 12.9312706,11.5849041 13.1883236,11.5173573 C13.4453766,11.4498105 13.6649658,11.2827129 13.7985938,11.0529687 C13.9321387,10.822445 13.9681774,10.5481624 13.8987154,10.2909651 C13.8292533,10.0337677 13.6600334,9.81491997 13.4285937,9.68296875 L11.6985938,8.68296873 C11.46807,8.54942373 11.1937875,8.51338504 10.9365901,8.5828471 C10.6793927,8.65230917 10.460545,8.82152905 10.3285938,9.05296875 C10.0572055,9.53094792 10.2224573,10.1383603 10.6985937,10.4129688 L10.6985937,10.4129688 Z M32.9685938,5.91296877 C33.4419693,6.17103028 34.0347028,6.00736506 34.3085937,5.54296875 L35.3085938,3.79296873 C35.5569949,3.31811837 35.3869167,2.73186308 34.9229536,2.46367628 C34.4589904,2.19548948 33.86609,2.34071671 33.5785938,2.79296877 L32.5785938,4.52296875 C32.4401413,4.75769931 32.4034853,5.03876791 32.477105,5.30115625 C32.5507248,5.56354458 32.7282425,5.78452126 32.9685938,5.91296877 L32.9685938,5.91296877 Z M39.4785938,11.4129687 L41.2085937,10.4129688 C41.6847302,10.1383603 41.8499821,9.53094794 41.5785938,9.05296875 C41.4466425,8.82152905 41.2277948,8.65230917 40.9705974,8.5828471 C40.7134001,8.51338504 40.4391175,8.54942373 40.2085938,8.68296873 L38.4785937,9.68296875 C38.1531151,9.8532315 37.9471808,10.18823 37.9422094,10.5555188 C37.9372379,10.9228075 38.1340296,11.2632572 38.4547806,11.442267 C38.7755316,11.6212769 39.1686047,11.6100284 39.4785938,11.4129687 L39.4785938,11.4129687 Z" id="形状" fill="#3D3D63"></path>
                </g>
            </g>
        </g>
    </g>
</svg>