<?xml version="1.0" encoding="UTF-8"?>
<svg width="40px" height="40px" viewBox="0 0 40 40" version="1.1" xmlns="http://www.w3.org/2000/svg" xmlns:xlink="http://www.w3.org/1999/xlink">
    <!-- Generator: Sketch 61.2 (89653) - https://sketch.com -->
    <title>椭圆形备份 30@2x</title>
    <desc>Created with Sketch.</desc>
    <g id="针线互联用户端" stroke="none" stroke-width="1" fill="none" fill-rule="evenodd">
        <g id="工作台" transform="translate(-114.000000, -156.000000)">
            <g id="编组-7" transform="translate(114.000000, 156.000000)">
                <circle id="椭圆形备份-30" fill="#3370FF" cx="20" cy="20" r="20"></circle>
                <g id="编组-4备份" transform="translate(11.000000, 10.000000)" fill-rule="nonzero">
                    <path d="M15.625,20 C13.2087542,20 11.25,18.0412458 11.25,15.625 C11.25,13.2087542 13.2087542,11.25 15.625,11.25 C18.0412458,11.25 20,13.2087542 20,15.625 C20,18.0412458 18.0412458,20 15.625,20 Z" id="路径" fill="#FFFFFF"></path>
                    <path d="M17.0409542,15 L16.25,15 L16.25,15 L16.25,13.8945529 C16.25,13.5493749 15.970178,13.2695529 15.625,13.2695529 C15.279822,13.2695529 15,13.5493749 15,13.8945529 L15,16.25 L15,16.25 L17.0409542,16.25 C17.3861322,16.25 17.6659542,15.970178 17.6659542,15.625 C17.6659542,15.279822 17.3861322,15 17.0409542,15 Z" id="路径" fill="#3370FF"></path>
                    <path d="M10,15.625 C10,17.4025 10.84125,18.96875 12.12875,20 L2.72727273,20 C1.22104159,20 -2.59629096e-16,18.7789584 0,17.2727273 L0,2.72727273 C-1.84460114e-16,1.22104159 1.22104159,-1.67399039e-16 2.72727273,0 L14.7727273,0 C16.2789584,-1.61449216e-15 17.5,1.22104159 17.5,2.72727273 L17.5,10.345 L17.5,10.345 C16.8995448,10.1228322 16.265209,10.0061144 15.625,10 C12.5183983,10 10,12.5183983 10,15.625 Z" id="路径" fill="#FFFFFF"></path>
                    <path d="M4.47727273,12.3636364 L8.02272727,12.3636364 C8.42438891,12.3636364 8.75,12.0380253 8.75,11.6363636 C8.75,11.234702 8.42438891,10.9090909 8.02272727,10.9090909 L4.47727273,10.9090909 C4.07561109,10.9090909 3.75,11.234702 3.75,11.6363636 C3.75,12.0380253 4.07561109,12.3636364 4.47727273,12.3636364 Z" id="路径" fill="#3370FF"></path>
                    <path d="M13.0227273,3.40909091 L4.47727273,3.40909091 C4.07561109,3.40909091 3.75,3.734702 3.75,4.13636364 C3.75,4.53802527 4.07561109,4.86363636 4.47727273,4.86363636 L13.0227273,4.86363636 C13.4243889,4.86363636 13.75,4.53802527 13.75,4.13636364 C13.75,3.734702 13.4243889,3.40909091 13.0227273,3.40909091 Z" id="路径" fill="#3370FF"></path>
                    <path d="M13.0227273,7.15909091 L4.47727273,7.15909091 C4.07561109,7.15909091 3.75,7.484702 3.75,7.88636364 C3.75,8.28802527 4.07561109,8.61363636 4.47727273,8.61363636 L13.0227273,8.61363636 C13.4243889,8.61363636 13.75,8.28802527 13.75,7.88636364 C13.75,7.484702 13.4243889,7.15909091 13.0227273,7.15909091 Z" id="路径" fill="#3370FF"></path>
                </g>
            </g>
        </g>
    </g>
</svg>