<?xml version="1.0" encoding="UTF-8"?>
<svg width="32px" height="32px" viewBox="0 0 32 32" version="1.1" xmlns="http://www.w3.org/2000/svg" xmlns:xlink="http://www.w3.org/1999/xlink">
    <!-- Generator: Sketch 61.2 (89653) - https://sketch.com -->
    <title>椭圆形备份 10@2x</title>
    <desc>Created with Sketch.</desc>
    <g id="针线互联用户端" stroke="none" stroke-width="1" fill="none" fill-rule="evenodd">
        <g id="消息_审批" transform="translate(-76.000000, -204.000000)">
            <g id="编组-14" transform="translate(76.000000, 204.000000)">
                <circle id="椭圆形备份-10" fill="#FF8802" cx="16" cy="16" r="16"></circle>
                <path d="M20.5,7 C21.8254834,7 22.9100387,8.03153594 22.9946823,9.33562431 L23,9.5 L23,20.5692308 L19.92,20.5692308 C19.1952941,20.5692308 18.5946021,21.1211605 18.52644,21.820993 L18.52,21.9538462 L18.52,25 L11.5,25 C10.1745166,25 9.08996133,23.9684641 9.00531768,22.6643757 L9,22.5 L9,9.5 C9,8.1745166 10.0315359,7.08996133 11.3356243,7.00531768 L11.5,7 L20.5,7 Z M23,21.5384615 L19.5,25 L19.5,21.9538462 C19.5,21.7461538 19.71,21.5384615 19.92,21.5384615 L19.92,21.5384615 L23,21.5384615 Z M14.6,12.6769231 L12.5,12.6769231 L12.5,20.1538462 L13.55,23.2692307 L14.6,20.1538462 L14.6,12.6769231 Z M14.11,9.76923079 L12.99,9.76923079 C12.7411111,9.76923079 12.5475309,9.98803419 12.5075857,10.2311491 L12.5,10.3230769 L12.5,11.8461538 L14.6,11.8461538 L14.6,10.3230769 C14.6,10.0461539 14.39,9.76923079 14.11,9.76923079 Z" id="形状结合" fill="#FFFFFF" fill-rule="nonzero"></path>
            </g>
        </g>
    </g>
</svg>