<?xml version="1.0" encoding="UTF-8"?>
<svg width="20px" height="20px" viewBox="0 0 20 20" version="1.1" xmlns="http://www.w3.org/2000/svg" xmlns:xlink="http://www.w3.org/1999/xlink">
    <!-- Generator: Sketch 61.2 (89653) - https://sketch.com -->
    <title>形状结合备份 10@2x</title>
    <desc>Created with Sketch.</desc>
    <g id="针线互联用户端" stroke="none" stroke-width="1" fill="none" fill-rule="evenodd">
        <g id="消息_审批" transform="translate(-20.000000, -140.000000)" fill="#FFFFFF" fill-rule="nonzero">
            <g id="编组" transform="translate(20.000000, 140.000000)">
                <path d="M10.0002232,0.0149553571 C15.5060268,0.0149553571 19.9850446,4.49397321 19.9850446,9.99977679 C19.9850446,15.5055804 15.5060268,19.9850446 10.0002232,19.9850446 C8.42700893,19.9850446 6.86607143,19.6102679 5.47142857,18.8997768 L0.652455357,18.8997768 L0.652455357,13.5100446 C0.229241071,12.3850446 0.0149553572,11.2051339 0.0149553572,9.99977679 C0.0149553572,4.49397321 4.49441964,0.0149553571 10.0002232,0.0149553571 Z M7,7 C6.44771525,7 6,7.44771525 6,8 L6,8 L6,12 C6,12.5522847 6.44771525,13 7,13 C7.55228475,13 8,12.5522847 8,12 L8,12 L8,8 C8,7.44771525 7.55228475,7 7,7 Z M13,7 C12.4477153,7 12,7.44771525 12,8 L12,8 L12,12 C12,12.5522847 12.4477153,13 13,13 C13.5522847,13 14,12.5522847 14,12 L14,12 L14,8 C14,7.44771525 13.5522847,7 13,7 Z" id="形状结合"></path>
            </g>
        </g>
    </g>
</svg>