<?xml version="1.0" encoding="UTF-8"?>
<svg width="10px" height="12px" viewBox="0 0 10 12" version="1.1" xmlns="http://www.w3.org/2000/svg" xmlns:xlink="http://www.w3.org/1999/xlink">
    <!-- Generator: Sketch 61.2 (89653) - https://sketch.com -->
    <title>编组 9@2x</title>
    <desc>Created with Sketch.</desc>
    <g id="针线互联应用" stroke="none" stroke-width="1" fill="none" fill-rule="evenodd">
        <g id="订单管理_录入" transform="translate(-1340.000000, -436.000000)" fill="#999999" fill-rule="nonzero">
            <g id="编组" transform="translate(1340.000000, 436.000000)">
                <g id="编组-9">
                    <path d="M5.2693131,0.0899527865 C5.25650974,0.0830909094 5.24570851,0.0719369052 5.23211461,0.065940822 C4.99449627,-0.0519821471 4.70327568,-0.0133898454 4.51208457,0.195008585 L0.170250319,4.91713133 C0.0650565367,5.03008059 0,5.18601559 0,5.35821647 C0,5.54329373 0.0751273677,5.70956299 0.194490774,5.82388463 C0.308225858,5.93337071 0.458643858,6 0.623592382,6 C0.800613874,6 0.960922254,5.92324829 1.07712349,5.79909898 L4.97331488,1.56236423 L8.92712998,5.78240021 C9.0428586,5.90385083 9.20147419,5.97880647 9.37641621,5.97880647 C9.54335828,5.97880647 9.6954347,5.91055612 9.80968536,5.79865687 C9.92648809,5.68434444 9.99984533,5.51978834 10,5.33686636 C10,5.17698002 9.9419982,5.01661473 9.82558214,4.89183909 L5.44135932,0.212591569 C5.43256023,0.203583629 5.4205646,0.200148085 5.41136165,0.191149355 C5.40537243,0.184296688 5.40056043,0.176992704 5.39415875,0.170140037 C5.35696026,0.133684588 5.31175323,0.114830545 5.26935606,0.0899435759 L5.2693131,0.0899527865 Z" id="路径"></path>
                    <path d="M5.2693131,6.08995279 C5.25650974,6.08309091 5.24570851,6.07193691 5.23211461,6.06594082 C4.99449627,5.94801785 4.70327568,5.98661015 4.51208457,6.19500858 L0.170250319,10.9171313 C0.0650565367,11.0300806 0,11.1860156 0,11.3582165 C0,11.5432937 0.0751273677,11.709563 0.194490774,11.8238846 C0.308225858,11.9333707 0.458643858,12 0.623592382,12 C0.800613874,12 0.960922254,11.9232483 1.07712349,11.799099 L4.97331488,7.56236423 L8.92712998,11.7824002 C9.0428586,11.9038508 9.20147419,11.9788065 9.37641621,11.9788065 C9.54335828,11.9788065 9.6954347,11.9105561 9.80968536,11.7986569 C9.92648809,11.6843444 9.99984533,11.5197883 10,11.3368664 C10,11.17698 9.9419982,11.0166147 9.82558214,10.8918391 L5.44135932,6.21259157 C5.43256023,6.20358363 5.4205646,6.20014808 5.41136165,6.19114935 C5.40537243,6.18429669 5.40056043,6.1769927 5.39415875,6.17014004 C5.35696026,6.13368459 5.31175323,6.11483054 5.26935606,6.08994358 L5.2693131,6.08995279 Z" id="路径备份-3"></path>
                </g>
            </g>
        </g>
    </g>
</svg>