<?xml version="1.0" encoding="UTF-8"?>
<svg width="40px" height="40px" viewBox="0 0 40 40" version="1.1" xmlns="http://www.w3.org/2000/svg" xmlns:xlink="http://www.w3.org/1999/xlink">
    <!-- Generator: Sketch 61.2 (89653) - https://sketch.com -->
    <title>椭圆形备份 22@2x</title>
    <desc>Created with Sketch.</desc>
    <g id="针线互联用户端" stroke="none" stroke-width="1" fill="none" fill-rule="evenodd">
        <g id="工作台" transform="translate(-994.000000, -664.000000)">
            <g id="编组-34" transform="translate(994.000000, 664.000000)">
                <circle id="椭圆形备份-22" fill="#FF8802" cx="20" cy="20" r="20"></circle>
                <g id="编组" transform="translate(11.000000, 10.000000)" fill-rule="nonzero">
                    <path d="M13.8296965,10.4521372 C14.8639547,10.4521372 15.7895564,10.7242277 16.6060524,11.214305 C16.6603807,11.214305 16.7149335,11.2686333 16.7692619,11.2686333 L16.7692619,1.30657328 C16.7692619,0.598958333 16.170528,0 15.4626886,0 L1.30881825,0 C0.601203305,0 0.00224497126,0.598733836 0.00224497126,1.30657328 L0.00224497126,18.2913524 C0.00224497126,18.9989673 0.600978807,19.5979256 1.30881825,19.5979256 L9.80109555,19.5979256 C8.9300467,18.6179957 8.38564116,17.3114224 8.38564116,15.8961925 C8.38586566,12.9018499 10.8355783,10.4521372 13.8296965,10.4521372 L13.8296965,10.4521372 Z M3.22175826,3.10299928 L11.9338182,3.10299928 C12.5103269,3.10299928 12.9586476,3.48397091 12.9586476,3.97404813 C12.9586476,4.46390086 12.5103269,4.84509698 11.9338182,4.84509698 L3.22175826,4.84509698 C2.64524964,4.84509698 2.1969288,4.46412536 2.1969288,3.97404813 C2.19670438,3.48397091 2.64502514,3.10299928 3.22175826,3.10299928 L3.22175826,3.10299928 Z M3.22175826,7.02249461 L11.9338182,7.02249461 C12.5103269,7.02249461 12.9586476,7.40346624 12.9586476,7.89354346 C12.9586476,8.38362069 12.5103269,8.76459231 11.9338182,8.76459231 L3.22175826,8.76459231 C2.64524964,8.76459231 2.19692888,8.38362069 2.19692888,7.89354346 C2.19692888,7.40346624 2.64502514,7.02249461 3.22175826,7.02249461 Z M6.80899784,12.6840876 L3.22175826,12.6840876 C2.64524964,12.6840876 2.19692888,12.303116 2.19692888,11.8130388 C2.19692888,11.3231861 2.64524964,10.9419899 3.22175826,10.9419899 L6.80899784,10.9419899 C7.38550647,10.9419899 7.83382723,11.3229616 7.83382723,11.8130388 C7.83382723,12.303116 7.38550647,12.6840876 6.80899784,12.6840876 Z" id="形状" fill="#FFFFFF"></path>
                    <path d="M17.1410291,18.3908046 C17.7265176,17.6708423 18.0758351,16.7481591 18.0758351,15.7327586 C18.0758351,13.3919271 16.170528,11.5409483 13.8840248,11.5409483 C11.5975216,11.5409483 9.69221444,13.3919271 9.69221444,15.7327586 C9.69221444,18.0735902 11.5431932,19.924569 13.8840248,19.924569 C14.9277119,19.924569 15.8726203,19.5548222 16.600889,18.9397001 L17.1410291,18.3908046 Z M13.946884,18.3304149 C12.5821495,18.3304149 11.4181483,17.2065324 11.4181483,15.8016792 C11.4181483,14.3968261 12.5419307,13.2729436 13.946884,13.2729436 C15.3116185,13.2729436 16.4756196,14.3968261 16.4756196,15.8016792 C16.4756196,17.2065324 15.351657,18.3304149 13.946884,18.3304149 Z" id="形状" fill="#FFFFFF"></path>
                    <line x1="16.6099317" y1="18.1770664" x2="18.1609195" y2="19.5979256" id="路径-2" stroke="#FFFFFF" stroke-width="1.6091954" stroke-linecap="round"></line>
                </g>
            </g>
        </g>
    </g>
</svg>