<?xml version="1.0" encoding="UTF-8"?>
<svg width="40px" height="40px" viewBox="0 0 40 40" version="1.1" xmlns="http://www.w3.org/2000/svg" xmlns:xlink="http://www.w3.org/1999/xlink">
    <!-- Generator: Sketch 61.2 (89653) - https://sketch.com -->
    <title>椭圆形备份 28@2x</title>
    <desc>Created with Sketch.</desc>
    <g id="针线互联用户端" stroke="none" stroke-width="1" fill="none" fill-rule="evenodd">
        <g id="工作台" transform="translate(-994.000000, -760.000000)">
            <g id="编组-11" transform="translate(994.000000, 760.000000)">
                <circle id="椭圆形备份-28" fill="#7E3BF3" cx="20" cy="20" r="20"></circle>
                <g id="编组" transform="translate(11.000000, 10.000000)" fill-rule="nonzero">
                    <path d="M17.2297468,9.28590766 C16.1328881,8.49602519 14.8149373,8.07202158 13.4632684,8.07417777 C9.89748958,8.07417777 7.0064484,10.9652189 7.0064484,14.5309978 C7.0064484,16.4594347 7.85175375,18.1904005 9.19262006,19.3736128 L1.62576507,19.3736128 C1.19765129,19.3736128 0.787071931,19.2035453 0.484349771,18.9008231 C0.181627611,18.5981009 0.0115600724,18.1875216 0.0115600724,17.7594078 L0.0115600724,1.61735774 C0.0115600724,0.725856937 0.734264268,0.003152741 1.62576507,0.003152741 L15.6155418,0.003152741 C16.5070426,0.003152741 17.2297468,0.725856937 17.2297468,1.61735774 L17.2297468,9.28590766 Z" id="路径" fill="#FFFFFF"></path>
                    <path d="M2.69615386,6.67884614 C2.31153849,6.67884614 2,6.99038459 2,7.37500001 C2,7.75961538 2.31153845,8.07115387 2.69615386,8.07115383 L4.17692309,8.07115383 L4.17692309,9.10192307 C4.17692309,9.48653845 4.48846154,9.7980769 4.87307692,9.7980769 C5.25769229,9.7980769 5.56923078,9.48653845 5.56923078,9.10192307 L5.56923078,8.07115383 L7.05000001,8.07115383 C7.43461539,8.07115383 7.74615384,7.75961538 7.74615384,7.37500001 C7.74615384,6.99038463 7.43461539,6.67884614 7.05000001,6.67884614 L5.56923078,6.67884614 L5.56923078,6.05961538 L7.05000001,6.05961538 C7.43461539,6.05961538 7.74615384,5.74807693 7.74615384,5.36346151 C7.74615384,4.97884614 7.43461539,4.66730765 7.05000001,4.66730769 L5.73846152,4.66730769 L7.21923075,3.18653846 C7.48846152,2.91730769 7.48846152,2.47115384 7.21923075,2.20192307 C6.94999999,1.93269231 6.50384613,1.93269231 6.23461537,2.20192307 L4.87307692,3.56346152 L3.5076923,2.20192307 C3.23846153,1.93269231 2.79230768,1.93269231 2.52307691,2.20192307 C2.25384615,2.47115384 2.25384615,2.91730769 2.52307691,3.18653846 L4.00384614,4.66730769 L2.69615386,4.66730769 C2.31153849,4.66730769 2,4.97884614 2,5.36346151 C2,5.74807689 2.31153845,6.05961538 2.69615386,6.05961538 L4.17692309,6.05961538 L4.17692309,6.67884614 L2.69615386,6.67884614 Z" id="路径" fill="#7E3BF3"></path>
                    <path d="M13.5,19 C11.01465,19 9,16.98535 9,14.5 C9,12.01465 11.01465,10 13.5,10 C15.98535,10 18,12.01465 18,14.5 C18,16.98535 15.98535,19 13.5,19 Z" id="路径" fill="#FFFFFF"></path>
                    <path d="M13.4632684,5.38383609 C13.1661015,5.38383609 12.9252001,5.62473749 12.9252001,5.92190443 C12.9252001,6.21907137 13.1661015,6.45997277 13.4632684,6.45997277 L15.0774734,6.45997277 C15.3746404,6.45997277 15.6155418,6.21907137 15.6155418,5.92190443 C15.6155418,5.62473749 15.3746404,5.38383609 15.0774734,5.38383609 L13.4632684,5.38383609 L13.4632684,5.38383609 Z" id="路径" fill="#7E3BF3"></path>
                    <path d="M10.7729268,3.23156274 L10.2348584,3.23156274 C9.93769149,3.23156274 9.69679009,3.47246414 9.69679009,3.76963108 C9.69679009,4.06679802 9.93769149,4.30769942 10.2348584,4.30769942 L10.7729268,4.30769942 L10.7729268,4.84576777 C10.7729268,5.1429347 11.0138282,5.3838361 11.3109951,5.3838361 C11.608162,5.3838361 11.8490634,5.1429347 11.8490634,4.84576777 L11.8490634,4.30769942 L12.3871318,4.30769942 C12.6842987,4.30769942 12.9252001,4.06679802 12.9252001,3.76963108 C12.9252001,3.47246414 12.6842987,3.23156274 12.3871318,3.23156274 L11.8490634,3.23156274 L11.8490634,2.69349442 C11.8490634,2.39632748 11.608162,2.15542608 11.3109951,2.15542608 C11.0138282,2.15542608 10.7729268,2.39632748 10.7729268,2.69349442 L10.7729268,3.23156274 L10.7729268,3.23156274 Z" id="路径" fill="#7E3BF3"></path>
                    <path d="M14.0013368,12.3025878 C14.0013367,12.0054209 13.7604353,11.7645195 13.4632684,11.7645195 C13.1661015,11.7645195 12.9251905,12.0054209 12.9251905,12.3025878 L12.9251905,14.5309978 C12.9247697,14.6738339 12.9813206,14.8109439 13.0823214,14.9119448 C13.1833223,15.0129456 13.3204323,15.0694966 13.4632684,15.0690757 L15.6916784,15.0690757 C15.9888454,15.0690757 16.2297468,14.8281647 16.2297468,14.5309978 C16.2297468,14.2338308 15.9888454,13.9929294 15.6916784,13.9929294 L14.0013368,13.9929294 L14.0013368,12.3025878 Z" id="路径" fill="#7E3BF3"></path>
                </g>
            </g>
        </g>
    </g>
</svg>