<?xml version="1.0" encoding="UTF-8"?>
<svg width="14px" height="14px" viewBox="0 0 14 14" version="1.1" xmlns="http://www.w3.org/2000/svg" xmlns:xlink="http://www.w3.org/1999/xlink">
    <!-- Generator: Sketch 61.2 (89653) - https://sketch.com -->
    <title>形状结合@2x</title>
    <desc>Created with Sketch.</desc>
    <g id="针线互联应用" stroke="none" stroke-width="1" fill="none" fill-rule="evenodd">
        <g id="订单管理_录入" transform="translate(-482.000000, -372.000000)" fill="#FFFFFF" fill-rule="nonzero">
            <g id="编组" transform="translate(482.000000, 372.000000)">
                <path d="M10.9477176,7.78654266 L10.9477176,13.2795643 C10.9440021,13.6798064 10.611465,14 10.2046178,14 L10.2046178,14 L3.79909766,14 C3.39225053,14 3.05971338,13.6798064 3.05599788,13.2795643 L3.05599788,13.2795643 L3.05599788,7.78654266 L10.9477176,7.78654266 Z M13.0321125,3.73680903 C13.5634289,3.73680903 13.9962845,4.15525559 14,4.67557027 L14,4.67557027 L14,9.16737777 C13.9981423,9.68951173 13.5634289,10.1115852 13.0302548,10.1097659 L13.0302548,10.1097659 L12.1812633,10.1097659 L12.1812633,6.60946714 L1.82059448,6.60946714 L1.82059448,10.1152354 L0.971602972,10.1152354 C0.436571125,10.117043 0.00371549894,9.69496958 0,9.17283562 L0,9.17283562 L0,4.67920884 C0.00371549894,4.15707487 0.438428875,3.73500143 0.971602972,3.73680903 L0.971602972,3.73680903 Z M11.4140127,-7.54297628e-06 C11.8227176,-7.54297628e-06 12.153397,0.322028209 12.1645435,0.720450989 L12.1645435,0.720450989 L12.1645435,2.56702232 L1.83174098,2.56702232 L1.83174098,0.720450989 C1.83545648,0.320208927 2.16799363,-0.00180400455 2.57484076,-7.54297628e-06 L2.57484076,-7.54297628e-06 Z" id="形状结合"></path>
            </g>
        </g>
    </g>
</svg>