<?xml version="1.0" encoding="UTF-8"?>
<svg width="14px" height="14px" viewBox="0 0 14 14" version="1.1" xmlns="http://www.w3.org/2000/svg" xmlns:xlink="http://www.w3.org/1999/xlink">
    <!-- Generator: Sketch 61.2 (89653) - https://sketch.com -->
    <title>形状@2x</title>
    <desc>Created with Sketch.</desc>
    <g id="针线互联应用" stroke="none" stroke-width="1" fill="none" fill-rule="evenodd">
        <g id="订单管理_录入" transform="translate(-1218.000000, -372.000000)" fill="#FFFFFF" fill-rule="nonzero">
            <g id="编组备份-10" transform="translate(1218.000000, 372.000000)">
                <path d="M5.26770929,0 C5.7754886,0.0312112161 6.24793925,0.270460778 6.57368905,0.661349688 L7.14553817,1.32184049 C7.22198144,1.45513571 7.32413172,1.57191469 7.44605949,1.66539877 C7.57793617,1.75458693 7.73529687,1.79831164 7.89426555,1.78993865 L12.1204538,1.78993865 C12.6493714,1.79910021 13.0801186,1.96286299 13.4126955,2.28122699 L13.4126955,2.28208589 C13.7443582,2.59842935 13.952563,3.02257895 14,3.4785276 L14,12.212638 C13.9811101,12.7408589 13.79908,13.168589 13.4573444,13.4966871 C13.1219571,13.8191632 12.674952,13.9994972 12.2097516,14 L1.79024839,14 C1.26190331,13.9805317 0.8340182,13.7993047 0.506593067,13.456319 C0.182995875,13.1230889 0.00137124786,12.6772022 0,12.212638 L0,1.79079755 C0.0200347581,1.26229039 0.201206177,0.834274026 0.543514257,0.506748464 C0.877646369,0.18245738 1.32469075,0.000751396766 1.79024839,0 L5.26770929,0 Z M7.51389144,4.88797546 L6.39766942,4.88797546 C6.09515066,4.91800406 5.85583969,5.15738845 5.8258203,5.46000001 L5.8258203,7.14858896 L4.60742103,7.14858896 C4.51290018,7.14782892 4.4196692,7.17055357 4.33609323,7.21472393 C4.24895307,7.2627396 4.1794518,7.33737857 4.13774915,7.42773006 C4.09041376,7.51520205 4.06981216,7.61465764 4.07850353,7.71374233 C4.09406817,7.81938419 4.14599473,7.91628277 4.22532965,7.98773007 L6.57368905,10.4381595 C6.62183364,10.4870268 6.67609077,10.5294643 6.73511193,10.5644172 C6.80287379,10.6019224 6.87776559,10.624748 6.9549218,10.631411 C7.02209172,10.6696882 7.10309174,10.6750688 7.17473167,10.6460123 C7.23476244,10.6164983 7.28934617,10.5770001 7.33615455,10.5292025 L9.68451395,7.98773007 C9.82053667,7.83420353 9.85257394,7.61459658 9.76608402,7.42858896 L9.76608402,7.42687116 C9.68022079,7.21214724 9.499908,7.1193865 9.21570071,7.14773006 L8.0865992,7.14773006 L8.0865992,5.46000001 C8.0865992,5.07950921 7.89512419,4.88797546 7.51389144,4.88797546 Z" id="形状"></path>
            </g>
        </g>
    </g>
</svg>