<?xml version="1.0" encoding="UTF-8"?>
<svg width="14px" height="14px" viewBox="0 0 14 14" version="1.1" xmlns="http://www.w3.org/2000/svg" xmlns:xlink="http://www.w3.org/1999/xlink">
    <!-- Generator: Sketch 61.2 (89653) - https://sketch.com -->
    <title>形状@2x</title>
    <desc>Created with Sketch.</desc>
    <g id="针线互联应用" stroke="none" stroke-width="1" fill="none" fill-rule="evenodd">
        <g id="订单管理_录入" transform="translate(-306.000000, -372.000000)" fill="#FFFFFF" fill-rule="nonzero">
            <g id="形状-2" transform="translate(306.000000, 372.000000)">
                <path d="M7,0 C3.13394922,0 0,3.13391493 0,6.99991113 C0,10.8657569 3.13394922,14 7,14 C10.8660645,14 14,10.8657569 14,6.99991113 C14,3.13388758 10.8660508,0 7,0 Z M10.5276992,7.44080057 C10.5276992,7.6844813 10.3304824,7.88173103 10.0867402,7.88173103 L7.88183594,7.88173103 L7.88183594,10.0863149 C7.88183594,10.329982 7.68463281,10.5272181 7.44093164,10.5272181 L6.55908203,10.5272181 C6.31536719,10.5272181 6.11816406,10.329982 6.11816406,10.0863149 L6.11815039,7.88175837 L3.91324609,7.88175837 C3.66953125,7.88175837 3.47232813,7.68450864 3.47232813,7.44082791 L3.47232813,6.55866621 C3.47232813,6.31495814 3.66953125,6.1177631 3.91324609,6.1177631 L6.11815039,6.1177631 L6.11815039,3.91317918 C6.11815039,3.66982659 6.31538086,3.4722624 6.5590957,3.4722624 L7.44094531,3.4722624 C7.68464648,3.4722624 7.88184961,3.66982659 7.88184961,3.91317918 L7.88184961,6.1177631 L10.0867813,6.1177631 C10.3304961,6.1177631 10.5276992,6.31531362 10.5276992,6.55866621 L10.5276992,7.44080057 L10.5276992,7.44080057 L10.5276992,7.44080057 Z" id="形状"></path>
            </g>
        </g>
    </g>
</svg>