<?xml version="1.0" encoding="UTF-8"?>
<svg width="14px" height="14px" viewBox="0 0 14 14" version="1.1" xmlns="http://www.w3.org/2000/svg" xmlns:xlink="http://www.w3.org/1999/xlink">
    <!-- Generator: Sketch 61.2 (89653) - https://sketch.com -->
    <title>形状@2x</title>
    <desc>Created with Sketch.</desc>
    <g id="针线互联应用" stroke="none" stroke-width="1" fill="none" fill-rule="evenodd">
        <g id="订单管理_录入" transform="translate(-570.000000, -372.000000)" fill="#409EFF" fill-rule="nonzero">
            <g id="编组" transform="translate(570.000000, 372.000000)">
                <path d="M1.672,1.31299999 L12.28,1.31299999 C12.712,1.31299999 13,1.61899999 13,1.969 L13,2.625 L1,2.625 L1,1.969 C1,1.619 1.288,1.31200001 1.672,1.31200001 L1.672,1.31299999 Z M8.20000001,1.31299999 L5.8,1.31299999 L5.8,0.491000002 C5.8,0.229999998 6.088,0 6.376,0 L7.57600001,0 C7.91200001,0 8.20000001,0.229999998 8.20000001,0.492000004 L8.20000001,1.31200001 L8.20000001,1.31299999 Z M1.96,3.5 L1.96,13.256 C1.96,13.65 2.296,14 2.68,14 L11.32,14 C11.704,14 12.04,13.694 12.04,13.256 L12.04,3.5 L1.96,3.5 Z M4.84000001,11.594 C4.84000001,11.944 4.50400001,12.25 4.12,12.25 C3.736,12.25 3.4,11.944 3.4,11.594 L3.4,5.906 C3.4,5.556 3.736,5.25 4.12,5.25 C4.50399999,5.25 4.84000001,5.556 4.84000001,5.906 L4.84000001,11.594 Z M7.72,11.594 C7.72,11.944 7.384,12.25 7,12.25 C6.616,12.25 6.28,11.944 6.28,11.594 L6.28,5.906 C6.28,5.556 6.616,5.25 7,5.25 C7.384,5.25 7.72,5.556 7.72,5.906 L7.72,11.594 Z M10.6,11.594 C10.6,11.944 10.264,12.25 9.88000001,12.25 C9.49600001,12.25 9.16,11.944 9.16,11.594 L9.16,5.906 C9.16,5.556 9.496,5.25 9.88000001,5.25 C10.264,5.25 10.6,5.556 10.6,5.906 L10.6,11.594 Z" id="形状"></path>
            </g>
        </g>
    </g>
</svg>