<?xml version="1.0" encoding="UTF-8"?>
<svg width="14px" height="14px" viewBox="0 0 14 14" version="1.1" xmlns="http://www.w3.org/2000/svg" xmlns:xlink="http://www.w3.org/1999/xlink">
    <!-- Generator: Sketch 61.2 (89653) - https://sketch.com -->
    <title>形状@2x</title>
    <desc>Created with Sketch.</desc>
    <g id="针线互联应用" stroke="none" stroke-width="1" fill="none" fill-rule="evenodd">
        <g id="订单管理_录入" transform="translate(-394.000000, -372.000000)" fill="#FFFFFF" fill-rule="nonzero">
            <g id="编组" transform="translate(394.000000, 372.000000)">
                <path d="M5.26770929,0 C5.7754886,0.0312112161 6.24793925,0.270460778 6.57368905,0.661349688 L7.14553817,1.32184049 C7.22198144,1.45513571 7.32413172,1.57191469 7.44605949,1.66539877 C7.57793617,1.75458693 7.73529687,1.79831164 7.89426555,1.78993865 L12.1204538,1.78993865 C12.6493714,1.79910021 13.0801186,1.96286299 13.4126955,2.28122699 L13.4126955,2.28208589 C13.7443582,2.59842935 13.952563,3.02257895 14,3.4785276 L14,12.212638 C13.9811101,12.7408589 13.79908,13.168589 13.4573444,13.4966871 C13.1219571,13.8191632 12.674952,13.9994972 12.2097516,14 L1.79024839,14 C1.26190331,13.9805317 0.8340182,13.7993047 0.506593067,13.456319 C0.182995875,13.1230889 0.00137124786,12.6772022 0,12.212638 L0,1.79079755 C0.0200347581,1.26229039 0.201206177,0.834274026 0.543514257,0.506748464 C0.877646369,0.18245738 1.32469075,0.000751396766 1.79024839,0 L5.26770929,0 Z M7.17473167,4.90648028 C7.10309174,4.87742375 7.02209172,4.8828043 6.9549218,4.92108151 C6.87776559,4.92774454 6.80287379,4.95057013 6.73511193,4.98807538 C6.67609077,5.02302825 6.62183364,5.06546572 6.57368905,5.11433303 L6.57368905,5.11433303 L4.22532965,7.56476249 C4.14599473,7.63620979 4.09406817,7.73310836 4.07850353,7.83875022 C4.06981216,7.93783491 4.09041376,8.0372905 4.13774915,8.12476249 C4.1794518,8.21511398 4.24895307,8.28975295 4.33609323,8.33776862 C4.4196692,8.38193899 4.51290018,8.40466363 4.60742103,8.40390359 L4.60742103,8.40390359 L5.8258203,8.40390359 L5.8258203,10.0924925 C5.85583969,10.3951041 6.09515066,10.6344885 6.39766942,10.6645171 L6.39766942,10.6645171 L7.51389144,10.6645171 C7.89512419,10.6645171 8.0865992,10.4729833 8.0865992,10.0924925 L8.0865992,10.0924925 L8.0865992,8.40476249 L9.21570071,8.40476249 C9.499908,8.43310605 9.68022079,8.34034531 9.76608402,8.12562139 L9.76608402,8.12562139 C9.85257394,7.93789597 9.82053667,7.71828902 9.68451395,7.56476249 L9.68451395,7.56476249 L7.33615455,5.02329009 C7.28934617,4.97549249 7.23476244,4.93599427 7.17473167,4.90648028 Z" id="形状"></path>
            </g>
        </g>
    </g>
</svg>