<?xml version="1.0" encoding="UTF-8"?>
<svg width="40px" height="40px" viewBox="0 0 40 40" version="1.1" xmlns="http://www.w3.org/2000/svg" xmlns:xlink="http://www.w3.org/1999/xlink">
    <!-- Generator: Sketch 61.2 (89653) - https://sketch.com -->
    <title>椭圆形备份 7@2x</title>
    <desc>Created with Sketch.</desc>
    <g id="针线互联用户端" stroke="none" stroke-width="1" fill="none" fill-rule="evenodd">
        <g id="工作台" transform="translate(-774.000000, -376.000000)">
            <g id="编组-8" transform="translate(774.000000, 376.000000)">
                <circle id="椭圆形备份-7" fill="#7E3BF3" cx="20" cy="20" r="20"></circle>
                <g id="编组" transform="translate(10.000000, 10.000000)" fill="#FFFFFF" fill-rule="nonzero">
                    <path d="M14.9990178,10.6314978 C15.0473737,10.8249214 15.0715516,11.042523 15.0715516,11.2359466 L15.0715516,13.1701825 C15.0715516,13.6779195 14.878128,14.1614785 14.5154588,14.5241477 C14.1527895,14.886817 13.6692305,15.0802406 13.1614936,15.0802406 L11.2514356,15.0802406 C10.7436986,15.0802406 10.2601396,14.886817 9.89747039,14.5241477 C9.53480116,14.1614785 9.34137756,13.6779195 9.34137753,13.1701825 L9.34137753,11.2359466 C9.34137753,11.018345 9.36555548,10.8249214 9.43808935,10.6314978 C6.56091334,11.4051922 4.52996555,13.3394282 4.52996555,15.5637996 L4.52996555,17.0144765 C4.52996555,18.0783063 5.40037174,18.9487125 6.46420153,18.9487125 L17.9729056,18.9487125 C19.0367354,18.9487125 19.8829636,18.0783063 19.9071416,17.0144765 L19.9071416,15.5637996 C19.9071416,13.3152502 17.8761938,11.3810143 14.9990178,10.6314978 L14.9990178,10.6314978 Z" id="路径"></path>
                    <path d="M12.1701977,11.2359466 C11.6382828,11.2359466 11.2030797,11.6711497 11.2030797,12.2030646 L11.2030797,13.1701825 C11.2030797,13.7020974 11.6382828,14.1373005 12.1701977,14.1373005 C12.7021126,14.1373005 13.1373156,13.7020974 13.1373156,13.1701825 L13.1373156,12.2030646 C13.1373156,11.9371071 13.0406038,11.6953276 12.8471802,11.526082 C12.6779346,11.3326584 12.460333,11.2359466 12.1701977,11.2359466 Z M12.1943756,10.051227 C14.8539501,10.051227 17.0057876,7.80267771 17.0057876,5.04639144 C17.0057876,2.29010518 14.878128,0.0173779089 12.2185535,0.0173779089 C9.55897908,0.0173779089 7.40714156,2.26592724 7.40714156,5.04639144 C7.38296362,7.80267769 9.55897908,10.051227 12.1943756,10.051227 Z M7.60056516,9.61602394 C6.41584562,8.4796603 5.76304097,6.90809356 5.78721894,5.28817094 C5.78721894,4.27269706 6.02899844,3.28140112 6.51255743,2.38681697 C4.50578761,2.53188466 2.91004293,4.41776475 2.91004291,6.71466996 C2.88586496,8.11699104 3.51449165,9.44677828 4.6024994,10.3171845 C1.91874699,10.8732773 0.00868895445,12.4932 0.00868895445,14.403258 L0.00868895445,15.8781129 C0.00868895445,16.4100278 0.443892059,16.8452309 0.975806932,16.8452309 L3.17600035,16.8452309 C3.0067547,16.5550955 2.91004291,16.2166042 2.91004291,15.8781129 L2.91004291,14.4274359 C2.88586496,12.2997763 4.82010094,10.4622522 7.60056516,9.61602394 Z" id="形状"></path>
                </g>
            </g>
        </g>
    </g>
</svg>