<?xml version="1.0" encoding="UTF-8"?>
<svg width="40px" height="40px" viewBox="0 0 40 40" version="1.1" xmlns="http://www.w3.org/2000/svg" xmlns:xlink="http://www.w3.org/1999/xlink">
    <!-- Generator: Sketch 61.2 (89653) - https://sketch.com -->
    <!-- <title>椭圆形备份 9@2x</title> -->
    <desc>Created with Sketch.</desc>
    <g id="针线互联用户端" stroke="none" stroke-width="1" fill="none" fill-rule="evenodd">
        <g id="工作台" transform="translate(-334.000000, -472.000000)">
            <g id="编组-5" transform="translate(334.000000, 472.000000)">
                <circle id="椭圆形备份-9" fill="#409EFF" cx="20" cy="20" r="20"></circle>
                <g id="编组" transform="translate(10.500000, 10.000000)" fill="#FFFFFF" fill-rule="nonzero">
                    <path d="M9.83088796,5.54096799 C10.3894103,5.53365568 10.9211128,5.30194836 11.3089272,4.90193883 C11.6967178,4.50195312 11.9113472,3.96291444 11.9016054,3.40682165 C11.9042194,2.77332415 11.6287044,2.17059031 11.1479373,1.75805069 C11.191835,1.89462652 11.2137957,2.03608518 11.2162252,2.17999714 C11.2455221,2.70438739 10.9820884,3.20193407 10.5332984,3.47268007 C10.0845322,3.74340225 9.52110328,3.74340225 9.06988377,3.47268007 C8.62111757,3.20193407 8.3577077,2.70438739 8.38695694,2.17999714 C8.38695694,2.06535823 8.40160537,1.95071932 8.42842511,1.83853373 C8.00159585,2.24828506 7.76014672,2.81414348 7.76014672,3.40436833 C7.7503811,3.96291444 7.96501048,4.49949981 8.35282489,4.89950934 C8.74126092,5.30041781 9.27273133,5.53107223 9.83086414,5.54096799 L9.83088796,5.54096799 Z M9.76745903,2.8165968 C10.5332984,2.79463605 11.140625,2.16048971 11.1308594,1.39462652 C11.1308594,0.901938834 10.8674495,0.445836509 10.4406202,0.199504573 C10.0134278,-0.046829125 9.48733439,-0.046829125 9.06014196,0.199504573 C8.63331269,0.445836509 8.369879,0.901938834 8.369879,1.39462652 C8.3601372,2.16048971 8.96501048,2.79463605 9.73330316,2.8165968 L9.76745903,2.8165968 Z M3.35280107,16.9043445 C3.0845322,16.350705 1.98942454,7.97753906 1.98942454,7.97753906 L0.239997603,14.7196833 C0.113501492,15.2071887 0.369300599,15.7126921 0.83702178,15.8995065 L3.35280107,16.9043445 L3.35280107,16.9043445 Z M13.789396,16.6824028 L6.31135671,17.4604611 L12.3379358,19.528688 C12.8603149,19.7079603 13.4291157,19.4298172 13.608388,18.9074382 C13.6371099,18.8237456 13.6545969,18.7366111 13.6603908,18.6483171 L13.789396,16.6824028 L13.789396,16.6824028 Z M12.2113662,2.48485137 C12.4381907,2.90191502 12.5576886,3.37021246 12.5552591,3.84825171 C12.5552591,4.82143197 12.0357517,5.7214415 11.191835,6.20679306 C10.3492155,6.69458793 9.31008328,6.69458793 8.4674638,6.20679306 C7.62357088,5.71898819 7.10403963,4.82143197 7.10403963,3.84827553 C7.10403963,3.64581745 7.12600038,3.44581269 7.16744474,3.24826124 L3.70096876,3.78055636 C3.15508229,3.86438002 2.78050637,4.37486094 2.86433003,4.92074741 C2.86476444,4.92357645 2.865211,4.92640362 2.86566969,4.92922883 L4.63934011,15.8538052 C4.72784792,16.3989518 5.24152632,16.7691306 5.78667291,16.6806228 C5.79074023,16.6799625 5.79480342,16.679277 5.79886226,16.6785664 L17.6918683,14.5964618 C18.2358792,14.501222 18.59968,13.9830069 18.5044402,13.438996 C18.501239,13.4207103 18.4975291,13.4025172 18.493315,13.384438 L16.035564,2.84022861 C15.9171973,2.33241338 15.4285028,2.00078103 14.9128791,2.07836496 L12.2113662,2.48485137 L12.2113662,2.48485137 Z M5.35037157,8.74580793 L11.2772008,7.87021246 L11.4552687,8.52874905 L5.52110328,9.42385194 L5.35037157,8.74583175 L5.35037157,8.74580793 Z M6.62109375,13.7409489 L6.40648819,12.9872809 L13.6894055,11.9433832 L13.91623,12.6872856 L6.62111757,13.7409489 L6.62109375,13.7409489 Z M6.16744474,11.5751 L5.88209794,10.8702125 L15.2821075,9.57510004 L15.5674543,10.3190025 L6.16744474,11.5751 L6.16744474,11.5751 Z" id="形状"></path>
                </g>
            </g>
        </g>
    </g>
</svg>