<?xml version="1.0" encoding="UTF-8"?>
<svg width="40px" height="40px" viewBox="0 0 40 40" version="1.1" xmlns="http://www.w3.org/2000/svg" xmlns:xlink="http://www.w3.org/1999/xlink">
    <!-- Generator: Sketch 61.2 (89653) - https://sketch.com -->
    <title>椭圆形备份 14@2x</title>
    <desc>Created with Sketch.</desc>
    <g id="针线互联用户端" stroke="none" stroke-width="1" fill="none" fill-rule="evenodd">
        <g id="工作台" transform="translate(-994.000000, -472.000000)">
            <g id="编组-19" transform="translate(994.000000, 472.000000)">
                <circle id="椭圆形备份-14" fill="#FF5A5A" cx="20" cy="20" r="20"></circle>
                <g id="编组备份-4" transform="translate(9.000000, 10.000000)" fill-rule="nonzero">
                    <path d="M10.9330329,4.71034246 C12.3377997,3.30557558 14.2430725,2.51638577 16.2297129,2.51638578 L16.2297129,2.2042759 C16.2262841,0.999084358 15.2501354,0.0229355942 14.0449438,0.0195068689 L2.18476905,0.0195068689 C0.979577511,0.0229355942 0.00342873744,0.999084358 0,2.2042759 L0,17.809769 C0.00342873744,19.0149606 0.979577511,19.9911093 2.18476905,19.9945381 L14.0449438,19.9945381 C15.2501354,19.9911093 16.2262841,19.0149606 16.2297129,17.809769 L16.2297129,17.4976592 C14.2430725,17.4976592 12.3377997,16.7084694 10.9330329,15.3037025 C9.52826597,13.8989356 8.73907615,11.9936628 8.73907615,10.0070225 C8.73907615,8.0203821 9.52826597,6.11510934 10.9330329,4.71034246 Z M7.4906367,16.2991573 C7.4906367,16.6163246 7.23352182,16.8734395 6.91635455,16.8734395 L3.07116106,16.8734395 C2.75399378,16.8734395 2.49687891,16.6163246 2.49687891,16.2991573 L2.49687891,16.1992821 C2.49687891,15.8821149 2.75399378,15.625 3.07116106,15.625 L6.91635455,15.625 C7.23352182,15.625 7.4906367,15.8821149 7.4906367,16.1992821 L7.4906367,16.2991573 Z M7.4906367,11.9296192 C7.4906367,12.0819283 7.43013214,12.2279992 7.32243335,12.335698 C7.21473455,12.4433968 7.06866364,12.5039014 6.91635455,12.5039014 L3.07116106,12.5039014 C2.91885196,12.5039014 2.77278105,12.4433968 2.66508225,12.335698 C2.55738346,12.2279992 2.49687891,12.0819283 2.49687891,11.9296192 L2.49687891,11.8297441 C2.49687891,11.5125768 2.75399378,11.2554619 3.07116106,11.2554619 L6.91635455,11.2554619 C7.23352182,11.2554619 7.4906367,11.5125768 7.4906367,11.8297441 L7.4906367,11.9296192 Z M7.4906367,7.56008115 C7.4906367,7.87724843 7.23352182,8.1343633 6.91635455,8.1343633 L3.07116106,8.1343633 C2.75399378,8.1343633 2.49687891,7.87724843 2.49687891,7.56008115 L2.49687891,7.460206 C2.49687891,7.14303873 2.75399378,6.88592385 3.07116106,6.88592385 L6.91635455,6.88592385 C7.23352182,6.88592385 7.4906367,7.14303873 7.4906367,7.460206 L7.4906367,7.56008115 Z M7.4906367,3.19054308 C7.4906367,3.50771035 7.23352182,3.76482523 6.91635455,3.76482523 L3.07116106,3.76482523 C2.91885196,3.76482523 2.77278105,3.70432068 2.66508225,3.59662188 C2.55738346,3.48892309 2.49687891,3.34285217 2.49687891,3.19054308 L2.49687891,3.09066792 C2.49687891,2.77350065 2.75399378,2.51638578 3.07116106,2.51638578 L6.91635455,2.51638578 C7.23352182,2.51638578 7.4906367,2.77350065 7.4906367,3.09066792 L7.4906367,3.19054308 Z M9.98751563,10.0070225 C9.98751563,13.4544928 12.7822425,16.2492197 16.2297129,16.2492197 C19.6771832,16.2492197 22.4719101,13.4544928 22.4719101,10.0070225 C22.4719101,6.55955213 19.6771832,3.76482523 16.2297129,3.76482523 C12.7822425,3.76482523 9.98751563,6.55955213 9.98751563,10.0070225 Z" id="形状" fill="#FFFFFF"></path>
                    <rect id="矩形" fill="#FF5A5A" x="13" y="9.4" width="6.4" height="1.5" rx="0.75"></rect>
                    <rect id="矩形备份-20" fill="#FF5A5A" transform="translate(16.200000, 10.150000) rotate(-270.000000) translate(-16.200000, -10.150000) " x="13" y="9.4" width="6.4" height="1.5" rx="0.75"></rect>
                </g>
            </g>
        </g>
    </g>
</svg>