<?xml version="1.0" encoding="UTF-8"?>
<svg width="23px" height="23px" viewBox="0 0 23 23" version="1.1" xmlns="http://www.w3.org/2000/svg" xmlns:xlink="http://www.w3.org/1999/xlink">
    <!-- Generator: Sketch 61.2 (89653) - https://sketch.com -->
    <title>形状结合@2x</title>
    <desc>Created with Sketch.</desc>
    <g id="针线互联用户端" stroke="none" stroke-width="1" fill="none" fill-rule="evenodd">
        <g id="联系人_组织架构" transform="translate(-121.000000, -178.000000)" fill="#C0C4CC" fill-rule="nonzero">
            <g id="编组" transform="translate(121.000000, 178.000000)">
                <path d="M12.5153386,15.4793595 C12.8957331,15.4889655 13.2147427,15.7694134 13.2730074,16.145442 L13.7517542,19.962927 C13.7795317,20.3831295 13.6437933,20.7978028 13.3729198,21.1202453 L11.8534192,22.7188432 C11.5974862,22.986213 11.1738928,22.9973602 10.9042517,22.7438213 L9.1724373,21.0786152 C8.88678763,20.7744591 8.7470694,20.3613791 8.78943987,19.946275 L9.40972916,16.145442 C9.48573061,15.771138 9.80665796,15.4965477 10.188213,15.4793595 L12.5153386,15.4793595 Z M11.4662588,0.0137574738 C14.5775525,0.0540902731 17.3374516,2.02022361 18.3920193,4.94762214 C19.4465871,7.87502067 18.574575,11.1495158 16.2037702,13.164723 C19.2374172,14.8397478 21.2083536,17.9452279 21.4325175,21.4033304 L21.4325175,21.58234 C21.4526023,21.8397474 21.3266466,22.0866764 21.1064736,22.2215309 C20.8863005,22.3563855 20.6091025,22.3563855 20.3889294,22.2215309 C20.1687563,22.0866764 20.0428007,21.8397474 20.0628855,21.58234 L20.0628855,21.4158194 C19.8491756,18.1802514 17.8364077,15.338886 14.8549533,14.0639343 C13.794266,14.570437 12.6408981,14.8538197 11.4662588,14.8965374 C10.3592412,14.8970543 9.26686659,14.6435437 8.27322598,14.1555206 L7.52804622,13.705915 L6.92024598,13.2896134 C5.14041359,11.8789173 4.10246054,9.73248561 4.10182534,7.46139193 C4.08571979,3.37395495 7.37889835,0.0435443057 11.4662588,0.0137574738 Z M5.82120992,13.8473921 C6.32493479,13.8473921 6.6288349,14.0930754 6.6288349,14.5135399 C6.62659847,14.7561335 6.51866318,14.9856861 6.33326082,15.1421553 L6.2166964,15.2295786 C4.36415456,16.5617435 3.31923769,18.6432512 3.11524995,21.3242331 L3.11524995,21.4199824 C3.11552486,21.8686724 2.76020312,22.2368814 2.31178798,22.2525855 C1.87893403,22.2402404 1.52780364,21.8981597 1.504163,21.4657756 L1.5,21.299255 C1.69225915,18.4667637 3.05970409,15.8435636 5.2716919,14.0639343 L5.4049084,13.9640219 C5.52960534,13.8860021 5.67412921,13.8455354 5.82120992,13.8473921 Z M11.4038135,16.7282641 L11.266434,16.7282641 C10.8848789,16.7454523 10.5639516,17.0200426 10.4879501,17.3943466 L10.1424199,19.5091584 C10.1018074,19.9159984 10.2447726,20.3281638 10.5337433,20.6290095 L10.8667845,20.9495617 C10.9952956,21.0734528 11.1681567,21.1405776 11.3466001,21.1358817 C11.5250435,21.1311858 11.694135,21.0550623 11.815952,20.9245836 L12.0574069,20.6664767 C12.3290539,20.3444648 12.4648972,19.9294708 12.4362413,19.5091584 L12.1614823,17.3943466 C12.1048003,17.0174522 11.7848639,16.7361895 11.4038135,16.7282641 Z M9.2693679,1.95571239 C7.03716653,2.87336209 5.57988782,5.04792888 5.57971721,7.46139193 C5.56820712,10.729634 8.2022396,13.3915891 11.4704218,13.4145039 C13.883752,13.4398199 16.0735642,12.005552 17.0147004,9.7831509 C17.9558366,7.56074981 17.4620428,4.99003596 15.7644881,3.27448595 C14.0669334,1.55893593 11.5015693,1.03806269 9.2693679,1.95571239 Z" id="形状结合"></path>
            </g>
        </g>
    </g>
</svg>