<?xml version="1.0" encoding="UTF-8"?>
<svg width="40px" height="40px" viewBox="0 0 40 40" version="1.1" xmlns="http://www.w3.org/2000/svg" xmlns:xlink="http://www.w3.org/1999/xlink">
    <!-- Generator: Sketch 61.2 (89653) - https://sketch.com -->
    <title>椭圆形备份 11@2x</title>
    <desc>Created with Sketch.</desc>
    <g id="针线互联用户端" stroke="none" stroke-width="1" fill="none" fill-rule="evenodd">
        <g id="工作台" transform="translate(-1214.000000, -472.000000)">
            <g id="编组-20" transform="translate(1214.000000, 472.000000)">
                <circle id="椭圆形备份-11" fill="#3370FF" cx="20" cy="20" r="20"></circle>
                <g id="编组" transform="translate(11.000000, 10.000000)">
                    <rect id="矩形" fill="#FFFFFF" x="0" y="0" width="17" height="20" rx="3"></rect>
                    <path d="M19.0740158,4.91137745 L21.9698721,7.8073091 L15.2649147,14.5092231 L11.5764626,15.6329125 L12.2590467,11.7264262 L19.0740158,4.91137745 Z" id="路径" stroke="#3370FF" stroke-width="1.5" fill="#FFFFFF" fill-rule="nonzero" stroke-linejoin="round"></path>
                    <path d="M4.34314495,15.141399 C4.27134022,15.141399 4.19827159,15.1236565 4.13109326,15.0856436 C3.92285717,14.9682187 3.84935929,14.7046326 3.9667842,14.4959673 C5.81901701,11.2130772 6.5349657,11.3254226 6.77489508,11.364294 C6.94933931,11.391337 7.25728166,11.5138176 7.36244899,12.0266097 C7.45283088,12.4675971 7.47860999,12.9119708 7.4993096,13.2693012 C7.50395986,13.3470201 7.50901553,13.4340395 7.5149297,13.5185311 L7.82749845,13.1763915 C8.47123701,12.4642346 8.86321784,12.0367449 9.35490492,12.1525005 C9.77857904,12.2513482 9.90783232,12.7109128 9.95049542,12.8612949 C10.0214655,13.1138873 10.0218709,13.3495957 9.99864346,13.5489605 C10.0632701,13.5210828 10.1363387,13.4881256 10.2195664,13.4501128 C10.4362683,13.3504303 10.6930817,13.4467264 10.7927641,13.6646923 C10.8916119,13.8817996 10.7961505,14.1386368 10.5781846,14.2374607 C9.8896844,14.550888 9.51668614,14.7046326 9.22269458,14.4621754 C8.96292412,14.2492891 9.03685126,13.9367203 9.0854047,13.7288896 C9.13059564,13.5388015 9.18129536,13.3225526 9.11750339,13.0961448 C9.11666872,13.0927585 9.11581021,13.0893959 9.11497557,13.0860096 C8.94432309,13.2313122 8.68665119,13.5160033 8.46911459,13.7567912 L8.1210608,14.1378022 C7.9364814,14.337167 7.55377723,14.7528045 7.12588212,14.5965321 C6.70094409,14.4444568 6.67349565,13.9722292 6.63588821,13.3191902 C6.61771645,13.0116771 6.59787535,12.6678443 6.53916288,12.329091 C6.14083863,12.6780033 5.37967514,13.7525702 4.72031651,14.9217877 C4.64092827,15.0619869 4.49393249,15.141399 4.34314495,15.141399 Z" id="路径" stroke="#3370FF" stroke-width="0.5" fill="#3370FF" fill-rule="nonzero"></path>
                    <path d="M4.2284596,4.19309394 L12.2442908,4.19309394 C12.6585044,4.19309394 12.9942908,4.52888038 12.9942908,4.94309394 C12.9942908,5.35730751 12.6585044,5.69309394 12.2442908,5.69309394 L4.2284596,5.69309394 C3.81424604,5.69309394 3.4784596,5.35730751 3.4784596,4.94309394 C3.4784596,4.52888038 3.81424604,4.19309394 4.2284596,4.19309394 Z" id="路径" fill="#3370FF" fill-rule="nonzero"></path>
                    <path d="M4.2284596,7.65338535 L10.5141332,7.65338535 C10.9283468,7.65338535 11.2641332,7.98917179 11.2641332,8.40338535 C11.2641332,8.81759891 10.9283468,9.15338535 10.5141332,9.15338535 L4.2284596,9.15338535 C3.81424604,9.15338535 3.4784596,8.81759891 3.4784596,8.40338535 C3.4784596,7.98917179 3.81424604,7.65338535 4.2284596,7.65338535 Z" id="路径" fill="#3370FF" fill-rule="nonzero"></path>
                </g>
            </g>
        </g>
    </g>
</svg>