<?xml version="1.0" encoding="UTF-8"?>
<svg width="23px" height="23px" viewBox="0 0 23 23" version="1.1" xmlns="http://www.w3.org/2000/svg" xmlns:xlink="http://www.w3.org/1999/xlink">
    <!-- Generator: Sketch 61.2 (89653) - https://sketch.com -->
    <title>形状@2x</title>
    <desc>Created with Sketch.</desc>
    <g id="针线互联用户端" stroke="none" stroke-width="1" fill="none" fill-rule="evenodd">
        <g id="联系人_员工个人档案" transform="translate(-121.000000, -177.000000)" fill="#409EFF" fill-rule="nonzero">
            <g id="编组" transform="translate(121.000000, 177.000000)">
                <g id="编组-4" transform="translate(1.500000, 0.013757)">
                    <path d="M2.48948318,5.5035063 C2.48948318,8.09007243 4.58630932,10.1868986 7.17287545,10.1868986 C9.75944158,10.1868986 11.8562677,8.09007243 11.8562677,5.5035063 C11.8562677,2.91694017 9.75944158,0.820114026 7.17287545,0.820114026 C4.58630932,0.820114026 2.48948318,2.91694017 2.48948318,5.5035063 Z" id="路径" opacity="0.400000006"></path>
                    <path d="M1.63069558e-12,21.2854975 C0.192259151,18.4530062 1.55970409,15.8298061 3.7716919,14.0501768 L3.9049084,13.9502645 C4.02960534,13.8722446 4.17412921,13.8317779 4.32120992,13.8336346 C4.82493479,13.8336346 5.1288349,14.0793179 5.1288349,14.4997825 C5.12659847,14.7423761 5.01866318,14.9719286 4.83326082,15.1283978 L4.7166964,15.2158211 C2.86415456,16.547986 1.81923769,18.6294937 1.61524995,21.3104756 L1.61524995,21.4062249 C1.61552486,21.8549149 1.26020312,22.2231239 0.811787979,22.238828 C0.37893403,22.2264829 0.0278036433,21.8844023 0.00416300127,21.4520181 L1.63069558e-12,21.2854975 Z M2.60182534,7.44763446 C2.58571979,3.36019747 5.87889835,0.0297868319 9.96625876,4.79616347e-14 C13.0775525,0.0403327993 15.8374516,2.00646614 16.8920193,4.93386467 C17.9465871,7.8612632 17.074575,11.1357583 14.7037702,13.1509655 C17.7374172,14.8259903 19.7083536,17.9314705 19.9325175,21.3895729 L19.9325175,21.5685826 C19.9526023,21.8259899 19.8266466,22.0729189 19.6064736,22.2077734 C19.3863005,22.342628 19.1091025,22.342628 18.8889294,22.2077734 C18.6687563,22.0729189 18.5428007,21.8259899 18.5628855,21.5685826 L18.5628855,21.4020619 C18.3491756,18.1664939 16.3364077,15.3251285 13.3549533,14.0501768 C12.294266,14.5566795 11.1408981,14.8400623 9.96625876,14.8827799 C8.85924119,14.8832969 7.76686659,14.6297862 6.77322598,14.1417632 L6.02804622,13.6921575 L5.42024598,13.275856 C3.64041359,11.8651599 2.60246054,9.71872814 2.60182534,7.44763446 L2.60182534,7.44763446 Z M9.97042176,13.4007464 C12.383752,13.4260624 14.5735642,11.9917945 15.5147004,9.76939343 C16.4558366,7.54699234 15.9620428,4.97627848 14.2644881,3.26072847 C12.5669334,1.54517846 10.0015693,1.02430521 7.7693679,1.94195492 C5.53716653,2.85960462 4.07988782,5.03417141 4.07971721,7.44763446 C4.06820712,10.7158766 6.7022396,13.3778316 9.97042176,13.4007464 L9.97042176,13.4007464 Z" id="形状"></path>
                    <path d="M10.3534192,22.7050857 C10.0974862,22.9724555 9.67389282,22.9836027 9.40425167,22.7300638 L7.6724373,21.0648577 C7.38678763,20.7607016 7.2470694,20.3476216 7.28943987,19.9325175 L7.90972916,16.1316845 C7.98573061,15.7573805 8.30665796,15.4827902 8.68821304,15.465602 L11.0153386,15.465602 C11.3957331,15.475208 11.7147427,15.7556559 11.7730074,16.1316845 L12.2517542,19.9491696 C12.2795317,20.369372 12.1437933,20.7840453 11.8729198,21.1064879 L10.3534192,22.7050857 Z M8.64241987,19.4870749 C8.60180743,19.9022409 8.74477257,20.3144064 9.03374332,20.615252 L9.36678455,20.9358042 C9.49529556,21.0596954 9.66815672,21.1268201 9.84660011,21.1221242 C10.0250435,21.1174283 10.194135,21.0413048 10.315952,20.9108261 L10.5574069,20.6527192 C10.8290539,20.3307073 10.9648972,19.9157134 10.9362413,19.4954009 L10.6614823,17.3805891 C10.6048003,17.0036947 10.2848639,16.722432 9.90381352,16.7145066 L9.76643402,16.7145066 C9.38487895,16.7316949 9.0639516,17.0062851 8.98795014,17.3805891 L8.64241987,19.4954009 L8.64241987,19.4870749 Z" id="形状"></path>
                </g>
            </g>
        </g>
    </g>
</svg>