<?xml version="1.0" encoding="UTF-8"?>
<svg width="40px" height="40px" viewBox="0 0 40 40" version="1.1" xmlns="http://www.w3.org/2000/svg" xmlns:xlink="http://www.w3.org/1999/xlink">
    <!-- Generator: Sketch 61.2 (89653) - https://sketch.com -->
    <title>椭圆形备份 8@2x</title>
    <desc>Created with Sketch.</desc>
    <g id="针线互联用户端" stroke="none" stroke-width="1" fill="none" fill-rule="evenodd">
        <g id="工作台" transform="translate(-994.000000, -376.000000)">
            <g id="编组-17" transform="translate(994.000000, 376.000000)">
                <circle id="椭圆形备份-8" fill="#3370FF" cx="20" cy="20" r="20"></circle>
                <g id="编组" transform="translate(10.000000, 12.000000)" fill="#FFFFFF" fill-rule="nonzero">
                    <path d="M19.1794536,13.5884481 L14.6305514,13.5884481 C13.8640843,14.5804641 12.8940244,15.3988273 11.788236,15.9836577 L19.1694735,15.9836577 C19.5986153,15.9836577 19.9479167,15.6243762 19.9479167,15.1852545 L19.9479167,14.3868513 C19.9543731,14.1783712 19.8764622,13.9761005 19.7318185,13.8258213 C19.5871748,13.6755421 19.3880282,13.5899609 19.1794536,13.5884481 L19.1794536,13.5884481 Z M19.1794536,9.06948604 L16.4768588,9.06948604 C16.3770584,9.88784932 16.1774576,10.6982286 15.8680763,11.4666916 L19.1894336,11.4666916 C19.6185754,11.4666916 19.9678768,11.1074102 19.9678768,10.6682884 L19.9678768,9.86988522 C19.9678768,9.43280754 19.6164971,9.0769455 19.1794536,9.07148204 L19.1794536,9.06948604 Z M19.1794536,4.54253993 L15.8680763,4.54253993 C16.1774576,5.31100299 16.3870384,6.1094062 16.4768588,6.93774951 L19.1794536,6.93774951 C19.6085953,6.93774951 19.9578967,6.58046407 19.9578967,6.1393463 L19.9578967,5.34094311 C19.9578967,4.90182137 19.6085953,4.54253993 19.1794536,4.54253993 L19.1794536,4.54253993 Z M19.1794536,0.0255738445 L11.8181762,0.0255738445 C12.9159805,0.610404192 13.8740644,1.42876745 14.6405314,2.42078343 L19.1794536,2.42078343 C19.6085953,2.42078343 19.9578967,2.06349799 19.9578967,1.62238024 L19.9578967,0.823977054 C19.9578967,0.374875257 19.6085953,0.0255738445 19.1794536,0.0255738445 L19.1794536,0.0255738445 Z M7.78823604,0.0155938202 C3.48883484,0.0155938202 0.00779689839,3.5884481 0.00779689839,7.99363772 C0.00779689839,12.3988274 3.48883484,15.9836577 7.78823604,15.9836577 C12.0876372,15.9836577 15.5686751,12.4108034 15.5686751,7.99363772 C15.5686751,3.58046407 12.0776572,0.0155938202 7.78823604,0.0155938202 Z M9.69848129,8.95757649 L8.46687874,8.95757649 L8.46687874,8.95757649 L8.45689869,8.96955254 L8.45689869,9.5405439 L9.75361776,9.5405439 C10.0185642,9.5405439 10.2333458,9.75532547 10.2333458,10.020272 C10.2333458,10.2852184 10.0185642,10.5 9.75361776,10.5 L8.45689869,10.5 L8.45689869,10.5 L8.45689869,11.2441367 C8.45689869,11.6161848 8.15529411,11.9177894 7.783246,11.9177894 C7.41119789,11.9177894 7.10959331,11.6161848 7.10959331,11.2441367 L7.10959331,10.5 L7.10959331,10.5 L5.82485031,10.5 C5.55990383,10.5 5.34512226,10.2852184 5.34512226,10.020272 C5.34512226,9.75532547 5.55990383,9.5405439 5.82485031,9.5405439 L7.10959331,9.5405439 L7.10959331,9.5405439 L7.10959331,8.96955254 L7.09961328,8.95757649 L5.87599383,8.95757649 C5.58169918,8.95757649 5.34312624,8.71900355 5.34312624,8.4247089 C5.34312624,8.13041426 5.58169918,7.89184132 5.87599383,7.89184132 L6.70041168,7.89184132 L6.70041168,7.89184132 L5.01602717,4.74041224 C4.89767167,4.51897291 4.98123762,4.24351478 5.20267695,4.12515928 C5.2686108,4.08991877 5.34221781,4.07148204 5.41697854,4.07148204 C5.8811086,4.07148204 6.30466998,4.3359605 6.50840331,4.75298501 L7.64238422,7.07414593 C7.68278913,7.1568513 7.78258973,7.19114259 7.8652951,7.15073768 C7.89866617,7.13443456 7.92563559,7.107452 7.94192246,7.07407299 L9.07438872,4.75314708 C9.27790216,4.33605772 9.70138967,4.07148204 10.1654815,4.07148204 C10.415758,4.07148204 10.6186472,4.27437123 10.6186472,4.52464774 C10.6186472,4.5996035 10.6000544,4.6733888 10.5645344,4.73939404 L8.86807635,7.89184132 L8.86807635,7.89184132 L9.70047729,7.89184132 C9.99422178,7.89184132 10.2323487,8.12996828 10.2323487,8.42371277 C10.2323487,8.42404482 10.2323484,8.42437686 10.2323478,8.4247089 C10.2317963,8.71916485 9.99293774,8.95757649 9.69848129,8.95757649 Z" id="形状"></path>
                </g>
            </g>
        </g>
    </g>
</svg>