<?xml version="1.0" encoding="UTF-8"?>
<svg width="20px" height="14px" viewBox="0 0 20 14" version="1.1" xmlns="http://www.w3.org/2000/svg" xmlns:xlink="http://www.w3.org/1999/xlink">
    <!-- Generator: Sketch 61.2 (89653) - https://sketch.com -->
    <title>形状结合@2x</title>
    <desc>Created with Sketch.</desc>
    <g id="针线互联用户端" stroke="none" stroke-width="1" fill="none" fill-rule="evenodd">
        <g id="登录_申请企业未审批_批注" transform="translate(-961.000000, -637.000000)" fill="#409EFF" fill-rule="nonzero">
            <g id="编组-2" transform="translate(961.000000, 637.000000)">
                <path d="M7.31089888,8.65941038 C7.69239146,8.88464572 8.10440344,9.06829284 8.53952295,9.20376346 L5.30795388,12.7647056 L13.8856191,12.7647056 L13.8856191,14 L5.30795388,14 C4.79719706,14 4.33317254,13.719188 4.1197182,13.280957 C3.92760931,12.8865491 3.97009522,12.4295639 4.22278384,12.0750794 L4.31476521,11.9609406 L7.31089888,8.65941038 Z M17.3416968,9.5200125 L17.3416968,11.1490989 L19,11.1490989 L19,12.3709136 L17.3416968,12.3709136 L17.3416968,14 L16.0979694,14 L16.0979694,12.3709136 L14.4396662,12.3709136 L14.4396662,11.1490989 L16.0979694,11.1490989 L16.0979694,9.5200125 L17.3416968,9.5200125 Z M5.96152267,-1.34956276e-12 C6.32027282,-0.000337694223 6.67755287,0.046866578 7.02443343,0.140434876 C6.59526927,0.468357107 6.219994,0.864147 5.91274174,1.31289778 C4.65349716,1.33464154 3.55573022,2.19441071 3.20731168,3.43178593 C2.85889314,4.66916114 3.34149708,5.99408465 4.39668182,6.69703993 L4.39668182,6.69703993 L5.62005617,7.51470156 L1.28368835,12.6871004 L3.15191233,12.6875379 C3.04065759,13.128524 3.10227561,13.601884 3.32735252,14 L3.32735252,14 L1.28368835,13.9995589 C0.782407223,13.9995434 0.326991423,13.7012056 0.117497159,13.2356001 C-0.0919971059,12.7699945 -0.0172413278,12.2223071 0.308925584,11.8331275 L0.308925584,11.8331275 L3.69363738,7.79556768 C2.56097845,7.03784166 1.81214841,5.72975803 1.81214841,4.2423051 C1.81214841,1.89912924 3.67010273,-1.34956276e-12 5.96152267,-1.34956276e-12 Z M10.48575,-3.49984271e-12 C12.9786662,-3.49984271e-12 15,1.89912791 15,4.24230438 C15,6.58504336 12.9786662,8.48460875 10.48575,8.48460875 C7.99236818,8.48460875 5.97149993,6.58504336 5.97149993,4.24230438 C5.97149993,1.89912791 7.99236818,-3.49984271e-12 10.48575,-3.49984271e-12 Z M15.0995772,-1.34956276e-12 C17.4700425,-1.34956276e-12 19.3920892,1.87844567 19.3920892,4.19605315 C19.3920892,5.66727522 18.6174274,6.96108523 17.445696,7.71054306 C17.0292437,7.994526 16.6189108,8.2305812 16.2146974,8.41870868 L15.452823,7.43274171 L16.7183991,6.62400228 C17.8099838,5.92871754 18.3092358,4.6182514 17.9487981,3.39437824 C17.5883604,2.17050508 16.4527246,1.32011758 15.1500409,1.29861108 C14.8321896,0.854757004 14.4439687,0.463285911 14,0.138941917 C14.3588466,0.046394623 14.7284515,-0.000294563271 15.0995772,-1.34956276e-12 Z M10.48575,1.31245882 C9.37191792,1.31245882 8.34269467,1.87088421 7.78577864,2.77738158 C7.22886262,3.68387896 7.22886262,4.80072979 7.78577864,5.70722717 C8.34269467,6.61372455 9.37191792,7.17214993 10.48575,7.17214993 C12.2075851,7.17214993 13.6034083,5.8604134 13.6034083,4.24230438 C13.6034083,2.62419535 12.2075851,1.31245882 10.48575,1.31245882 Z" id="形状结合"></path>
            </g>
        </g>
    </g>
</svg>