<?xml version="1.0" encoding="UTF-8"?>
<svg width="20px" height="20px" viewBox="0 0 20 20" version="1.1" xmlns="http://www.w3.org/2000/svg" xmlns:xlink="http://www.w3.org/1999/xlink">
    <!-- Generator: Sketch 61.2 (89653) - https://sketch.com -->
    <title>形状结合@2x</title>
    <desc>Created with Sketch.</desc>
    <g id="针线互联用户端" stroke="none" stroke-width="1" fill="none" fill-rule="evenodd">
        <g id="添加团队成员" transform="translate(-1096.000000, -259.000000)" fill="#F56C6C" stroke="#F56C6C">
            <g id="编组-4" transform="translate(1096.000000, 259.000000)">
                <path d="M10,0.5 C4.75329488,0.5 0.5,4.75329488 0.5,10 C0.5,15.2467051 4.75329488,19.5 10,19.5 C15.2467051,19.5 19.5,15.2467051 19.5,10 C19.5,4.75329488 15.2467051,0.5 10,0.5 Z M14,8.5 C14.8284271,8.5 15.5,9.17157288 15.5,10 C15.5,10.8284271 14.8284271,11.5 14,11.5 L6,11.5 C5.17157288,11.5 4.5,10.8284271 4.5,10 C4.5,9.17157288 5.17157288,8.5 6,8.5 L14,8.5 Z" id="形状结合"></path>
            </g>
        </g>
    </g>
</svg>