<?xml version="1.0" encoding="UTF-8"?>
<svg width="40px" height="40px" viewBox="0 0 40 40" version="1.1" xmlns="http://www.w3.org/2000/svg" xmlns:xlink="http://www.w3.org/1999/xlink">
    <!-- Generator: Sketch 61.2 (89653) - https://sketch.com -->
    <title>椭圆形备份 20@2x</title>
    <desc>Created with Sketch.</desc>
    <g id="针线互联用户端" stroke="none" stroke-width="1" fill="none" fill-rule="evenodd">
        <g id="工作台" transform="translate(-114.000000, -664.000000)">
            <g id="编组-22" transform="translate(114.000000, 664.000000)">
                <circle id="椭圆形备份-20" fill="#409EFF" cx="20" cy="20" r="20"></circle>
                <g id="编组备份-9" transform="translate(10.000000, 11.000000)" fill="#FFFFFF" fill-rule="nonzero">
                    <path d="M19.939375,9.97625 L17.44625,3.4325 C17.31625,3.07125 16.970625,2.8125 16.564375,2.8125 L14.0325,2.8125 C14.05,2.914375 14.064375,3.018125 14.064375,3.125 C14.064375,3.778125 13.73,4.351875 13.223125,4.6875 L15.9175,4.6875 L17.70375,9.375 L14.689375,9.375 C14.17125,9.375 13.751875,9.795 13.751875,10.3125 L13.751875,11.25 L6.251875,11.25 L6.251875,10.3125 C6.251875,9.795 5.8325,9.375 5.314375,9.375 L2.299375,9.375 L4.085,4.6875 L6.779375,4.6875 C6.27375,4.351875 5.93875,3.778125 5.93875,3.125 C5.93875,3.018125 5.953125,2.914375 5.97,2.8125 L3.438125,2.8125 C3.031875,2.8125 2.68625,3.070625 2.555625,3.431875 L0.0625,9.97625 C0.021875,10.080625 0,10.194375 0,10.3125 L0,16.25 C0,16.7675 0.419375,17.1875 0.9375,17.1875 L19.0625,17.1875 C19.58,17.1875 20,16.7675 20,16.25 L20,10.3125 C20,10.194375 19.978125,10.080625 19.9375,9.97625 L19.939375,9.97625 Z" id="形状"></path>
                    <path d="M7.814375,4.0625 C8.073125,4.0625 8.3075,3.9575 8.476875,3.7875 L9.064375,3.200625 L9.064375,9.0625 C9.064375,9.58 9.48375,10 10.001875,10 C10.52,10 10.939375,9.58 10.939375,9.0625 L10.939375,3.200625 L11.52625,3.788125 C11.695625,3.9575 11.93,4.0625 12.189375,4.0625 C12.706875,4.0625 13.126875,3.643125 13.126875,3.125 C13.126875,2.86625 13.021875,2.631875 12.8525,2.461875 L10.665,0.274375 C10.495625,0.104375 10.26125,0 10.001875,0 C9.743125,0 9.50875,0.105 9.339375,0.274375 L7.151875,2.461875 C6.9825,2.63125 6.876875,2.865625 6.876875,3.125 C6.876875,3.643125 7.29625,4.0625 7.814375,4.0625 Z" id="路径" transform="translate(10.001875, 5.000000) scale(1, -1) translate(-10.001875, -5.000000) "></path>
                </g>
            </g>
        </g>
    </g>
</svg>