<?xml version="1.0" encoding="UTF-8"?>
<svg width="14px" height="14px" viewBox="0 0 14 14" version="1.1" xmlns="http://www.w3.org/2000/svg" xmlns:xlink="http://www.w3.org/1999/xlink">
    <!-- Generator: Sketch 61.2 (89653) - https://sketch.com -->
    <title>形状结合@2x</title>
    <desc>Created with Sketch.</desc>
    <g id="针线互联用户端" stroke="none" stroke-width="1" fill="none" fill-rule="evenodd">
        <g id="公司工资薪资表_已设置" transform="translate(-1299.000000, -203.000000)" fill="#409EFF" fill-rule="nonzero">
            <g id="excel" transform="translate(1299.000000, 203.000000)">
                <path d="M7.86889819,0.0155988858 L7.86889819,14 L0,12.4654596 L0,1.48189415 L7.86889819,0.0155988858 Z M14,1.81337047 L14,12.1866295 L8.51324965,12.1866295 L8.51324965,10.9582173 L12.7503487,10.9582173 L12.7503487,10.3732591 L8.51324965,10.3732591 L8.51324965,9.4178273 L12.7503487,9.4178273 L12.7503487,8.83286908 L8.51324965,8.83286908 L8.51324965,7.91643454 L12.7503487,7.91643454 L12.7503487,7.33147632 L8.51324965,7.33147632 L8.51324965,6.37604457 L12.7503487,6.37604457 L12.7503487,5.79108635 L8.51324965,5.79108635 L8.51324965,4.8551532 L12.7503487,4.8551532 L12.7503487,4.27019499 L8.51324965,4.27019499 L8.51324965,3.31476323 L12.7503487,3.31476323 L12.7503487,2.72980501 L8.51324965,2.72980501 L8.51324965,1.81337047 L14,1.81337047 Z M2.66136681,3.47465181 L1.21645746,3.47465181 L2.93472803,6.62367688 L1.10320781,9.98328691 L2.48563459,9.98328691 L3.18075314,8.54038997 C3.34086471,8.20696379 3.48926081,7.8637883 3.65718271,7.46796657 L3.65718271,7.46796657 L3.69232915,7.46796657 C3.88758717,7.8637883 4.03598326,8.20696379 4.20390516,8.54038997 L4.20390516,8.54038997 L4.93417015,9.98328691 L6.3790795,9.98328691 L4.54755927,6.68412256 L6.26582985,3.47465181 L4.89121339,3.47465181 L4.27419805,4.81225627 C4.13361227,5.12033426 4.00083682,5.4362117 3.84267782,5.84178273 L3.84267782,5.84178273 L3.79776848,5.84178273 C3.60446304,5.4362117 3.46387727,5.12033426 3.31352859,4.81225627 L3.31352859,4.81225627 L2.66136681,3.47465181 Z" id="形状结合"></path>
            </g>
        </g>
    </g>
</svg>