<?xml version="1.0" encoding="UTF-8"?>
<svg width="16px" height="15px" viewBox="0 0 16 15" version="1.1" xmlns="http://www.w3.org/2000/svg" xmlns:xlink="http://www.w3.org/1999/xlink">
    <!-- Generator: Sketch 61.2 (89653) - https://sketch.com -->
    <title>路径@2x</title>
    <desc>Created with Sketch.</desc>
    <g id="针线互联应用" stroke="none" stroke-width="1" fill="none" fill-rule="evenodd">
        <g id="订单管理_录入" transform="translate(-100.000000, -421.000000)" fill-rule="nonzero">
            <g id="编组" transform="translate(100.000000, 421.000000)">
                <path d="M6.79650001,0 C7.49974905,0 8.10862937,0.488456179 8.261,1.17499999 L8.33349999,1.5 L14.5,1.5 C15.3284271,1.5 16,2.17157288 16,3 L16,13.5 C16,14.3284271 15.3284271,15 14.5,15 L1.5,15 C0.671572876,15 0,14.3284271 0,13.5 L0,1.5 C0,0.671572875 0.671572876,0 1.5,0 L6.79650001,0 Z" id="路径" fill="#409EFF"></path>
                <path d="M7.29282407,4 C9.11188272,4 10.5856481,5.47376543 10.5856481,7.29282407 C10.5856481,7.90239198 10.408179,8.46566358 10.1207562,8.95563272 L11.7507716,10.5856481 C12.0690586,10.9077932 12.0690586,11.4324846 11.7488426,11.7507716 C11.4286265,12.0709877 10.9058642,12.0709877 10.5856481,11.7507716 L8.95563272,10.1207562 C8.46566358,10.410108 7.90239198,10.5856481 7.29282407,10.5856481 C5.47376543,10.5856481 4,9.11188272 4,7.29282407 C4,5.47376543 5.47376543,4 7.29282407,4 Z M7.29282407,5.64930556 C6.3840685,5.64930556 5.64737654,6.38599751 5.64737654,7.29475309 C5.64737654,8.20350866 6.3840685,8.94020062 7.29282407,8.94020062 C8.20157965,8.94020062 8.9382716,8.20350866 8.9382716,7.29475309 C8.9382716,6.38599751 8.20157965,5.64930556 7.29282407,5.64930556 Z" id="形状结合" fill="#FFFFFF"></path>
            </g>
        </g>
    </g>
</svg>