<?xml version="1.0" encoding="UTF-8"?>
<svg width="16px" height="15px" viewBox="0 0 16 15" version="1.1" xmlns="http://www.w3.org/2000/svg" xmlns:xlink="http://www.w3.org/1999/xlink">
    <!-- Generator: Sketch 61.2 (89653) - https://sketch.com -->
    <title>路径备份@2x</title>
    <desc>Created with Sketch.</desc>
    <g id="针线互联应用" stroke="none" stroke-width="1" fill="none" fill-rule="evenodd">
        <g id="订单管理_录入" transform="translate(-100.000000, -465.000000)" fill-rule="nonzero">
            <g id="编组-6" transform="translate(100.000000, 465.000000)">
                <path d="M6.79650001,0 C7.49974905,0 8.10862937,0.488456179 8.261,1.17499999 L8.33349999,1.5 L14.5,1.5 C15.3284271,1.5 16,2.17157288 16,3 L16,13.5 C16,14.3284271 15.3284271,15 14.5,15 L1.5,15 C0.671572876,15 0,14.3284271 0,13.5 L0,1.5 C0,0.671572875 0.671572876,0 1.5,0 L6.79650001,0 Z" id="路径备份" fill="#409EFF"></path>
                <path d="M11.7425691,6.63974455 L8,10.7193839 C7.65675885,11.0935387 7.09640734,11.0935387 6.75316619,10.7193839 L4.25743086,8.00112697 C3.91418971,7.6269722 3.91418971,7.01615327 4.25743086,6.6419985 C4.60067201,6.26784373 5.16102352,6.26784373 5.50426467,6.6419985 L7.37554924,8.68181818 L10.4957353,5.28061608 C10.8389765,4.90646131 11.399328,4.90646131 11.7425691,5.28061608 C12.0858103,5.65477085 12.0858103,6.26558978 11.7425691,6.63974455 Z" id="路径" fill="#FFFFFF"></path>
            </g>
        </g>
    </g>
</svg>