<?xml version="1.0" encoding="UTF-8"?>
<svg width="16px" height="15px" viewBox="0 0 16 15" version="1.1" xmlns="http://www.w3.org/2000/svg" xmlns:xlink="http://www.w3.org/1999/xlink">
    <!-- Generator: Sketch 61.2 (89653) - https://sketch.com -->
    <title>路径@2x</title>
    <desc>Created with Sketch.</desc>
    <g id="针线互联应用" stroke="none" stroke-width="1" fill="none" fill-rule="evenodd">
        <g id="订单管理_录入" transform="translate(-100.000000, -377.000000)" fill-rule="nonzero">
            <g id="编组-7" transform="translate(100.000000, 377.000000)">
                <path d="M6.79650001,0 C7.49974905,0 8.10862937,0.488456179 8.261,1.17499999 L8.33349999,1.5 L14.5,1.5 C15.3284271,1.5 16,2.17157288 16,3 L16,13.5 C16,14.3284271 15.3284271,15 14.5,15 L1.5,15 C0.671572876,15 0,14.3284271 0,13.5 L0,1.5 C0,0.671572875 0.671572876,0 1.5,0 L6.79650001,0 Z" id="路径" fill="#409EFF"></path>
                <path d="M7.16136297,4.09542559 C7.59869102,4.09542559 7.95263025,4.44933411 7.95263025,4.8866242 C7.95263025,5.3239143 7.59869102,5.67782281 7.16136297,5.67782281 C6.29226611,5.67782281 5.58068148,6.38934569 5.58068148,7.25836711 L5.58068148,8.83891141 C5.58068148,9.70793283 6.29226611,10.4194557 7.16136297,10.4194557 L8.74204445,10.4194557 C9.61114131,10.4194557 10.3227259,9.70793283 10.3227259,8.83891141 C10.3227259,8.40162131 10.6766652,8.0477128 11.1139932,8.0477128 C11.5513213,8.0477128 11.9052605,8.40162131 11.9052605,8.83891141 L11.9052605,10.4194557 C11.9052605,11.2884771 11.1936759,12 10.324579,12 L5.58068148,12 C4.71158463,12 4,11.2884771 4,10.4194557 L4,5.67596989 C4,4.80694847 4.71158463,4.09542559 5.58068148,4.09542559 L7.16136297,4.09542559 Z M11.7699853,4.23068906 C12.0775974,4.53827446 12.0757443,5.04041691 11.7699853,5.34800232 L8.4159015,8.70179502 C8.10828939,9.00938043 7.60610336,9.00938043 7.29849126,8.70179502 C6.99087915,8.39420961 6.99087915,7.89206717 7.29849126,7.58448176 L10.6525751,4.23068906 C10.9601872,3.92310365 11.4623732,3.92310365 11.7699853,4.23068906 Z" id="形状结合" fill="#FFFFFF"></path>
            </g>
        </g>
    </g>
</svg>