<?xml version="1.0" encoding="UTF-8"?>
<svg width="8px" height="14px" viewBox="0 0 8 14" version="1.1" xmlns="http://www.w3.org/2000/svg" xmlns:xlink="http://www.w3.org/1999/xlink">
    <!-- Generator: Sketch 61.2 (89653) - https://sketch.com -->
    <title>形状结合@2x</title>
    <desc>Created with Sketch.</desc>
    <g id="针线互联用户端" stroke="none" stroke-width="1" fill="none" fill-rule="evenodd">
        <g id="客户订单汇总管理_详情" transform="translate(-118.000000, -45.000000)" fill="#C0C6D7" fill-rule="nonzero">
            <g id="编组-4备份" transform="translate(122.000000, 52.000000) scale(-1, 1) translate(-122.000000, -52.000000) translate(118.000000, 45.000000)">
                <path d="M6.94132955,-2.20623519e-12 C7.13363724,-2.20623519e-12 7.32594493,0.0769230769 7.47979108,0.223076923 C7.77979108,0.523076923 7.77979108,1 7.48748339,1.3 L1.841,7.002 L7.54902185,12.6538462 C7.84902185,12.9538462 7.84902185,13.4307692 7.55671416,13.7307692 C7.26440647,14.0307692 6.77979108,14.0307692 6.47979108,13.7384615 L0.281054327,7.60292751 C0.26210068,7.5876089 0.243705548,7.57124863 0.22594493,7.55384615 C-0.0722885776,7.25804865 -0.0757249918,6.77695066 0.218252622,6.47692308 L6.40286801,0.230769231 C6.54902185,0.0769230768 6.74902185,-2.20623519e-12 6.94132955,-2.20623519e-12 Z" id="形状结合"></path>
            </g>
        </g>
    </g>
</svg>