<?xml version="1.0" encoding="UTF-8"?>
<svg width="40px" height="40px" viewBox="0 0 40 40" version="1.1" xmlns="http://www.w3.org/2000/svg" xmlns:xlink="http://www.w3.org/1999/xlink">
    <!-- Generator: Sketch 61.2 (89653) - https://sketch.com -->
    <title>椭圆形备份 19@2x</title>
    <desc>Created with Sketch.</desc>
    <g id="针线互联用户端" stroke="none" stroke-width="1" fill="none" fill-rule="evenodd">
        <g id="工作台" transform="translate(-1214.000000, -568.000000)">
            <g id="编组-32" transform="translate(1214.000000, 568.000000)">
                <circle id="椭圆形备份-19" fill="#409EFF" cx="20" cy="20" r="20"></circle>
                <g id="编组" transform="translate(9.000000, 9.000000)" fill="#FFFFFF" fill-rule="nonzero">
                    <path d="M10.8855433,6.46277638 C8.40547633,6.46277638 6.41036746,8.4715201 6.41036746,10.968907 C6.41036746,13.466294 8.40547633,15.4750377 10.8855433,15.4750377 C13.3656104,15.4750377 15.3607192,13.466294 15.3607192,10.968907 C15.3607192,8.4715201 13.3656104,6.46277638 10.8855433,6.46277638 Z M20.572545,9.75651173 L20.1951916,9.75651173 C20.1233323,9.23175462 20.0153591,8.70699749 19.8535835,8.20029731 C18.7395802,4.6353392 15.7200157,2.10146985 12.0717745,1.63125209 L12.0717745,1.21446817 C12.0717745,0.562943872 11.5326455,0.0204983178 10.8855433,0.0204983178 C10.2384412,0.0204983178 9.71736914,0.544886935 9.68162374,1.19641123 L9.68162374,1.64930905 C9.46567734,1.68542294 9.25046796,1.7034799 9.03452156,1.75765075 C5.11653161,2.55399917 2.11502407,5.82967756 1.59395206,9.77493719 L1.19854166,9.77493719 C0.874990578,9.77493719 0.569496433,9.90170435 0.336230102,10.1368132 C0.120283696,10.3719221 -0.00574645493,10.6796273 0.0123105037,10.9873325 C0.0123105037,11.6388568 0.551439475,12.1636139 1.19891018,12.1636139 L1.59395206,12.1636139 C2.13308103,16.4523241 5.49388505,19.8179188 9.71736914,20.3611013 L9.71736914,20.7229774 C9.71736914,21.3745017 10.2564981,21.9169472 10.9036003,21.9169472 C11.5507025,21.9169472 12.0898315,21.3745017 12.0898315,20.7229774 L12.0898315,20.3430444 C12.9344546,20.2343342 13.7610207,19.9992253 14.5518415,19.6734631 C17.6509514,18.3628259 19.8063538,15.4875016 20.1951916,12.1451884 L20.572545,12.1451884 C21.2196472,12.1451884 21.7587762,11.6023744 21.7587762,10.9508501 C21.7587762,10.2993258 21.2377041,9.75651171 20.572545,9.75651173 L20.572545,9.75651173 Z M17.8769001,13.1224749 C16.7625283,16.7416038 13.1500325,18.8951717 9.46567734,18.1533626 C5.76400231,17.3931281 3.26550985,13.9906826 3.64286327,10.2267295 C4.00215975,6.44471942 7.11127198,3.60351339 10.8855433,3.60351339 C11.891942,3.60351339 12.8625953,3.80250837 13.7433323,4.20049832 C17.211741,5.66679648 18.9909035,9.50334588 17.8769001,13.1221064 L17.8769001,13.1224749 Z" id="形状"></path>
                </g>
            </g>
        </g>
    </g>
</svg>