<?xml version="1.0" encoding="UTF-8"?>
<svg width="40px" height="40px" viewBox="0 0 40 40" version="1.1" xmlns="http://www.w3.org/2000/svg" xmlns:xlink="http://www.w3.org/1999/xlink">
    <!-- Generator: Sketch 61.2 (89653) - https://sketch.com -->
    <title>椭圆形备份 5@2x</title>
    <desc>Created with Sketch.</desc>
    <g id="针线互联用户端" stroke="none" stroke-width="1" fill="none" fill-rule="evenodd">
        <g id="工作台" transform="translate(-554.000000, -376.000000)">
            <g id="编组-10" transform="translate(554.000000, 376.000000)">
                <circle id="椭圆形备份-5" fill="#2CD18A" cx="20" cy="20" r="20"></circle>
                <path d="M26.5942224,10 L13.4057776,10 C12.897734,10 12.4103799,10.2074928 12.0540597,10.5740634 C11.6954407,10.940634 11.4977405,11.4386167 11.5000195,11.9550432 L11.5000195,28.0449568 C11.5000195,29.1193084 12.3414147,30 13.4057776,30 L26.5942224,30 C27.102266,30 27.5896201,29.7925072 27.9459403,29.4259366 C28.3045593,29.059366 28.5022595,28.5613833 28.4999805,28.0449568 L28.4999805,11.9389049 C28.4999805,10.8668588 27.6470911,10 26.5942224,10 L26.5942224,10 Z M15.4241591,13.9354467 L23.5988339,13.9354467 C23.9597518,13.9354467 24.2517045,14.2282421 24.2517045,14.5902017 C24.2517045,14.9521614 23.9597518,15.2449568 23.5988339,15.2449568 L15.4241591,15.2449568 C15.0632412,15.2449568 14.7712886,14.9521614 14.7712886,14.5902017 C14.7712886,14.2282421 15.0632412,13.9354467 15.4241591,13.9354467 L15.4241591,13.9354467 Z M15.4241591,17.5412104 L20.3275847,17.5412104 C20.6885026,17.5412104 20.9804552,17.8340058 20.9804552,18.1959654 C20.9804552,18.5579251 20.6885026,18.8507205 20.3275847,18.8507205 L15.4241591,18.8507205 C15.0632412,18.8507205 14.7712752,18.5579251 14.7712752,18.1959654 C14.7689897,17.8340058 15.0632412,17.5412104 15.4241591,17.5412104 Z M17.7115048,22.1314121 L15.4218603,22.1314121 C15.0609424,22.1314121 14.7689897,21.8386167 14.7689897,21.4766571 C14.7689897,21.1146974 15.0609424,20.821902 15.4218603,20.821902 L17.7115048,20.821902 C18.0724227,20.821902 18.3643888,21.1146974 18.3643888,21.4766571 C18.3666742,21.8386167 18.0724227,22.1314121 17.7115048,22.1314121 L17.7115048,22.1314121 Z M24.5229676,26.3942363 L22.4517128,25.4097983 L20.380458,26.3942363 L20.8724098,24.4276657 L19.34598,22.4610951 L21.4172348,22.4610951 L22.4517128,20.4945245 L23.4861908,22.4610951 L25.5574456,22.4610951 L24.028717,24.4276657 L24.5229676,26.3942363 L24.5229676,26.3942363 Z" id="形状" fill="#FFFFFF" fill-rule="nonzero"></path>
            </g>
        </g>
    </g>
</svg>