<?xml version="1.0" encoding="UTF-8"?>
<svg width="40px" height="40px" viewBox="0 0 40 40" version="1.1" xmlns="http://www.w3.org/2000/svg" xmlns:xlink="http://www.w3.org/1999/xlink">
    <!-- Generator: Sketch 61.2 (89653) - https://sketch.com -->
    <title>椭圆形备份 9@2x</title>
    <desc>Created with Sketch.</desc>
    <g id="针线互联用户端" stroke="none" stroke-width="1" fill="none" fill-rule="evenodd">
        <g id="工作台" transform="translate(-114.000000, -856.000000)">
            <g id="编组-5备份-4" transform="translate(114.000000, 856.000000)">
                <circle id="椭圆形备份-9" fill="#409EFF" cx="20" cy="20" r="20"></circle>
                <g id="编组" transform="translate(12.000000, 10.000000)" fill="#FFFFFF" fill-rule="nonzero">
                    <path d="M13.4927329,11.0292033 C11.0302259,11.0292033 9.03406713,13.0253621 9.03406713,15.4878691 C9.03406713,17.950376 11.0302259,19.9465348 13.4927329,19.9465348 C15.9552398,19.9465348 17.9513986,17.950376 17.9513986,15.4878691 L13.4927329,15.4878691 L13.4927329,11.0292033 Z" id="路径"></path>
                    <path d="M14.3845516,11.9208081 L14.3845516,14.5960503 L17.0597938,14.5960503 C17.0597938,13.1185675 15.8620344,11.9208081 14.3845516,11.9208081 Z M13.3857232,0.00709830941 L1.79304247,0.00709830941 C0.808018276,0.00709830941 0.0095119724,0.805604613 0.0095119724,1.7906288 L0.0095119724,17.8420822 C0.0095119724,18.8271064 0.808018276,19.6255057 1.79304247,19.6255057 L10.4340749,19.6255057 C7.97167493,17.9921098 7.29954707,14.6717062 8.93304998,12.2091992 C9.92315448,10.7165243 11.5945277,9.81833696 13.3857232,9.81635552 C13.993601,9.81837412 14.5966963,9.92389589 15.1691466,10.1283958 L15.1691466,1.7906288 C15.1691466,0.805604613 14.3707474,0.00709830941 13.3857232,0.00709830941 Z M10.0058221,9.27456546 C10.4799821,9.27456546 10.7383034,9.46482869 10.7383034,9.84567617 C10.7383034,10.2262026 10.4799821,10.4640852 10.0058221,10.4640852 L8.19596724,10.4640852 L8.19596724,10.6068361 C8.19596724,11.4158293 7.98034272,11.7959278 7.50650381,11.7959278 C7.03245089,11.7959278 6.81704038,11.4157223 6.81704038,10.6068361 L6.81704038,10.4640852 L5.0071855,10.4640852 C4.53313258,10.4640852 4.27459717,10.1782623 4.27459717,9.84567617 C4.27459717,9.41731639 4.53313258,9.22716017 5.0071855,9.22716017 L6.81714739,9.22716017 L6.81714739,8.275523 L5.0071855,8.275523 C4.53313258,8.275523 4.27459717,7.94261586 4.27459717,7.56176837 C4.27459717,7.1810279 4.53313258,7.038598 5.0071855,7.038598 L6.30007657,7.038598 C6.30007657,7.038598 5.65363104,5.89659059 5.30895283,5.27807459 C5.00729251,4.56431996 6.04143415,3.99342326 6.38611236,4.56431996 C6.77402249,5.23056228 7.50661082,6.56272591 7.50661082,6.56272591 C7.50661082,6.56272591 8.32544897,5.13543067 8.71314507,4.42167604 C9.05782328,3.75543371 10.1782147,4.51702167 9.7901976,5.27796758 L8.71314507,7.08578927 L10.0059291,7.08578927 C10.4800891,7.08578927 10.7384105,7.27615951 10.7384105,7.60938768 C10.7384105,7.98991414 10.4800891,8.32314231 10.0059291,8.32314231 L8.19607425,8.32314231 L8.19607425,9.27435144 L10.0058221,9.27435144 L10.0058221,9.27456546 L10.0058221,9.27456546 Z" id="形状"></path>
                </g>
            </g>
        </g>
    </g>
</svg>