<?xml version="1.0" encoding="UTF-8"?>
<svg width="40px" height="40px" viewBox="0 0 40 40" version="1.1" xmlns="http://www.w3.org/2000/svg" xmlns:xlink="http://www.w3.org/1999/xlink">
    <!-- Generator: Sketch 61.2 (89653) - https://sketch.com -->
    <title>椭圆形备份 24@2x</title>
    <desc>Created with Sketch.</desc>
    <g id="针线互联用户端" stroke="none" stroke-width="1" fill="none" fill-rule="evenodd">
        <g id="工作台" transform="translate(-1214.000000, -664.000000)">
            <g id="编组-33" transform="translate(1214.000000, 664.000000)">
                <circle id="椭圆形备份-24" fill="#7E3BF3" cx="20" cy="20" r="20"></circle>
                <g id="编组" transform="translate(10.000000, 11.000000)" fill="#FFFFFF" fill-rule="nonzero">
                    <path d="M17.9769922,0.00751953125 L1.94488281,0.00751953125 C1.31681641,0.00751953125 0.758808594,0.334804688 0.406113281,0.841542969 L3.38185547,4.95646484 L8.46277344,4.95646484 L8.46277344,3.30080078 C8.41402121,3.14730542 8.38925692,2.98720388 8.38935547,2.82615234 C8.38935547,1.95958984 9.09435547,1.25455078 9.9609375,1.25455078 C10.8274805,1.25455078 11.5325195,1.95958984 11.5325195,2.82615234 C11.5326792,3.00935403 11.5006561,3.19115968 11.4379102,3.36328125 L11.4379102,4.95646484 L16.8117188,4.95646484 L19.5167969,0.843007813 C19.164082,0.335429688 18.6056836,0.00751953125 17.9769922,0.00751953125 Z" id="路径"></path>
                    <path d="M9.9609375,4.39773437 C9.56054688,4.39773437 9.19480469,4.24699219 8.91701172,3.99955078 L8.91701172,4.95644531 L10.9836914,4.95644531 L10.9836914,4.01791016 C10.7086133,4.25435547 10.35125,4.39773437 9.9609375,4.39773437 Z M10.624082,2.82615234 C10.624082,2.46048828 10.3266211,2.16298828 9.9609375,2.16298828 C9.59529297,2.16298828 9.29779297,2.46048828 9.29779297,2.82615234 C9.29779297,3.19183594 9.59529297,3.48931641 9.9609375,3.48931641 C10.3266211,3.48931641 10.624082,3.19179687 10.624082,2.82615234 Z M10.9836914,5.86486328 L8.91701172,5.86486328 L8.91701172,7.35314453 C9.19480469,7.10572266 9.56054688,6.95496094 9.9609375,6.95496094 C10.3513281,6.95496094 10.7086133,7.09833984 10.9836914,7.33476562 L10.9836914,5.86486328 Z M9.29777344,8.52658203 C9.29777344,8.89228516 9.59525391,9.18972656 9.96089844,9.18972656 C10.3266211,9.18972656 10.624082,8.89228516 10.624082,8.52658203 C10.624082,8.16091797 10.3266211,7.86341797 9.96089844,7.86341797 C9.59525391,7.86339844 9.29777344,8.16091797 9.29777344,8.52658203 Z" id="形状"></path>
                    <path d="M2.52419922,13.9057617 C2.6087081,13.7809345 2.74962762,13.7061505 2.90037109,13.7061328 L16.7993555,13.7061328 C16.9429492,13.7061328 17.0780664,13.7740039 17.1637305,13.8891211 L19.6469922,17.2251953 C19.813125,16.9139844 19.9083008,16.552207 19.9083008,16.1661133 L19.9083008,2.23236328 C19.9083008,2.1596875 19.9049414,2.08791016 19.8983398,2.01710937 L17.4289258,5.66525391 C17.3444483,5.79009608 17.2035312,5.86488652 17.052793,5.86488281 L11.4379102,5.86488281 L11.4379102,7.98945312 C11.5006577,8.16157427 11.5326808,8.3433802 11.5325195,8.52658203 C11.5325195,9.39318359 10.8274805,10.0982031 9.9609375,10.0982031 C9.09435547,10.0982031 8.38935547,9.39318359 8.38935547,8.52658203 C8.38927083,8.36552517 8.41403476,8.20541931 8.46277344,8.05191406 L8.46277344,5.86488281 L3.15371094,5.86488281 C3.01017581,5.86487786 2.87509092,5.79702039 2.78939453,5.681875 L0.028203125,1.97242187 C0.01859375,2.05757812 0.0135742188,2.14427734 0.0135742188,2.23232422 L0.0135742188,16.1660742 C0.0135742188,16.5530078 0.109199219,16.9154688 0.2759375,17.2271289 L2.52419922,13.9057617 Z" id="路径"></path>
                    <path d="M16.5712305,14.6145703 L3.14138672,14.6145703 L0.8940625,17.9345703 C1.19648437,18.1490234 1.55732422,18.2737305 1.94488281,18.2737305 L17.9769922,18.2737305 C18.3686523,18.2737305 18.7330273,18.1463281 19.0374414,17.9276562 L16.5712305,14.6145703 Z" id="路径"></path>
                </g>
            </g>
        </g>
    </g>
</svg>