<?xml version="1.0" encoding="UTF-8"?>
<svg width="40px" height="40px" viewBox="0 0 40 40" version="1.1" xmlns="http://www.w3.org/2000/svg" xmlns:xlink="http://www.w3.org/1999/xlink">
    <!-- Generator: Sketch 61.2 (89653) - https://sketch.com -->
    <title>椭圆形备份 13@2x</title>
    <desc>Created with Sketch.</desc>
    <g id="针线互联用户端" stroke="none" stroke-width="1" fill="none" fill-rule="evenodd">
        <g id="工作台" transform="translate(-554.000000, -472.000000)">
            <g id="编组-18" transform="translate(554.000000, 472.000000)">
                <circle id="椭圆形备份-13" fill="#3370FF" cx="20" cy="20" r="20"></circle>
                <g id="编组" transform="translate(10.000000, 10.000000)" fill="#FFFFFF" fill-rule="nonzero">
                    <path d="M0.305187688,16.127108 C-0.12296562,15.5562369 -0.12296562,14.5572125 0.447905444,14.1290592 C1.58964761,12.9873171 3.73041415,11.2747038 5.01487409,11.2747038 C7.01292287,11.2747038 13.8633758,11.2747038 14.2915292,11.8455749 C14.7196825,12.2737282 14.2915292,13.8436237 12.4361981,13.9863415 C11.0090204,14.1290592 9.29640718,14.1290592 8.44010057,14.1290592 C8.29738279,14.1290592 8.15466503,14.4144948 8.44010057,14.5572125 C9.01097165,14.9853659 10.4381493,15.6989547 12.1507626,15.6989547 C13.5779403,15.6989547 15.005118,14.8426481 16.0041424,13.7009059 C16.860449,12.7018815 18.2876267,11.4174216 18.8584978,11.4174216 C19.2866511,11.4174216 19.5720866,11.5601394 19.7148044,11.5601394 C20.0002399,11.5601394 20.0002399,11.8455749 20.0002399,11.9882927 C19.2866511,13.1300348 16.5750135,17.2688502 13.5779403,18.4105923 C11.0090204,19.2668989 8.29738281,18.9814634 6.87020509,18.8387456 C6.29933401,18.6960279 5.72846293,18.8387456 5.30030964,19.2668989 L4.72943856,19.6950523 C4.30128525,20.1232056 3.73041417,19.9804878 3.30226086,19.5523345 L0.305187688,16.127108 Z M15.5769647,0 L4.4430274,0 C3.87215631,0 3.30128525,0.570871083 3.30128525,1.28445992 L3.30128525,9.27665504 C3.30128525,9.9902439 3.87215633,10.561115 4.4430274,10.561115 L15.5769647,10.561115 C16.1478358,10.561115 16.7187068,9.9902439 16.7187068,9.27665504 L16.7187068,1.28445992 C16.7187068,0.570871063 16.1478358,0 15.5769647,0 Z M13.5779403,8.5630662 L12.1507626,8.5630662 C11.7226093,8.5630662 11.4371737,8.27763067 11.4371737,7.84947735 C11.4371737,7.42132402 11.7226093,7.13588851 12.1507626,7.13588851 L13.5779403,7.13588851 C14.0060936,7.13588851 14.2915292,7.42132404 14.2915292,7.84947735 C14.2915292,8.27763065 14.0060936,8.5630662 13.5779403,8.5630662 Z M14.0060936,6.27958187 L6.01389848,6.27958187 C5.72846295,6.27958187 5.4430274,5.99414634 5.4430274,5.70871081 C5.4430274,5.42327528 5.72846293,5.13783973 6.01389848,5.13783973 L14.0060936,5.13783973 C14.2915291,5.13783973 14.5769647,5.42327526 14.5769647,5.70871081 C14.5769647,5.99414636 14.2915292,6.27958187 14.0060936,6.27958187 Z M6.01389848,3.71066203 C5.72846295,3.71066203 5.4430274,3.56794425 5.4430274,3.13979095 C5.4430274,2.85435541 5.72846293,2.56891986 6.01389848,2.56891986 L14.0060936,2.56891986 C14.2915291,2.56891986 14.5769647,2.8543554 14.5769647,3.13979095 C14.5769647,3.56794425 14.2915292,3.71066203 14.0060936,3.71066203 L6.01389848,3.71066203 Z" id="形状"></path>
                </g>
            </g>
        </g>
    </g>
</svg>