<?xml version="1.0" encoding="UTF-8"?>
<svg width="40px" height="40px" viewBox="0 0 40 40" version="1.1" xmlns="http://www.w3.org/2000/svg" xmlns:xlink="http://www.w3.org/1999/xlink">
    <!-- Generator: Sketch 61.2 (89653) - https://sketch.com -->
    <title>编组 5备份@2x</title>
    <desc>Created with Sketch.</desc>
    <g id="针线互联用户端" stroke="none" stroke-width="1" fill="none" fill-rule="evenodd">
        <g id="工作台" transform="translate(-114.000000, -568.000000)">
            <g id="编组-21" transform="translate(114.000000, 568.000000)">
                <g id="编组-5备份" fill="#409EFF">
                    <circle id="椭圆形备份-9" cx="20" cy="20" r="20"></circle>
                </g>
                <g id="编组" transform="translate(10.000000, 10.000000)" fill="#FFFFFF" fill-rule="nonzero">
                    <path d="M17.2335569,19.9781948 L13.2578981,19.9781948 C12.160151,19.9781948 11.270103,19.0881468 11.270103,17.9903768 L11.270103,14.0147409 C11.270103,12.916948 12.1601738,12.0269229 13.2578981,12.0269229 L17.2335569,12.0269229 C18.3313726,12.0269229 19.2213749,12.9169708 19.2213749,14.0147409 L19.2213749,17.9903768 C19.2213749,19.0881468 18.3313498,19.9781948 17.2335569,19.9781948 Z M16.736591,14.0147409 L13.7548641,14.0147409 C13.480216,14.0147409 13.2578981,14.2369902 13.2578981,14.5116839 C13.2578981,14.7863777 13.4801931,15.0086498 13.7548641,15.0086498 L16.736591,15.0086498 C17.0113076,15.0086498 17.2335569,14.7864005 17.2335569,14.5116839 C17.2335569,14.2369902 17.0113076,14.0147409 16.736591,14.0147409 Z M16.736591,16.9964678 L13.7548641,16.9964678 C13.480216,16.9964678 13.2578981,17.2187171 13.2578981,17.4934337 C13.2578981,17.7681046 13.4801931,17.9903768 13.7548641,17.9903768 L16.736591,17.9903768 C17.0113076,17.9903768 17.2335569,17.7681275 17.2335569,17.4934337 C17.2335569,17.2187171 17.0113076,16.9964678 16.736591,16.9964678 Z M10.8081077,10.2987232 C10.6964348,10.6369852 10.6576269,10.9097146 10.6556853,11.1397301 C9.86077283,11.3993712 9.28226221,12.1385272 9.28226221,13.020809 L9.28226221,19.8510124 C9.02120491,19.8558777 8.75911975,19.8578193 8.49897614,19.8578193 C4.4243673,19.8578193 0.0196736607,19.3405014 0.0196736607,17.0682592 L0.0196736607,16.4422379 C0.0196736607,14.7752081 3.02572699,13.0873011 5.58814967,12.1589248 C5.77156817,12.0909481 6.65675087,11.6095145 6.1617265,10.313753 C4.89218723,9.01413127 3.93516752,6.91514297 3.93516754,4.85016587 C3.93516754,1.68063482 6.02778304,0.021828058 8.47668268,0.021828058 C10.9216079,0.021828058 13.025964,1.68063482 13.025964,4.85016587 C13.025964,6.90833614 12.0611324,8.99907862 10.801278,10.298746 L10.8081077,10.298746 L10.8081077,10.2987232 Z" id="形状"></path>
                </g>
            </g>
        </g>
    </g>
</svg>