<?xml version="1.0" encoding="UTF-8"?>
<svg width="20px" height="20px" viewBox="0 0 20 20" version="1.1" xmlns="http://www.w3.org/2000/svg" xmlns:xlink="http://www.w3.org/1999/xlink">
    <!-- Generator: Sketch 61.2 (89653) - https://sketch.com -->
    <title>形状结合@2x</title>
    <desc>Created with Sketch.</desc>
    <g id="针线互联用户端" stroke="none" stroke-width="1" fill="none" fill-rule="evenodd">
        <g id="工作台" transform="translate(-20.000000, -140.000000)" fill="#909399" fill-rule="nonzero">
            <g id="编组" transform="translate(20.000000, 140.000000)">
                <path d="M10.0002235,-1.0658141e-14 C15.5142736,-1.0658141e-14 20,4.48572642 20,9.99977645 C20,15.5138265 15.5142736,20 10.0002235,20 C8.42465294,20 6.86137751,19.6246619 5.46464579,18.9131067 L0.638454832,18.9131067 L0.638454832,13.5153019 C0.214606666,12.3886169 1.04805054e-13,11.2069389 1.04805054e-13,9.99977645 C1.04805054e-13,4.48572642 4.48617352,-1.0658141e-14 10.0002235,-1.0658141e-14 Z M6.99550667,6.99550667 C6.44239472,6.99550667 5.9940089,7.4438925 5.9940089,7.99700445 L5.9940089,7.99700445 L5.9940089,12.0029956 C5.9940089,12.5561075 6.44239472,13.0044933 6.99550667,13.0044933 C7.54861862,13.0044933 7.99700445,12.5561075 7.99700445,12.0029956 L7.99700445,12.0029956 L7.99700445,7.99700445 C7.99700445,7.4438925 7.54861862,6.99550667 6.99550667,6.99550667 Z M13.0044933,6.99550667 C12.4513814,6.99550667 12.0029956,7.4438925 12.0029956,7.99700445 L12.0029956,7.99700445 L12.0029956,12.0029956 C12.0029956,12.5561075 12.4513814,13.0044933 13.0044933,13.0044933 C13.5576053,13.0044933 14.0059911,12.5561075 14.0059911,12.0029956 L14.0059911,12.0029956 L14.0059911,7.99700445 C14.0059911,7.4438925 13.5576053,6.99550667 13.0044933,6.99550667 Z" id="形状结合"></path>
            </g>
        </g>
    </g>
</svg>