<?xml version="1.0" encoding="UTF-8"?>
<svg width="40px" height="40px" viewBox="0 0 40 40" version="1.1" xmlns="http://www.w3.org/2000/svg" xmlns:xlink="http://www.w3.org/1999/xlink">
    <!-- Generator: Sketch 61.2 (89653) - https://sketch.com -->
    <title>椭圆形备份 17@2x</title>
    <desc>Created with Sketch.</desc>
    <g id="针线互联用户端" stroke="none" stroke-width="1" fill="none" fill-rule="evenodd">
        <g id="工作台" transform="translate(-334.000000, -568.000000)">
            <g id="编组-26" transform="translate(334.000000, 568.000000)">
                <circle id="椭圆形备份-17" fill="#FF8802" cx="20" cy="20" r="20"></circle>
                <g id="编组" transform="translate(11.000000, 10.000000)" fill="#FFFFFF" fill-rule="nonzero">
                    <path d="M15,10.033457 C14.7981027,10.0114989 14.5951774,10.0003307 14.3920898,10 C11.2817383,10 8.76390625,12.5195703 8.76953125,15.6287695 C8.76953125,17.3945508 9.58226562,18.9696289 10.8541797,20 L1.25,20 C0.559648437,20 0,19.4403516 0,18.75 L0,1.25 C0,0.559648438 0.559648437,0 1.25,0 L13.75,0 C14.4403516,0 15,0.559648438 15,1.25 L15,10.033457 Z M3.5546875,2.5390625 C3.03691406,2.5390625 2.6171875,2.95878906 2.6171875,3.4765625 C2.6171875,3.99433594 3.03691406,4.4140625 3.5546875,4.4140625 L7.9296875,4.4140625 C8.44746094,4.4140625 8.8671875,3.99433594 8.8671875,3.4765625 C8.8671875,2.95878906 8.44746094,2.5390625 7.9296875,2.5390625 L3.5546875,2.5390625 Z M3.5546875,7.5 C3.03691406,7.5 2.6171875,7.91972656 2.6171875,8.4375 C2.6171875,8.95527344 3.03691406,9.375 3.5546875,9.375 L11.6796875,9.375 C12.1974609,9.375 12.6171875,8.95527344 12.6171875,8.4375 C12.6171875,7.91972656 12.1974609,7.5 11.6796875,7.5 L3.5546875,7.5 Z M3.5546875,12.4804688 C3.03691406,12.4804688 2.6171875,12.9001953 2.6171875,13.4179688 C2.6171875,13.9357422 3.03691406,14.3554688 3.5546875,14.3554688 L5.4296875,14.3554688 C5.94746094,14.3554688 6.3671875,13.9357422 6.3671875,13.4179688 C6.3671875,12.9001953 5.94746094,12.4804688 5.4296875,12.4804688 L3.5546875,12.4804688 Z M14.6675391,14.9945703 C13.6327734,14.9945703 12.7928906,14.1546875 12.7928906,13.1199219 C12.7928906,12.0851562 13.6327734,11.2452734 14.6675391,11.2452734 C15.7023047,11.2452734 16.5421875,12.0851562 16.5421875,13.1199219 C16.5421875,14.1546875 15.7023047,14.9945703 14.6675391,14.9945703 Z M12.5386133,18.7600781 C11.5038477,18.7600781 10.6639648,17.9201953 10.6639648,16.8854297 C10.6639648,15.8506641 11.5038477,15.0107813 12.5386133,15.0107813 C13.5733789,15.0107813 14.4132617,15.8506445 14.4132617,16.8854297 C14.4132617,17.9225195 13.5757031,18.7600781 12.5386133,18.7600781 Z M16.8901758,18.7600781 C15.8554102,18.7600781 15.0155469,17.9201953 15.0155469,16.8854297 C15.0155469,15.8506641 15.8554297,15.0107813 16.8901953,15.0107813 C17.9249609,15.0107813 18.7648437,15.8506445 18.7648437,16.8854297 C18.7625195,17.9225195 17.9249609,18.7600781 16.8901953,18.7600781 L16.8901758,18.7600781 Z" id="形状"></path>
                </g>
            </g>
        </g>
    </g>
</svg>