<?xml version="1.0" encoding="UTF-8"?>
<svg width="16px" height="16px" viewBox="0 0 16 16" version="1.1" xmlns="http://www.w3.org/2000/svg" xmlns:xlink="http://www.w3.org/1999/xlink">
    <!-- Generator: Sketch 61.2 (89653) - https://sketch.com -->
    <title>形状@2x</title>
    <desc>Created with Sketch.</desc>
    <g id="针线互联用户端" stroke="none" stroke-width="1" fill="none" fill-rule="evenodd">
        <g id="联系人_新的联系人" transform="translate(-77.000000, -248.000000)" fill="#409EFF" fill-rule="nonzero">
            <g id="编组" transform="translate(77.000000, 248.000000)">
                <path d="M10.322086,9.65941176 L10.7920807,10.2062353 L10.7924937,11.2941177 L9.13099232,11.2941177 L9.13099232,14.1764706 L10.7924937,14.1764706 L10.7896027,15 L2.73898219,15 C2.25515885,15 1.81560351,14.7191881 1.61340516,14.2809572 C1.41120681,13.8427263 1.48335913,13.3272395 1.79816685,12.9609412 L4.63630691,9.65941176 C5.48849229,10.1909701 6.47376834,10.4721245 7.47898997,10.4705882 C8.48435194,10.472202 9.46978168,10.1910446 10.322086,9.65941176 L10.322086,9.65941176 Z M12.8479976,10.4705882 L12.8479976,12.117647 L14.5,12.117647 L14.5,13.3529412 L12.8479976,13.3529412 L12.8479976,15 L11.6089959,15 L11.6089959,13.3529412 L9.9569935,13.3529412 L9.9569935,12.117647 L11.6089959,12.117647 L11.6089959,10.4705882 L12.8479976,10.4705882 Z M7.47898997,1 C9.75999222,1 11.6089959,2.84347058 11.6089959,5.11764707 C11.6089959,7.39182356 9.75999222,9.23529412 7.47898997,9.23529412 C5.19798771,9.23529412 3.34898407,7.39182354 3.34898407,5.11764707 C3.34898407,2.8434706 5.19798771,1 7.47898997,1 L7.47898997,1 Z" id="形状"></path>
            </g>
        </g>
    </g>
</svg>