<?xml version="1.0" encoding="UTF-8"?>
<svg width="23px" height="23px" viewBox="0 0 23 23" version="1.1" xmlns="http://www.w3.org/2000/svg" xmlns:xlink="http://www.w3.org/1999/xlink">
    <!-- Generator: Sketch 61.2 (89653) - https://sketch.com -->
    <title>形状@2x</title>
    <desc>Created with Sketch.</desc>
    <g id="针线互联用户端" stroke="none" stroke-width="1" fill="none" fill-rule="evenodd">
        <g id="联系人_员工个人档案" transform="translate(-268.000000, -178.000000)" fill="#C0C4CC" fill-rule="nonzero">
            <g id="编组" transform="translate(268.000000, 178.000000)">
                <path d="M19.9734888,2.82497496 L15.9768371,2.82497496 C15.5639848,1.25882886 14.0213402,0.269061976 12.4256321,0.546507841 C10.8299239,0.823953705 9.71189521,2.27633203 9.85190308,3.8899176 C9.99191095,5.50350317 11.3433879,6.741607 12.9630355,6.74006232 C14.3811143,6.72637494 15.615019,5.76630018 15.9768371,4.39508811 L19.9734888,4.39508811 C20.4034516,4.40995981 20.747935,4.75622811 20.7605845,5.18626202 L20.7605845,12.2048718 C20.7375741,12.6269341 20.3959404,12.9614873 19.9734888,12.9756546 L12.5674485,12.9756546 C12.1304952,12.9756546 11.7762746,13.3298752 11.7762746,13.7668285 C11.7762746,14.2037818 12.1304952,14.5580024 12.5674485,14.5580024 L19.9734888,14.5580024 C20.594644,14.5569489 21.1896346,14.3077731 21.6261696,13.8658771 C22.0627047,13.4239811 22.3045999,12.8259936 22.2980719,12.2048718 L22.2980719,5.14955809 C22.2958271,3.86665725 21.2563896,2.82721976 19.9734888,2.82497496 L19.9734888,2.82497496 Z M12.9630355,5.14956351 C12.3375124,5.15120855 11.7726641,4.77567274 11.5321423,4.19823781 C11.2916205,3.62080288 11.4228507,2.9553261 11.8645792,2.51242904 C12.3063076,2.06953199 12.9714354,1.93654407 13.5495038,2.17553945 C14.1275721,2.41453483 14.5046011,2.97838896 14.5046011,3.60391421 C14.5001643,4.45411729 13.8132239,5.14287507 12.9630355,5.14956351 L12.9630355,5.14956351 Z M19.1578456,16.0302384 C17.802799,16.0370418 16.6096993,16.9244304 16.2133736,18.2202404 L8.29347813,18.2202404 C7.87046633,18.2206959 7.52192824,17.888327 7.50230422,17.4657704 C9.03685992,17.089512 10.0437886,15.6204169 9.84112862,14.0534579 C9.63846858,12.4864989 8.29091756,11.3219165 6.71113031,11.3484464 C5.60595614,11.3596955 4.58627227,11.9452413 4.01950774,12.8940903 L2.84498154,12.8940903 C2.40846725,12.8945325 2.04898127,12.5512234 2.02933834,12.115151 L2.02933834,5.14955809 C2.04257075,4.70867465 2.40389962,4.35818565 2.84498154,4.35838418 L7.89789117,4.35838418 C8.19336315,4.37963893 8.47595393,4.23405134 8.63016964,3.98112256 C8.78438535,3.72819379 8.78438535,3.41030498 8.63016964,3.1573762 C8.47595393,2.90444742 8.19336315,2.75885983 7.89789117,2.78011458 L2.84498154,2.78011458 C2.22385308,2.77576233 1.62672734,3.01974078 1.18636514,3.45780543 C0.746002944,3.89587008 0.498904266,4.49171141 0.500003653,5.11285413 L0.500003653,12.115151 C0.498904266,12.7362938 0.746002944,13.3321351 1.18636514,13.7701997 C1.62672734,14.2082644 2.22385308,14.4522428 2.84498154,14.4478906 L3.62392079,14.4478906 C3.63428305,15.8640017 4.58884952,17.0989304 5.95666036,17.4657704 C5.97010668,18.744819 7.01437696,19.7726872 8.29347813,19.7658843 L16.1236529,19.7658843 C16.4467165,21.3833463 17.9715921,22.4709463 19.6060957,22.2496966 C21.2405994,22.0284469 22.4214587,20.5745932 22.3028896,18.9294504 C22.1843205,17.2843076 20.8071835,16.0148144 19.1578456,16.0302384 Z M5.16956467,14.4845945 C5.16998086,13.9226066 5.46996429,13.4034643 5.95666036,13.1224704 C6.43124197,12.8330937 7.02772261,12.8330937 7.50230422,13.1224704 C7.98635147,13.4066475 8.28646498,13.9233378 8.29347813,14.4845945 C8.29677012,14.8955251 8.1349833,15.2905813 7.84440217,15.5811624 C7.55382103,15.8717436 7.15876486,16.0335304 6.74783427,16.0302384 C6.3335709,16.0345875 5.93454937,15.8741813 5.63856145,15.584312 C5.34257354,15.2944427 5.17386859,14.8988584 5.16956467,14.4845945 L5.16956467,14.4845945 Z M19.1578456,20.6997957 C18.3085245,20.6907836 17.6256072,19.9981357 17.6286014,19.1487722 C17.6316153,18.2994086 18.3194152,17.6116088 19.1687787,17.6085948 C20.0181423,17.6056006 20.7107902,18.2885179 20.7198023,19.137839 C20.732356,19.5558178 20.5718278,19.9604434 20.2761389,20.2561323 C19.9804499,20.5518212 19.5758244,20.7123494 19.1578456,20.6997957 L19.1578456,20.6997957 Z" id="形状"></path>
            </g>
        </g>
    </g>
</svg>