<?xml version="1.0" encoding="UTF-8"?>
<svg width="40px" height="40px" viewBox="0 0 40 40" version="1.1" xmlns="http://www.w3.org/2000/svg" xmlns:xlink="http://www.w3.org/1999/xlink">
    <!-- Generator: Sketch 61.2 (89653) - https://sketch.com -->
    <title>椭圆形备份 10@2x</title>
    <desc>Created with Sketch.</desc>
    <g id="针线互联用户端" stroke="none" stroke-width="1" fill="none" fill-rule="evenodd">
        <g id="工作台" transform="translate(-114.000000, -472.000000)">
            <g id="编组-14备份" transform="translate(114.000000, 472.000000)">
                <circle id="椭圆形备份-10" fill="#7E3BF3" cx="20" cy="20" r="20"></circle>
                <path d="M15.8618797,10.2202175 L15.8618797,12.6511568 L24.370167,12.6511568 L24.370167,10.2202175 L28.0080675,10.2202175 C28.6838686,10.2202175 29.2320454,10.7659634 29.2320454,11.4441954 C28.8674045,11.5317093 29.4909404,12.3861844 29.2320454,12.6450794 L18.326852,23.1370131 C18.2952498,23.1965711 18.2794487,23.2160186 18.2733714,23.2415435 L17.1028741,27.5333667 C17.0347719,27.7864296 17.1060224,28.056626 17.2900565,28.243201 C17.4754813,28.4257528 17.7439039,28.496098 17.9950288,28.4279523 L22.2540344,27.2647479 C22.3083861,27.2730886 22.3634595,27.2550317 22.4023217,27.2161291 L29.2320454,20.3815435 L29.2320454,29.6592231 C29.2320454,30.3350242 28.6862996,30.8832016 28.0080675,30.8832016 L12.2239791,30.8832016 C11.8992611,30.8835239 11.5877499,30.7546732 11.3581394,30.5250627 C11.128529,30.2954523 10.9996783,29.9839411 11.0000006,29.6592231 L11.0000006,11.4441954 C11.0000006,10.7683943 11.5457471,10.2202175 12.2239791,10.2202175 L15.8618797,10.2202175 Z M17.0773493,9.00474793 L23.1546973,9.00474793 L23.1546973,11.4356872 L17.0773493,11.4356872 L17.0773493,9.00474793 Z M29.7595592,17.90077 L28.0165758,16.1273999 L29.787515,14.4694993 C29.9552498,14.3017645 30.2797802,14.3260739 30.4730399,14.5181181 L31.4952498,15.5439744 C31.6000086,15.6466085 31.6602478,15.7862937 31.6629846,15.9329247 C31.6646556,16.0425705 31.6226796,16.148385 31.5462996,16.2270684 L29.7595592,17.8995546 L29.7595592,17.90077 Z M19.7562443,24.0826485 L26.3015482,17.5130352 L28.0165758,19.2584496 L21.5150288,25.7271789 L18.5626531,26.9061844 L19.7574598,24.0826485 L19.7562443,24.0826485 Z" id="形状" fill="#FFFFFF" fill-rule="nonzero"></path>
            </g>
        </g>
    </g>
</svg>