<?xml version="1.0" encoding="UTF-8"?>
<svg width="23px" height="23px" viewBox="0 0 23 23" version="1.1" xmlns="http://www.w3.org/2000/svg" xmlns:xlink="http://www.w3.org/1999/xlink">
    <!-- Generator: Sketch 61.2 (89653) - https://sketch.com -->
    <title>形状@2x</title>
    <desc>Created with Sketch.</desc>
    <g id="针线互联用户端" stroke="none" stroke-width="1" fill="none" fill-rule="evenodd">
        <g id="联系人_组织架构" transform="translate(-268.000000, -178.000000)" fill-rule="nonzero">
            <g id="编组备份" transform="translate(268.000000, 178.000000)">
                <g id="编组-6" transform="translate(0.500000, 0.500000)">
                    <path d="M16.720693,19.5187337 C16.720693,20.0818178 17.6336327,20.5382877 18.759801,20.5382877 C19.8859692,20.5382877 20.798909,20.0818178 20.798909,19.5187337 C20.798909,18.9556495 19.8859692,18.4991797 18.759801,18.4991797 C17.6336327,18.4991797 16.720693,18.9556495 16.720693,19.5187337 L16.720693,19.5187337 Z" id="路径" fill="#B3D8FF"></path>
                    <path d="M4.07822334,15.0326961 C4.07822334,15.5957802 4.9911631,16.0522501 6.11733135,16.0522501 C7.24349961,16.0522501 8.15643936,15.5957802 8.15643936,15.0326961 C8.15643936,14.4696119 7.24349961,14.0131421 6.11733135,14.0131421 C4.9911631,14.0131421 4.07822334,14.4696119 4.07822334,15.0326961 L4.07822334,15.0326961 Z" id="路径" fill="#B3D8FF"></path>
                    <path d="M10.603369,4.02151283 C10.603369,4.58459696 11.5163087,5.04106683 12.642477,5.04106683 C13.7686452,5.04106683 14.681585,4.58459696 14.681585,4.02151283 C14.681585,3.4584287 13.7686452,3.00195883 12.642477,3.00195883 C11.5163087,3.00195883 10.603369,3.4584287 10.603369,4.02151283 L10.603369,4.02151283 Z" id="路径" fill="#B3D8FF"></path>
                    <path d="M19.4734888,2.32497496 L15.4768371,2.32497496 C15.0639848,0.758828858 13.5213402,-0.230938024 11.9256321,0.0465078406 C10.3299239,0.323953705 9.21189521,1.77633203 9.35190308,3.3899176 C9.49191095,5.00350317 10.8433879,6.241607 12.4630355,6.24006232 C13.8811143,6.22637494 15.115019,5.26630018 15.4768371,3.89508811 L19.4734888,3.89508811 C19.9034516,3.90995981 20.247935,4.25622811 20.2605845,4.68626202 L20.2605845,11.7048718 C20.2375741,12.1269341 19.8959404,12.4614873 19.4734888,12.4756546 L12.0674485,12.4756546 C11.6304952,12.4756546 11.2762746,12.8298752 11.2762746,13.2668285 C11.2762746,13.7037818 11.6304952,14.0580024 12.0674485,14.0580024 L19.4734888,14.0580024 C20.094644,14.0569489 20.6896346,13.8077731 21.1261696,13.3658771 C21.5627047,12.9239811 21.8045999,12.3259936 21.7980719,11.7048718 L21.7980719,4.64955809 C21.7958271,3.36665725 20.7563896,2.32721976 19.4734888,2.32497496 L19.4734888,2.32497496 Z M12.4630355,4.64956351 C11.8375124,4.65120855 11.2726641,4.27567274 11.0321423,3.69823781 C10.7916205,3.12080288 10.9228507,2.4553261 11.3645792,2.01242904 C11.8063076,1.56953199 12.4714354,1.43654407 13.0495038,1.67553945 C13.6275721,1.91453483 14.0046011,2.47838896 14.0046011,3.10391421 C14.0001643,3.95411729 13.3132239,4.64287507 12.4630355,4.64956351 L12.4630355,4.64956351 Z M18.6578456,15.5302384 C17.302799,15.5370418 16.1096993,16.4244304 15.7133736,17.7202404 L7.79347813,17.7202404 C7.37046633,17.7206959 7.02192824,17.388327 7.00230422,16.9657704 C8.53685992,16.589512 9.54378865,15.1204169 9.34112862,13.5534579 C9.13846858,11.9864989 7.79091756,10.8219165 6.21113031,10.8484464 C5.10595614,10.8596955 4.08627227,11.4452413 3.51950774,12.3940903 L2.34498154,12.3940903 C1.90846725,12.3945325 1.54898127,12.0512234 1.52933834,11.615151 L1.52933834,4.64955809 C1.54257075,4.20867465 1.90389962,3.85818565 2.34498154,3.85838418 L7.39789117,3.85838418 C7.69336315,3.87963893 7.97595393,3.73405134 8.13016964,3.48112256 C8.28438535,3.22819379 8.28438535,2.91030498 8.13016964,2.6573762 C7.97595393,2.40444742 7.69336315,2.25885983 7.39789117,2.28011458 L2.34498154,2.28011458 C1.72385308,2.27576233 1.12672734,2.51974078 0.68636514,2.95780543 C0.246002944,3.39587008 -0.00109573416,3.99171141 3.65287664e-06,4.61285413 L3.65287664e-06,11.615151 C-0.00109573416,12.2362938 0.246002944,12.8321351 0.68636514,13.2701997 C1.12672734,13.7082644 1.72385308,13.9522428 2.34498154,13.9478906 L3.12392079,13.9478906 C3.13428305,15.3640017 4.08884952,16.5989304 5.45666036,16.9657704 C5.47010668,18.244819 6.51437696,19.2726872 7.79347813,19.2658843 L15.6236529,19.2658843 C15.9467165,20.8833463 17.4715921,21.9709463 19.1060957,21.7496966 C20.7405994,21.5284469 21.9214587,20.0745932 21.8028896,18.4294504 C21.6843205,16.7843076 20.3071835,15.5148144 18.6578456,15.5302384 Z M4.66956467,13.9845945 C4.66998086,13.4226066 4.96996429,12.9034643 5.45666036,12.6224704 C5.93124197,12.3330937 6.52772261,12.3330937 7.00230422,12.6224704 C7.48635147,12.9066475 7.78646498,13.4233378 7.79347813,13.9845945 C7.79677012,14.3955251 7.6349833,14.7905813 7.34440217,15.0811624 C7.05382103,15.3717436 6.65876486,15.5335304 6.24783427,15.5302384 C5.8335709,15.5345875 5.43454937,15.3741813 5.13856145,15.084312 C4.84257354,14.7944427 4.67386859,14.3988584 4.66956467,13.9845945 L4.66956467,13.9845945 Z M18.6578456,20.1997957 C17.8085245,20.1907836 17.1256072,19.4981357 17.1286014,18.6487722 C17.1316153,17.7994086 17.8194152,17.1116088 18.6687787,17.1085948 C19.5181423,17.1056006 20.2107902,17.7885179 20.2198023,18.637839 C20.232356,19.0558178 20.0718278,19.4604434 19.7761389,19.7561323 C19.4804499,20.0518212 19.0758244,20.2123494 18.6578456,20.1997957 L18.6578456,20.1997957 Z" id="形状" fill="#409EFF"></path>
                </g>
            </g>
        </g>
    </g>
</svg>