<?xml version="1.0" encoding="UTF-8"?>
<svg width="40px" height="40px" viewBox="0 0 40 40" version="1.1" xmlns="http://www.w3.org/2000/svg" xmlns:xlink="http://www.w3.org/1999/xlink">
    <!-- Generator: Sketch 61.2 (89653) - https://sketch.com -->
    <title>椭圆形备份 29@2x</title>
    <desc>Created with Sketch.</desc>
    <g id="针线互联用户端" stroke="none" stroke-width="1" fill="none" fill-rule="evenodd">
        <g id="工作台" transform="translate(-1214.000000, -760.000000)">
            <g id="编组-12" transform="translate(1214.000000, 760.000000)">
                <circle id="椭圆形备份-29" fill="#FF5A5A" cx="20" cy="20" r="20"></circle>
                <path d="M27.2230769,10 C28.2,10 29,10.8 28.9961538,11.7730769 L28.9961538,28.2269231 L29,28.2269231 C29,29.2038461 28.2,30 27.2269231,30 L12.7730769,30 C11.7961539,30 11,29.2 11,28.2269231 L11,11.7730769 C11,10.7961539 11.8,10 12.7730769,10 L27.2230769,10 Z M23.2807692,24.6384615 L16.7230769,24.6384615 C16.3384615,24.6384615 16.026923,24.95 16.026923,25.3346154 C16.026923,25.7192307 16.3384615,26.0307692 16.7230769,26.0307692 L23.2807692,26.0307692 C23.6653846,26.0307692 23.976923,25.7192308 23.976923,25.3346154 C23.976923,24.9538461 23.6653846,24.6384615 23.2807692,24.6384615 Z M23.2807692,22.1461539 L16.7230769,22.1461539 C16.3384615,22.1461539 16.026923,22.4576923 16.026923,22.8423077 C16.026923,23.2269231 16.3384615,23.5384615 16.7230769,23.5384615 L23.2807692,23.5384615 C23.6653846,23.5384615 23.976923,23.2269231 23.976923,22.8423077 C23.976923,22.4576923 23.6653846,22.1461539 23.2807692,22.1461539 Z M21.3653846,14.1730769 L20.0038461,15.5346154 L18.6384615,14.1730769 C18.3692307,13.9038462 17.9230769,13.9038462 17.6538461,14.1730769 C17.3846154,14.4423077 17.3846154,14.8884615 17.6538461,15.1576923 L19.1346154,16.6384615 L17.8269231,16.6384615 C17.4423077,16.6384615 17.1307692,16.95 17.1307692,17.3346154 C17.1307692,17.7192307 17.4423077,18.0307692 17.8269231,18.0307692 L19.3076923,18.0307692 L19.3076923,18.65 L17.8269231,18.65 C17.4423077,18.65 17.1307692,18.9615384 17.1307692,19.3461539 C17.1307692,19.7307692 17.4423077,20.0423077 17.8269231,20.0423077 L19.3076923,20.0423077 L19.3076923,21.0730769 C19.3076923,21.4576923 19.6192308,21.7692308 20.0038461,21.7692308 C20.3884615,21.7692308 20.7,21.4576923 20.7,21.0730769 L20.7,20.0423077 L22.1807692,20.0423077 C22.5653846,20.0423077 22.8769231,19.7307692 22.8769231,19.3461539 C22.8769231,18.9615385 22.5653846,18.65 22.1807692,18.65 L20.7,18.65 L20.7,18.0307692 L22.1807692,18.0307692 C22.5653846,18.0307692 22.8769231,17.7192308 22.8769231,17.3346154 C22.8769231,16.95 22.5653846,16.6384615 22.1807692,16.6384615 L20.8692307,16.6384615 L22.35,15.1576923 C22.6192307,14.8884615 22.6192307,14.4423077 22.35,14.1730769 C22.0807692,13.9038462 21.6346153,13.9038462 21.3653846,14.1730769 Z" id="形状结合" fill="#FFFFFF" fill-rule="nonzero"></path>
            </g>
        </g>
    </g>
</svg>