<?xml version="1.0" encoding="UTF-8"?>
<svg width="14px" height="14px" viewBox="0 0 14 14" version="1.1" xmlns="http://www.w3.org/2000/svg" xmlns:xlink="http://www.w3.org/1999/xlink">
    <!-- Generator: Sketch 61.2 (89653) - https://sketch.com -->
    <title>形状@2x</title>
    <desc>Created with Sketch.</desc>
    <g id="针线互联用户端" stroke="none" stroke-width="1" fill="none" fill-rule="evenodd">
        <g id="客户订单汇总管理" transform="translate(-130.000000, -203.000000)" fill="#FFFFFF" fill-rule="nonzero">
            <g id="形状-2" transform="translate(130.000000, 203.000000)">
                <path d="M10.325,3.29331668 C10.80625,2.59266357 10.63125,1.62930054 9.93125,1.14760736 L8.6625,0.271790963 C7.9625,-0.20990222 7,-0.0347389413 6.51875,0.665914173 L5.87344333,1.59644721 L9.67969333,4.23479306 L10.325,3.29331668 Z M13.34375,12.7081971 L3.77344333,12.7081971 C3.81719333,12.6753671 3.85,12.6425138 3.87188667,12.6096604 L8.93594333,5.27480606 L5.14063667,2.63646022 L0.0765566667,9.97131459 C0.0328066667,10.0369746 0,10.1136245 0,10.2121379 L0.0984433333,13.4635668 C0.0984433333,13.5730468 0.142193333,13.6606168 0.21875,13.7263234 C0.339056667,13.89052 0.525,14 0.74375,14 L13.3546933,14 C13.7156367,14 14,13.7153568 14,13.3540869 C13.9890567,12.992817 13.7046933,12.7081971 13.34375,12.7081971 Z" id="形状"></path>
            </g>
        </g>
    </g>
</svg>