<?xml version="1.0" encoding="UTF-8"?>
<svg width="40px" height="40px" viewBox="0 0 40 40" version="1.1" xmlns="http://www.w3.org/2000/svg" xmlns:xlink="http://www.w3.org/1999/xlink">
    <!-- Generator: Sketch 61.2 (89653) - https://sketch.com -->
    <title>椭圆形备份 27@2x</title>
    <desc>Created with Sketch.</desc>
    <g id="针线互联用户端" stroke="none" stroke-width="1" fill="none" fill-rule="evenodd">
        <g id="工作台" transform="translate(-334.000000, -760.000000)">
            <g id="编组-24" transform="translate(334.000000, 760.000000)">
                <circle id="椭圆形备份-27" fill="#3370FF" cx="20" cy="20" r="20"></circle>
                <g id="编组" transform="translate(10.000000, 10.000000)" fill="#FFFFFF" fill-rule="nonzero">
                    <path d="M9.1085498,19.797583 C11.503487,19.8009385 13.8012075,18.8506088 15.4940963,17.1565419 L9.1085498,10.8016787 L9.1085498,1.80918359 C5.8711407,1.7727929 2.86395722,3.4790743 1.23465649,6.27684503 C-0.394644247,9.07461577 -0.394644247,12.5321508 1.23465649,15.3299216 C2.86395722,18.1276923 5.8711407,19.8339737 9.1085498,19.797583 L9.1085498,19.797583 Z M10.3506574,9.50615934 L19.8863614,9.50615934 C19.8775815,4.24815284 15.6086658,-0.00753538839 10.3506574,-7.77795957e-06 L10.3506574,9.50615934 L10.3506574,9.50615934 Z M10.8575009,10.7687225 L17.2691851,17.0963116 C18.9451834,15.417258 19.8854058,13.1411022 19.8829569,10.7687225 L10.8575009,10.7687225 Z" id="形状"></path>
                </g>
            </g>
        </g>
    </g>
</svg>