<?xml version="1.0" encoding="UTF-8"?>
<svg width="40px" height="40px" viewBox="0 0 40 40" version="1.1" xmlns="http://www.w3.org/2000/svg" xmlns:xlink="http://www.w3.org/1999/xlink">
    <!-- Generator: Sketch 61.2 (89653) - https://sketch.com -->
    <title>椭圆形备份 10@2x</title>
    <desc>Created with Sketch.</desc>
    <g id="针线互联用户端" stroke="none" stroke-width="1" fill="none" fill-rule="evenodd">
        <g id="工作台" transform="translate(-1214.000000, -376.000000)">
            <g id="编组-14" transform="translate(1214.000000, 376.000000)">
                <circle id="椭圆形备份-10" fill="#FF8802" cx="20" cy="20" r="20"></circle>
                <g id="编组" transform="translate(10.000000, 11.000000)" fill="#FFFFFF" fill-rule="nonzero">
                    <path d="M16.4019897,2.35910165 C16.4019897,1.06545601 15.3551994,0.018643022 14.0615538,0.018643022 L2.35957861,0.018643022 C1.06593297,0.018643022 0.019119984,1.06545601 0.019119984,2.35910165 L0.019119984,14.0610768 C0.019119984,15.3547225 1.06593297,16.4015127 2.35957861,16.4015127 L10.5509794,16.4015127 L10.5509794,11.8092841 C10.5509794,10.1934251 12.9096075,8.88383577 15.8168864,8.88383577 C16.0157515,8.88383577 16.2099381,8.88840087 16.4019897,8.90211882 L16.4019897,2.35910165 Z M9.38075007,9.38027313 L6.74778522,6.74730826 L4.11478269,9.38029222 C3.79166187,9.70341076 3.26778135,9.70340891 2.94466281,9.38028809 C2.94465404,9.38027932 2.94464526,9.38027054 2.94463649,9.38026176 C2.62151335,9.05710727 2.62152606,8.53319965 2.94466488,8.21006084 L7.0403823,4.11434342 L7.0403823,4.11434342 L8.21049805,5.28457273 L9.67334715,6.74733099 L12.3062201,4.11436511 C12.6293586,3.7912152 13.1532789,3.79120596 13.4764288,4.11434446 C13.4764322,4.1143479 13.4764357,4.11435134 13.4764391,4.11435478 C13.799589,4.43750468 13.799589,4.96143419 13.4764391,5.2845841 L9.38075007,9.38027313 L9.38075007,9.38027313 Z M11.7212087,11.8092841 C11.7212087,12.7784225 13.5542159,13.5646167 15.8168864,13.5646167 C18.0795568,13.5646167 19.9125641,12.7784225 19.9125641,11.8092841 C19.9125641,10.8402593 18.0795568,10.0540651 15.8168864,10.0540651 C13.5542159,10.0540651 11.7212087,10.8402593 11.7212087,11.8092841 Z M15.8168864,17.0752138 C14.2283725,17.0752138 12.8068363,16.6844106 11.8400599,16.0672609 C11.7622718,16.2021921 11.7212087,16.3439369 11.7212087,16.4901105 C11.7212087,17.4592489 13.5542159,18.2454432 15.8168864,18.2454432 C18.0795568,18.2454432 19.9125641,17.4592489 19.9125641,16.4901105 C19.9125641,16.3439142 19.8713874,16.2021921 19.7937128,16.0672609 C18.8291622,16.6844106 17.4052867,17.0752138 15.8168864,17.0752138 Z M15.8168864,14.7348461 C14.2283725,14.7348461 12.8068363,14.3440428 11.8400599,13.7268931 C11.7622718,13.8617108 11.7212087,14.0034556 11.7212087,14.1497428 C11.7212087,15.1187676 13.5542159,15.9049618 15.8168864,15.9049618 C18.0795568,15.9049618 19.9125641,15.1187676 19.9125641,14.1497428 C19.9125641,14.0034329 19.8713874,13.8617108 19.7937128,13.7268931 C18.8291622,14.3440428 17.4052867,14.7348461 15.8168864,14.7348461 Z" id="形状"></path>
                </g>
            </g>
        </g>
    </g>
</svg>