<?xml version="1.0" encoding="UTF-8"?>
<svg width="12px" height="12px" viewBox="0 0 12 12" version="1.1" xmlns="http://www.w3.org/2000/svg" xmlns:xlink="http://www.w3.org/1999/xlink">
    <!-- Generator: Sketch 61.2 (89653) - https://sketch.com -->
    <title>矩形@2x</title>
    <desc>Created with Sketch.</desc>
    <path d="M9.00942349,0.0142726293 C9.59023707,0.0142726293 10.0627047,0.486659483 10.0627047,1.0674569 L10.0623114,2.35227263 L10.9382813,2.35280172 C11.5189978,2.35280172 11.9914655,2.8252694 11.9914655,3.40606681 L11.9914655,8.61174569 C11.9914655,9.1925431 11.5189978,9.66501078 10.9382813,9.66501078 L10.0333114,9.66427263 L10.0342241,10.8738685 C10.0342241,11.4546659 9.56175647,11.9271336 8.98095905,11.9271336 L3.0268319,11.9271336 C2.44609914,11.9271336 1.9736153,11.4546659 1.9736153,10.8738685 L1.97331142,9.66427263 L1.05549569,9.66501078 C0.474779095,9.66501078 0.00231142242,9.1925431 0.00231142242,8.61174569 L0.00231142242,3.40606681 C0.00231142242,2.8252694 0.474779095,2.35280172 1.05549569,2.35280172 L1.96631142,2.35227263 L1.96668103,1.0674569 C1.96668103,0.486740302 2.43905172,0.0142726293 3.01984914,0.0142726293 L9.00942349,0.0142726293 Z M9.19131142,7.32227263 L2.81531142,7.32227263 L2.81576509,10.8738685 C2.8159431,10.9903012 2.91028608,11.0846442 3.02671875,11.0848222 L8.98097522,11.0848222 C9.09739528,11.0846353 9.19172582,10.9903048 9.19191272,10.8738847 L9.19131142,7.32227263 Z M8.0313847,8.86713362 C8.23932181,8.86736539 8.40780281,9.03592595 8.40793642,9.24386315 C8.40770472,9.45171517 8.23923677,9.62013973 8.0313847,9.62031789 L3.96231142,9.62031789 C3.75451304,9.62004912 3.5861327,9.45166154 3.58585668,9.24386315 C3.5859902,9.03596376 3.75441219,8.86741884 3.96231142,8.86713362 L8.0313847,8.86713362 Z M10.9382813,3.19501616 L1.05549569,3.19501616 C0.939196282,3.19543264 0.845010319,3.28958973 0.84455819,3.40588901 L0.84455819,8.61174569 C0.844736184,8.72817207 0.939069328,8.82251244 1.05549569,8.82269935 L1.97331142,8.82227263 L1.97331142,7.32227263 L1.83507543,7.32253772 C1.60286638,7.32261853 1.41400862,7.13367996 1.41400862,6.90145474 C1.41400862,6.66922953 1.6029472,6.48038793 1.83507543,6.48038793 L10.1587015,6.48038793 C10.2700233,6.48177362 10.376189,6.52752837 10.4536422,6.6075 C10.5318936,6.68729074 10.5749355,6.79509348 10.5732103,6.90683728 C10.571497,7.13553603 10.3866546,7.3206016 10.157958,7.32253772 L10.0333114,7.32227263 L10.0333114,8.82227263 L10.9382813,8.82269935 C11.0546945,8.82252125 11.1490117,8.72817514 11.1491541,8.61176185 L11.1491541,3.40603448 C11.1490562,3.28958964 11.054726,3.19519436 10.9382813,3.19501616 Z M9.52427263,4.20063039 C9.82286638,4.20063039 10.0658405,4.44352371 10.0658405,4.74211746 C10.0655198,5.0410842 9.82323937,5.28336463 9.52427263,5.28368534 C9.22532433,5.28332019 8.98306989,5.04106576 8.98270474,4.74211746 C8.98270474,4.44352371 9.22567888,4.20063039 9.52427263,4.20063039 Z M9.00926185,0.85653556 L3.01976832,0.85653556 C2.90334826,0.856722452 2.80901771,0.951052997 2.80883082,1.06747306 L2.80831142,2.35227263 L9.21931142,2.35227263 L9.2201347,1.06747306 C9.21999228,0.951059773 9.12567509,0.856713666 9.00926185,0.85653556 Z" id="形状结合"></path>
</svg>
