<?xml version="1.0" encoding="UTF-8"?>
<svg width="40px" height="40px" viewBox="0 0 40 40" version="1.1" xmlns="http://www.w3.org/2000/svg" xmlns:xlink="http://www.w3.org/1999/xlink">
    <!-- Generator: Sketch 61.2 (89653) - https://sketch.com -->
    <title>椭圆形备份@2x</title>
    <desc>Created with Sketch.</desc>
    <g id="针线互联用户端" stroke="none" stroke-width="1" fill="none" fill-rule="evenodd">
        <g id="工作台" transform="translate(-334.000000, -156.000000)">
            <g id="编组-15" transform="translate(334.000000, 156.000000)">
                <circle id="椭圆形备份" fill="#409EFF" cx="20" cy="20" r="20"></circle>
                <g id="编组" transform="translate(9.500000, 10.000000)" fill-rule="nonzero">
                    <path d="M1.11370239,3.58204834 C1.76854248,2.5975708 2.42471558,1.61399048 3.0778894,0.628410645 C3.12136597,0.562811279 3.16799561,0.540816628 3.24451538,0.540816628 C8.04483032,0.542431641 12.8451453,0.542380371 17.6454858,0.541431885 C17.7132385,0.541431885 17.763175,0.550686035 17.8061133,0.615439453 C18.466875,1.61122192 19.1307642,2.60492798 19.7936023,3.59930054 C19.8049329,3.61632202 19.813136,3.63541992 19.8322595,3.6713855 L1.08255615,3.6713855 C1.06233032,3.63080566 1.09639893,3.60809326 1.11370239,3.58204834 Z" id="路径" fill="#FFFFFF"></path>
                    <path d="M12.5349646,5.24525757 C12.5337085,5.3007312 12.5314014,5.35620483 12.5313757,5.41165283 C12.5311963,7.71398804 12.5312219,10.0163232 12.5312219,12.3186328 C12.5312219,12.3442676 12.5313501,12.3699023 12.5311963,12.3955371 C12.5305298,12.5391943 12.5301709,12.5397839 12.4055603,12.4784912 C12.2026868,12.3786438 12.0001978,12.278053 11.7975806,12.1777441 C11.3771704,11.9696155 10.9555298,11.7637683 10.5372986,11.5513074 C10.456344,11.5101892 10.3942566,11.5102661 10.3136865,11.5517175 C9.72185669,11.8558228 9.12748901,12.1550061 8.53389038,12.4558813 C8.36344482,12.5422449 8.36349609,12.5423987 8.36349609,12.357085 C8.36347046,10.0419324 8.36349609,7.72680542 8.36334229,5.41165283 C8.36334229,5.3561792 8.36152222,5.30067993 8.3605481,5.2452063 C8.39020752,5.24305298 8.41991821,5.23897705 8.44962891,5.23897705 C9.78168823,5.23866943 11.1137732,5.23866943 12.4458325,5.23897705 C12.4755432,5.23902832 12.5052539,5.24307861 12.5349646,5.24525757 L12.5349646,5.24525757 Z" id="路径" fill="#FFFFFF"></path>
                    <path d="M20.3653857,18.2010168 C20.3653345,18.7607263 20.052821,19.1830078 19.5540967,19.3012354 C19.4617603,19.3231274 19.3677576,19.3238452 19.2739087,19.3238452 C13.3839368,19.3241272 7.49404175,19.3244092 1.60406982,19.3235632 C0.981478271,19.3234607 0.528793945,18.872699 0.528614502,18.2506458 C0.527358398,13.9538489 0.528076172,9.657052 0.52692227,5.36025513 C0.52692227,5.28355591 0.528050537,5.2362854 0.631179199,5.23643921 C2.66424683,5.23954102 4.69731445,5.23879761 6.73038208,5.23915649 C6.7515564,5.23915649 6.77270508,5.2433606 6.79387939,5.24561646 C6.83263916,5.31775269 6.81797607,5.3962207 6.81800171,5.47204834 C6.81874512,8.59410645 6.81861694,11.7161133 6.81864258,14.8381458 C6.81864258,15.0905713 6.819104,15.0913403 7.0386145,14.9662683 C8.1184021,14.3510596 9.19467773,13.729801 10.2733887,13.1126697 C10.3925134,13.0445325 10.4875671,13.0449939 10.605,13.1121826 C11.7057056,13.7423877 12.8083594,14.369209 13.9093213,14.9989526 C13.9315466,15.0116418 13.9536438,15.0246899 13.9762024,15.0368665 C14.0428784,15.0726782 14.0707947,15.0471973 14.0722302,14.9774194 C14.0731787,14.9304309 14.0729993,14.8834937 14.0729993,14.8364795 C14.0729993,11.7187537 14.0728455,8.60097656 14.0737939,5.48319946 C14.0738708,5.40350098 14.0560034,5.32018799 14.1020947,5.24533447 C14.1488782,5.24310425 14.1956616,5.23897705 14.2424963,5.23897705 C16.2329077,5.2386438 18.2232166,5.23984863 20.2136279,5.23587334 C20.3344446,5.2356189 20.3686672,5.26107422 20.3686672,5.38753052 C20.3648987,9.65869263 20.3656677,13.9298547 20.3653857,18.2010168 L20.3653857,18.2010168 Z" id="路径" fill="#FFFFFF"></path>
                    <path d="M14.1053503,15.0215112 C14.1036841,15.0045923 14.105094,14.9873657 14.105094,14.9702673 C14.105094,11.7798413 14.1051196,8.58941528 14.1049402,5.39893799 C14.1049402,5.34774536 14.1030945,5.2965271 14.1020947,5.24530884 C13.5797095,5.2452832 13.0573499,5.24518066 12.5349646,5.24518066 C12.454292,5.30508911 12.4845154,5.39291382 12.4844641,5.46897217 C12.4827466,7.74031494 12.4831567,10.0116064 12.4829004,12.2829236 C12.4828748,12.4613672 12.4726978,12.4685193 12.3167358,12.3885901 C11.7468237,12.0964819 11.1613513,11.8358276 10.5943103,11.5382336 C10.4719299,11.4739417 10.3678015,11.4723523 10.2460364,11.5385669 C9.71713989,11.8261633 9.1748877,12.0878174 8.63704468,12.3580334 C8.40863892,12.4728516 8.40858765,12.4728516 8.40858765,12.2235535 L8.40856201,7.24120605 C8.40856201,6.63922485 8.40925415,6.03721802 8.40766479,5.43526245 C8.40748535,5.36950928 8.42517334,5.29624512 8.36049683,5.24518066 L6.79382813,5.24559082 C6.79239258,5.27968506 6.7898291,5.3137793 6.7898291,5.34787354 C6.78964966,8.56821533 6.78964966,11.7885828 6.78964966,15.0088989 C6.78964966,15.0302527 6.7903418,15.0516064 6.78964966,15.0729346 C6.78790649,15.1268701 6.8070813,15.1450195 6.85742798,15.1147192 C6.88298584,15.0992871 6.909646,15.0857776 6.93556274,15.0709351 C8.07177246,14.4198376 9.20826416,13.7692786 10.3432947,13.1161304 C10.4094067,13.0780884 10.4586511,13.0703979 10.527865,13.1109009 C10.8739343,13.313313 11.2232593,13.5101367 11.5715588,13.7087292 C12.3792847,14.1693347 13.1881384,14.6280432 13.9936597,15.0925452 C14.1026074,15.1554272 14.1147583,15.1190771 14.1053503,15.0215112 L14.1053503,15.0215112 Z" id="路径" fill="#409EFF"></path>
                </g>
            </g>
        </g>
    </g>
</svg>