<?xml version="1.0" encoding="UTF-8"?>
<svg width="40px" height="40px" viewBox="0 0 40 40" version="1.1" xmlns="http://www.w3.org/2000/svg" xmlns:xlink="http://www.w3.org/1999/xlink">
    <!-- Generator: Sketch 61.2 (89653) - https://sketch.com -->
    <title>椭圆形备份 15@2x</title>
    <desc>Created with Sketch.</desc>
    <g id="针线互联用户端" stroke="none" stroke-width="1" fill="none" fill-rule="evenodd">
        <g id="工作台" transform="translate(-774.000000, -568.000000)">
            <g id="编组-27" transform="translate(774.000000, 568.000000)">
                <circle id="椭圆形备份-15" fill="#3370FF" cx="20" cy="20" r="20"></circle>
                <g id="编组" transform="translate(10.000000, 9.000000)" fill="#FFFFFF" fill-rule="nonzero">
                    <path d="M9.42120536,7.69263393 C8.86138393,7.69263393 8.40959821,8.14441964 8.40959821,8.70424107 C8.40959821,9.2640625 8.86383929,9.71584821 9.42120536,9.71584821 C9.98102679,9.71584821 10.4328125,9.2640625 10.4328125,8.70424107 C10.4328125,8.146875 9.98102679,7.69263393 9.42120536,7.69263393 Z M9.42120536,3.44241071 L7.90133929,5.66941964 L10.9386161,5.66941964 L9.42120536,3.44241071 Z" id="形状"></path>
                    <path d="M17.2857143,0.0122767857 L1.57142857,0.0122767857 C0.7046875,0.0122767857 0,0.716964286 0,1.58370536 L0,20.3671875 C0,21.2339286 0.7046875,21.9386161 1.57142857,21.9386161 L17.2857143,21.9386161 C18.1524554,21.9386161 18.8571429,21.2339286 18.8571429,20.3671875 L18.8571429,1.58370536 C18.8571429,0.716964286 18.1573661,0.0122767857 17.2857143,0.0122767857 Z M4.35825893,5.66941964 L6.78169643,5.66941964 L8.99888393,2.35223214 C9.09464286,2.20736607 9.25669643,2.13616071 9.41875,2.13616071 C9.58080357,2.13616071 9.74285714,2.20491071 9.83861607,2.35223214 L12.0558036,5.66941964 L14.4792411,5.66941964 C14.7566964,5.66941964 14.9850446,5.89776786 14.9850446,6.17522321 C14.9850446,6.22433036 14.9776786,6.26852679 14.9654018,6.31026786 L13.6837054,11 C13.5683036,11.4272321 13.1754464,11.7415179 12.7089286,11.7415179 L6.12857143,11.7415179 C5.66205357,11.7415179 5.27165179,11.4272321 5.15133929,11.0024554 L3.86964286,6.31026786 C3.85982143,6.26607143 3.85245536,6.221875 3.85245536,6.17276786 C3.85245536,5.8953125 4.08080357,5.66941964 4.35825893,5.66941964 Z M4.07589286,13.1484375 L9.87053571,13.1484375 C10.3026786,13.1484375 10.65625,13.5020089 10.65625,13.9341518 C10.65625,14.3662946 10.3026786,14.7198788 9.87053571,14.7198788 L4.07589286,14.7198788 C3.64375,14.7223214 3.29017857,14.36875 3.29017857,13.9341518 C3.29017857,13.4995536 3.64375,13.1484375 4.07589286,13.1484375 Z M14.78125,19.8196429 L4.07589286,19.8196429 C3.64375,19.8196429 3.29017857,19.4660714 3.29017857,19.0339286 C3.29017857,18.6017857 3.64375,18.2482143 4.07589286,18.2482143 L14.78125,18.2482143 C15.2158482,18.2482143 15.5669643,18.6017857 15.5669643,19.0339286 C15.5669643,19.4660714 15.2133929,19.8196429 14.78125,19.8196429 Z M14.78125,17.2685268 L4.07589286,17.2685268 C3.64375,17.2685268 3.29017857,16.9149554 3.29017857,16.4828125 C3.29017857,16.0506696 3.64375,15.6970982 4.07589286,15.6970982 L14.78125,15.6970982 C15.2158482,15.6970982 15.5669643,16.0506696 15.5669643,16.4828125 C15.5669643,16.9149554 15.2133929,17.2685268 14.78125,17.2685268 Z" id="形状"></path>
                </g>
            </g>
        </g>
    </g>
</svg>