<?xml version="1.0" encoding="UTF-8"?>
<svg width="20px" height="20px" viewBox="0 0 20 20" version="1.1" xmlns="http://www.w3.org/2000/svg" xmlns:xlink="http://www.w3.org/1999/xlink">
    <!-- Generator: Sketch 61.2 (89653) - https://sketch.com -->
    <title>形状结合@2x</title>
    <desc>Created with Sketch.</desc>
    <g id="针线互联用户端" stroke="none" stroke-width="1" fill="none" fill-rule="evenodd">
        <g id="工作台" transform="translate(-20.000000, -200.000000)" fill="#909399" fill-rule="nonzero">
            <g id="编组-2" transform="translate(20.000000, 200.000000)">
                <path d="M17.2861088,0 C18.9491797,0 19.5708232,0.410822568 19.8879312,2.65374784 C20.0269279,3.63377409 20.0269279,4.48377567 19.9410154,10.3466426 C19.9019007,13.0107648 19.8830419,15.0254553 19.8830419,17.2939705 C19.8830419,18.823835 18.7389385,19.9615507 17.2861088,19.9615507 C15.5692552,19.9615508 14.0472764,19.9677753 11.9525475,19.9816077 C6.5016422,20.0161888 5.49653549,20.0092726 4.81901396,19.89723 C3.26350833,19.6413305 2.03838175,18.2968202 2.02930157,17.2898208 C1.99298084,13.0674776 1.99298084,9.66539642 2.01533206,5.66368023 L2.01533206,5.66368023 L2.0251107,3.89174853 C2.02790461,3.30940408 2.03000004,2.9089558 2.03000004,2.58112769 C2.04036255,2.04455533 2.19230523,1.52000209 2.47073828,1.05956261 C2.89261768,0.385924237 3.57712398,0 4.63880721,0 L4.63880721,0 Z M2,12 L2,16 L1,16 C0.44771525,16 6.76353751e-17,15.5522847 0,15 L0,13 C-6.76353751e-17,12.4477153 0.44771525,12 1,12 L2,12 Z M15,5.00036665 C14.447656,5.00056916 14,5.44838927 14,6.00073336 L14,6.00073336 L14,14 C14,14.5522847 14.4477153,15 15,15 C15.5522847,15 16,14.5522847 16,14 L16,14 L16,5.99981681 L16,5.99981681 L15.9932319,5.88305765 C15.9353057,5.38592245 15.5126478,5.00017869 15,5.00036665 Z M2,4 L2,8 L1,8 C0.44771525,8 6.76353751e-17,7.55228475 0,7 L0,5 C-6.76353751e-17,4.44771525 0.44771525,4 1,4 L2,4 Z" id="形状结合"></path>
            </g>
        </g>
    </g>
</svg>