<?xml version="1.0" encoding="UTF-8"?>
<svg width="40px" height="40px" viewBox="0 0 40 40" version="1.1" xmlns="http://www.w3.org/2000/svg" xmlns:xlink="http://www.w3.org/1999/xlink">
    <!-- Generator: Sketch 61.2 (89653) - https://sketch.com -->
    <title>椭圆形备份 9@2x</title>
    <desc>Created with Sketch.</desc>
    <g id="针线互联用户端" stroke="none" stroke-width="1" fill="none" fill-rule="evenodd">
        <g id="工作台" transform="translate(-554.000000, -760.000000)">
            <g id="编组-5备份-3" transform="translate(554.000000, 760.000000)">
                <circle id="椭圆形备份-9" fill="#409EFF" cx="20" cy="20" r="20"></circle>
                <g id="编组" transform="translate(9.000000, 11.000000)" fill="#FFFFFF" fill-rule="nonzero">
                    <path d="M21.8810096,4.42710337 L0.0111871302,4.42710337 L0.0111871302,2.92538369 C0.0111871302,1.32107295 1.23485577,0.0203402367 2.74491494,0.0203402367 L19.1472818,0.0203402367 C20.657341,0.0203402367 21.8810096,1.32107295 21.8810096,2.9258922 L21.8810096,4.42710337 L21.8810096,4.42710337 Z M21.8810096,6.39382628 L21.8810096,14.8189303 C21.8810096,16.4237495 20.657341,17.7244822 19.1472818,17.7244822 L2.74491494,17.7244822 C1.23485577,17.7244822 0.0111871302,16.4237495 0.0111871302,14.8189303 L0.0111871302,6.39382628 L21.8810096,6.39382628 Z M2.73786982,10.2824427 L7.64454974,10.2824427 C8.19683449,10.2824427 8.64454974,9.83472743 8.64454974,9.28244268 C8.64454974,8.73015793 8.19683449,8.28244268 7.64454974,8.28244268 L2.73786982,8.28244268 C2.18558507,8.28244268 1.73786982,8.73015793 1.73786982,9.28244268 C1.73786982,9.83472743 2.18558507,10.2824427 2.73786982,10.2824427 Z M20.048634,9.50402644 C20.2600453,8.89895525 20.0856023,8.59695359 19.525839,8.59695359 L18.5588896,8.59695359 L17.1139192,11.1900795 L16.9519601,11.6399801 L16.9327131,11.6399801 L16.866048,11.1692562 C16.6712272,10.5748443 16.490656,9.97585639 16.3244892,9.37280649 C16.1828703,8.85522374 15.8694018,8.59695359 15.3836007,8.59695359 L14.0245423,8.59695359 L15.2112426,11.6915426 L14.2338434,11.6915426 C14.0916906,12.563198 14.257794,12.9990385 14.7321792,12.9990385 L15.717867,12.9990385 L15.8230515,13.2807507 L15.7845067,13.615551 L14.0026512,13.6171274 C13.7303208,14.529387 13.9589197,14.9855423 14.6889308,14.9855423 L15.6027922,14.9855423 C15.5892405,15.1303139 15.5736293,15.2802723 15.552806,15.4380362 C15.475742,16.0519554 16.1349436,16.0519554 16.4359283,16.0519554 L17.2669795,16.0519554 L17.4007928,14.9855423 L19.0649801,14.9855423 C19.2368297,14.0732826 19.0686414,13.6171274 18.5588642,13.6171274 C18.0485785,13.6171274 17.7205159,13.6171274 17.5731509,13.615551 L17.6210521,13.2708603 L17.8027922,12.9990385 L19.3232503,12.9990385 C19.4825906,12.1325698 19.336802,11.6930936 18.8853504,11.6816522 C18.8051707,11.6797186 18.724956,11.6797186 18.6447763,11.6816522 L20.049117,9.50402644 L20.048634,9.50402644 Z" id="形状"></path>
                </g>
            </g>
        </g>
    </g>
</svg>