<?xml version="1.0" encoding="UTF-8"?>
<svg width="40px" height="40px" viewBox="0 0 40 40" version="1.1" xmlns="http://www.w3.org/2000/svg" xmlns:xlink="http://www.w3.org/1999/xlink">
    <!-- Generator: Sketch 61.2 (89653) - https://sketch.com -->
    <title>椭圆形备份 23@2x</title>
    <desc>Created with Sketch.</desc>
    <g id="针线互联用户端" stroke="none" stroke-width="1" fill="none" fill-rule="evenodd">
        <g id="工作台" transform="translate(-554.000000, -664.000000)">
            <g id="编组-29" transform="translate(554.000000, 664.000000)">
                <circle id="椭圆形备份-23" fill="#3370FF" cx="20" cy="20" r="20"></circle>
                <g id="编组" transform="translate(10.000000, 10.000000)" fill="#FFFFFF" fill-rule="nonzero">
                    <path d="M18.8042105,3.73068226 L15.7302144,2.37333333 L6.01918129,6.93442495 L6.01918129,9.86869396 L4.32249513,9.12015595 L4.32249513,6.17590643 L14.0335283,1.61481481 L10.779883,0.167641326 C10.3407407,-0.0319688109 9.62214425,-0.0319688109 9.19298246,0.167641326 L1.15867446,3.73068226 C0.519922027,4.02011696 0.000935672515,4.82853801 0.000935672515,5.52717349 L0.0208966862,13.8908382 C0.0208966862,14.5994542 0.559844055,15.4078752 1.208577,15.6773489 L9.21294347,19.1006628 C9.63212476,19.2803119 10.3307602,19.2803119 10.7499415,19.1006628 L18.7642885,15.6773489 C19.4130214,15.3978947 19.9519688,14.5894737 19.9519688,13.8908382 L19.9719298,5.52717349 C19.9619493,4.82853801 19.442963,4.02011696 18.8042105,3.73068226 Z M17.7263158,12.3538402 C17.2672125,13.0524756 16.6683821,13.631345 16.0196491,13.9706823 L12.5564133,15.837037 C12.2969201,15.9767641 12.0773489,15.8769591 12.0773489,15.6174659 C12.0773489,15.3579727 12.2869396,15.028616 12.5564133,14.8888889 L16.0196491,13.0325146 C16.4088889,12.822924 16.7681871,12.4736062 17.0476413,12.054425 C17.3270955,11.6252632 17.4768031,11.1861209 17.4768031,10.7968811 C17.4768031,9.98846004 16.8180897,9.68904483 16.0196491,10.1182066 L13.1552437,11.6452242 L13.8239376,11.9546199 C14.0135673,12.0444444 14.0135673,12.3438596 13.8239376,12.6233138 C13.7341131,12.7630409 13.6043665,12.882807 13.4846004,12.9426901 C13.3648343,13.0125536 13.2450682,13.0225341 13.1452632,12.9826121 L11.8976998,12.4037427 C11.7579727,12.3338791 11.6681481,12.194152 11.6581676,12.0045224 L11.6581676,11.9546199 L11.6581676,11.9047173 C11.6681481,11.6951267 11.7579727,11.465575 11.8976998,11.2460039 L13.1452632,9.3397271 C13.3348928,9.0502924 13.634308,8.89060429 13.8139571,8.98042885 C14.0035867,9.07025341 14.0035867,9.36966862 13.8139571,9.64912281 L13.1452632,10.677115 L16.0096686,9.14011696 C17.1075244,8.56124756 18.4149708,9.16007797 18.4149708,10.2579337 C18.4249513,10.9166472 18.1754386,11.6552047 17.7263158,12.3538402 L17.7263158,12.3538402 Z" id="形状"></path>
                </g>
            </g>
        </g>
    </g>
</svg>