<?xml version="1.0" encoding="UTF-8"?>
<svg width="40px" height="40px" viewBox="0 0 40 40" version="1.1" xmlns="http://www.w3.org/2000/svg" xmlns:xlink="http://www.w3.org/1999/xlink">
    <!-- Generator: Sketch 61.2 (89653) - https://sketch.com -->
    <title>椭圆形备份 9@2x</title>
    <desc>Created with Sketch.</desc>
    <g id="针线互联用户端" stroke="none" stroke-width="1" fill="none" fill-rule="evenodd">
        <g id="工作台" transform="translate(-774.000000, -664.000000)">
            <g id="编组-5备份-2" transform="translate(774.000000, 664.000000)">
                <circle id="椭圆形备份-9" fill="#409EFF" cx="20" cy="20" r="20"></circle>
                <g id="编组" transform="translate(10.000000, 10.000000)" fill-rule="nonzero">
                    <path d="M2.77777777,0 L17.2222222,0 C18.7563465,0 20,1.24365347 20,2.77777777 L20,17.2222222 C20,18.7563465 18.7563465,20 17.2222222,20 L2.77777777,20 C1.24365347,20 0,18.7563465 0,17.2222222 L0,2.77777777 C0,1.24365347 1.24365347,0 2.77777777,0 Z" id="路径" fill="#FFFFFF"></path>
                    <path d="M6.52777777,6.52777777 C6.52777777,6.52777777 5.13888889,7.86111111 5.13888889,11.25 L5.13888889,15.1388889 L13.75,15.1388889 C13.5844469,13.848838 13.4917074,12.5504843 13.4722222,11.25 C13.4756881,9.63965519 13.7576202,8.04203974 14.3055555,6.52777777 L6.52777777,6.52777777 Z M11.5277778,11.5277778 C11.5277778,11.5277778 11.8055555,11.7583333 11.8055555,11.975 C11.8055555,12.1916667 11.5277778,12.3611111 11.5277778,12.3611111 L9.86111111,12.3611111 L9.86111111,13.75 C9.86111111,13.75 9.67222223,14.0277778 9.475,14.0277778 C9.27777777,14.0277778 9.02777777,13.75 9.02777777,13.75 L9.02777777,12.3611111 L7.36111111,12.3611111 C7.36111111,12.3611111 7.08333334,12.15 7.08333334,11.9416667 C7.08333334,11.7333333 7.36111111,11.5277778 7.36111111,11.5277778 L9.02777777,11.5277778 L9.02777777,10.4166667 L7.36111111,10.4166667 C7.36111111,10.4166667 7.08333334,10.2027778 7.08333334,9.99166666 C7.08333334,9.78055555 7.36111111,9.58333332 7.36111111,9.58333334 L8.47222223,9.58333334 L7.91666666,8.19444445 C7.91666666,8.19444445 7.81944443,7.74444445 8.03611111,7.61666666 C8.25277779,7.48888887 8.75,7.63888889 8.75,7.63888889 L9.46388889,9.32777777 L10.4166667,7.91666666 C10.4166667,7.91666666 10.7527778,7.53611111 10.9388889,7.63888889 C11.125,7.74166666 11.2527778,8.19444443 11.2527778,8.19444445 L10.4194445,9.58333334 L11.5305555,9.58333334 L11.8083333,10.1388889 L11.5305555,10.4166667 L9.86388889,10.4166667 L9.86388889,11.5277778 L11.5277778,11.5277778 Z M15.7305555,4.86111111 L4.26944445,4.86111111 C3.67490068,4.89165339 3.20533357,5.37699407 3.19444445,5.97222223 L3.19444445,7.44166666 C3.23116353,8.0280414 3.71803337,8.48448189 4.30555555,8.4833355 L4.58333334,8.4833355 L4.58333334,7.65 L4.30555555,7.65 L4.30555555,5.70555555 L15.6944445,5.70555555 L15.6944445,7.65 L15.4166667,7.65 L15.4166667,8.4833355 L15.6944445,8.4833355 C16.2687424,8.45226685 16.7375407,8.01276848 16.8055555,7.44166666 L16.8055555,5.96388889 C16.8055555,5.55555555 16.6666667,4.86111111 15.7305555,4.86111111 L15.7305555,4.86111111 Z" id="形状" fill="#409EFF"></path>
                </g>
            </g>
        </g>
    </g>
</svg>