<?xml version="1.0" encoding="UTF-8"?>
<svg width="12px" height="11px" viewBox="0 0 12 11" version="1.1" xmlns="http://www.w3.org/2000/svg" xmlns:xlink="http://www.w3.org/1999/xlink">
    <!-- Generator: Sketch 61.2 (89653) - https://sketch.com -->
    <title>形状@2x</title>
    <desc>Created with Sketch.</desc>
    <g id="针线互联用户端" stroke="none" stroke-width="1" fill="none" fill-rule="evenodd">
        <g id="工作台" transform="translate(-1173.000000, -60.000000)" fill="#909399" fill-rule="nonzero">
            <g id="编组-4" transform="translate(1162.000000, 50.000000)">
                <g id="编组" transform="translate(11.000000, 10.000000)">
                    <path d="M9.25649189,7.18575232 C10.4465666,4.91334761 9.68611033,2.10778892 7.51136276,0.74743084 C5.33661519,-0.612927235 2.4811201,-0.0692350459 0.95844501,1.99511998 C-0.564230082,4.059475 -0.240485901,6.94818458 1.70138763,8.62425985 C3.64326116,10.3003351 6.54826885,10.1984348 8.36792912,8.39041445 L11.0634851,10.4935952 L11.9844045,9.31631178 L9.25649189,7.18575232 Z M4.91323692,8.32321222 C3.53507156,8.32321222 2.29260923,7.49302543 1.76520818,6.21976666 C1.23780713,4.94650789 1.52932996,3.48092365 2.50384004,2.50641357 C3.47835011,1.5319035 4.94393435,1.24038067 6.21719312,1.76778173 C7.49045189,2.29518278 8.32063867,3.53764511 8.32063867,4.91581047 C8.31926596,6.79709761 6.79452405,8.32183951 4.91323692,8.32321222 Z" id="形状"></path>
                </g>
            </g>
        </g>
    </g>
</svg>