<?xml version="1.0" encoding="UTF-8"?>
<svg width="40px" height="40px" viewBox="0 0 40 40" version="1.1" xmlns="http://www.w3.org/2000/svg" xmlns:xlink="http://www.w3.org/1999/xlink">
    <!-- Generator: Sketch 61.2 (89653) - https://sketch.com -->
    <title>椭圆形备份 25@2x</title>
    <desc>Created with Sketch.</desc>
    <g id="针线互联用户端" stroke="none" stroke-width="1" fill="none" fill-rule="evenodd">
        <g id="工作台" transform="translate(-114.000000, -760.000000)">
            <g id="编组-23" transform="translate(114.000000, 760.000000)">
                <circle id="椭圆形备份-25" fill="#2CD18A" cx="20" cy="20" r="20"></circle>
                <g id="编组" transform="translate(10.000000, 10.000000)" fill="#FFFFFF" fill-rule="nonzero">
                    <path d="M14.0334395,12.7133754 C13.7313566,12.7130913 13.4520688,12.8739878 13.300781,13.135457 C13.1494933,13.3969262 13.1491898,13.7192447 13.2999849,13.9809984 C13.45078,14.242752 13.7297643,14.4041742 14.0318471,14.4044586 C14.4988268,14.4044586 14.8773885,14.0258968 14.8773885,13.5589172 C14.8773885,13.0919376 14.4988268,12.7133754 14.0318471,12.7133754 L14.0334395,12.7133754 Z M19.1082803,1.3933121 L13.8328025,1.3933121 C13.8319272,0.624791272 13.2096021,0.00175411644 12.4410828,3.53574212e-16 L10.4506369,3.53574212e-16 C9.68087391,3.53574212e-16 9.05661121,0.623549569 9.05573248,1.3933121 L3.78343949,1.3933121 C3.34372233,1.3933121 2.98726115,1.74977329 2.98726115,2.18949045 L2.98726115,7.1656051 L0.796178344,7.1656051 C0.356461186,7.1656051 0,7.52206628 0,7.96178344 L0,19.1082803 C0,19.5479974 0.356461186,19.9044586 0.796178344,19.9044586 L9.15605096,19.9044586 C9.59576811,19.9044586 9.9522293,19.5479974 9.9522293,19.1082803 L9.9522293,18.7101911 L19.1082803,18.7101911 C19.5479974,18.7101911 19.9044586,18.3537299 19.9044586,17.9140127 L19.9044586,2.18949045 C19.9044586,1.74977329 19.5479974,1.3933121 19.1082803,1.3933121 Z M8.35987261,18.3121019 L1.59235669,18.3121019 L1.59235669,12.5398089 L8.35987261,12.5398089 L8.35987261,18.3121019 Z M8.35987261,10.9474522 L1.59235669,10.9474522 L1.59235669,8.75796178 L8.35987261,8.75796178 L8.35987261,10.9474522 Z M8.85828025,4.17993631 L8.85828025,2.98566879 L10.6496815,2.98566879 L10.6496815,1.59235669 L12.2420382,1.59235669 L12.2420382,2.98566879 L14.0318471,2.98566879 L14.0318471,4.17993631 L8.8566879,4.17993631 L8.85828025,4.17993631 Z M13.3343949,8.35987261 L13.3343949,9.75318471 C13.3343984,9.86249514 13.2462496,9.95135482 13.1369427,9.9522293 L11.9426752,9.9522293 C11.8327459,9.9522293 11.7436306,9.863114 11.7436306,9.75318471 L11.7436306,8.35987261 C11.7436306,8.25 11.8328025,8.16082803 11.9426752,8.16082803 L13.1369427,8.16082803 C13.2468153,8.16082803 13.3359873,8.25 13.3359873,8.35987261 L13.3343949,8.35987261 Z M14.0318471,15.8487261 C13.1996672,15.870677 12.4211327,15.4392581 11.9985767,14.7220052 C11.5760208,14.0047522 11.5760208,13.1146746 11.9985767,12.3974216 C12.4211327,11.6801686 13.1996672,11.2487498 14.0318471,11.2707006 C15.272524,11.3034266 16.2612776,12.3186049 16.2612776,13.5597134 C16.2612776,14.8008218 15.272524,15.8160001 14.0318471,15.8487261 L14.0318471,15.8487261 Z M16.3216561,9.75318471 C16.3216561,9.863114 16.2325408,9.9522293 16.1226115,9.9522293 L14.9283439,9.9522293 C14.8184147,9.9522293 14.7292994,9.863114 14.7292994,9.75318471 L14.7292994,7.36464968 C14.7292994,7.25477707 14.8184713,7.1656051 14.9283439,7.1656051 L16.1226115,7.1656051 C16.2324841,7.1656051 16.3216561,7.25477707 16.3216561,7.36464968 L16.3216561,9.75318471 Z" id="形状"></path>
                    <path d="M14.0318471,14.406051 C13.5648675,14.406051 13.1863057,14.0274892 13.1863057,13.5605096 C13.1863057,13.0935299 13.5648675,12.7149682 14.0318471,12.7149682 C14.4988268,12.7149682 14.8773885,13.0935299 14.8773885,13.5605096 C14.8773885,14.0274892 14.4988268,14.406051 14.0318471,14.406051 Z" id="路径"></path>
                </g>
            </g>
        </g>
    </g>
</svg>