<?xml version="1.0" encoding="UTF-8"?>
<svg width="40px" height="40px" viewBox="0 0 40 40" version="1.1" xmlns="http://www.w3.org/2000/svg" xmlns:xlink="http://www.w3.org/1999/xlink">
    <!-- Generator: Sketch 61.2 (89653) - https://sketch.com -->
    <title>椭圆形备份 16@2x</title>
    <desc>Created with Sketch.</desc>
    <g id="针线互联用户端" stroke="none" stroke-width="1" fill="none" fill-rule="evenodd">
        <g id="工作台" transform="translate(-554.000000, -568.000000)">
            <g id="编组-28" transform="translate(554.000000, 568.000000)">
                <circle id="椭圆形备份-16" fill="#7E3BF3" cx="20" cy="20" r="20"></circle>
                <path d="M30.9970241,20.8536247 L30.9970241,25.2657951 C30.9989549,25.5157074 30.9330034,25.761407 30.8062839,25.9763896 C30.6831746,26.1912304 30.5000969,26.3650239 30.2797335,26.4762375 L25.7530119,28.8511902 C25.5772605,28.9520357 25.3777303,29.0033709 25.1754183,28.9997936 C24.9739198,29.0036916 24.7751709,28.9523185 24.6005112,28.8511902 L20.0711031,26.4735356 L20.0012546,26.4357093 C19.9789462,26.4523566 19.954559,26.4659827 19.9287195,26.4762375 L15.3993114,28.8511902 C15.2235099,28.9519112 15.0240143,29.0032375 14.8217178,28.9997936 C14.6202509,29.0034198 14.421573,28.9520651 14.2468108,28.8511902 L9.71740261,26.4735356 C9.49768997,26.3639029 9.31465878,26.192032 9.19085219,25.9790915 C9.0637866,25.7632681 8.99782732,25.5166053 9.0000546,25.2657951 L9.0000546,20.8563266 C8.99906749,20.3203331 9.30715638,19.8323645 9.78993761,19.6053561 L14.1742757,17.6329835 L14.1742757,13.3910316 C14.1745576,12.8554253 14.4822327,12.3681121 14.9641014,12.140061 L19.4935095,10.1055452 C19.6532159,10.0339876 19.8264291,9.99804033 20.0012546,10.0000824 C20.1812488,10.0000824 20.3504972,10.0352964 20.5063131,10.1055452 L25.0330348,12.140061 C25.5139991,12.3691428 25.8212664,12.8558102 25.8228604,13.3910316 L25.8228604,17.6329835 L30.209885,19.6053561 C30.697357,19.8269637 31.0076103,20.3183604 30.999858,20.8563266 L30.9970241,20.8536247 Z M25.8228604,27.3057147 L29.7048264,25.2711989 L29.7048264,21.9397806 L25.8228604,23.6770896 L25.8228604,27.3030128 L25.8228604,27.3057147 Z M25.1727318,22.4909641 L29.256184,20.6536856 L25.1727318,18.8191089 L21.0892796,20.6563875 L25.1727318,22.4909641 Z M20.6460102,19.3838019 L24.5252897,17.6329835 L24.5252897,14.8122206 L20.6460102,16.5522314 L20.6460102,19.3811 L20.6460102,19.3838019 Z M19.9985681,15.3634041 L24.4581277,13.358609 L19.9985681,11.3538139 L15.5390084,13.358609 L19.9985681,15.3634041 Z M15.4664734,27.3057147 L19.351126,25.268497 L19.351126,21.9397806 L15.4664734,23.6770896 L15.4664734,27.3030128 L15.4664734,27.3057147 Z M14.8217178,22.4909641 L18.90517,20.6536856 L14.8217178,18.8191089 L10.7382657,20.6563875 L14.8217178,22.4909641 Z" id="形状" fill="#FFFFFF" fill-rule="nonzero"></path>
            </g>
        </g>
    </g>
</svg>