<?xml version="1.0" encoding="UTF-8"?>
<svg width="22px" height="22px" viewBox="0 0 22 22" version="1.1" xmlns="http://www.w3.org/2000/svg" xmlns:xlink="http://www.w3.org/1999/xlink">
    <!-- Generator: Sketch 61.2 (89653) - https://sketch.com -->
    <title>形状@2x</title>
    <desc>Created with Sketch.</desc>
    <g id="针线互联应用" stroke="none" stroke-width="1" fill="none" fill-rule="evenodd">
        <g id="订单管理_删除" transform="translate(-527.000000, -455.000000)" fill="#FF5A5A" fill-rule="nonzero">
            <g id="编组-4" transform="translate(509.000000, 400.000000)">
                <g id="编组" transform="translate(18.000000, 55.000000)">
                    <path d="M11,0 C17.0752078,0 22,4.92479222 22,11 C22,17.0752078 17.0752078,22 11,22 C4.92479222,22 0,17.0752078 0,11 C0,4.92479222 4.92479222,0 11,0 Z M11,14.767944 C10.0800141,14.767944 9.33414456,15.5135969 9.33414456,16.4337994 C9.33414456,17.3537853 10.0800141,18.0996548 11,18.0996548 C11.9199859,18.0996548 12.6658554,17.3537853 12.6658554,16.4337994 C12.6658554,15.5135969 11.9199859,14.767944 11,14.767944 Z M10.9520904,13.4656125 C11.7445483,13.4656125 12.3868447,12.8230995 12.3868447,12.0308798 L12.3868447,5.33509952 C12.3868447,4.54264157 11.7445483,3.90034517 10.9520904,3.90034517 C10.1596541,3.90034517 9.51735769,4.54287981 9.51735769,5.33509952 L9.51735769,12.0308798 C9.51735769,12.8233161 10.1596541,13.4656125 10.9520904,13.4656125 L10.9520904,13.4656125 Z" id="形状"></path>
                </g>
            </g>
        </g>
    </g>
</svg>