<?xml version="1.0" encoding="UTF-8"?>
<svg width="40px" height="40px" viewBox="0 0 40 40" version="1.1" xmlns="http://www.w3.org/2000/svg" xmlns:xlink="http://www.w3.org/1999/xlink">
    <!-- Generator: Sketch 61.2 (89653) - https://sketch.com -->
    <title>椭圆形备份 18@2x</title>
    <desc>Created with Sketch.</desc>
    <g id="针线互联用户端" stroke="none" stroke-width="1" fill="none" fill-rule="evenodd">
        <g id="工作台" transform="translate(-994.000000, -568.000000)">
            <g id="编组-31" transform="translate(994.000000, 568.000000)">
                <circle id="椭圆形备份-18" fill="#FF5A5A" cx="20" cy="20" r="20"></circle>
                <g id="编组" transform="translate(9.000000, 9.000000)" fill="#FFFFFF" fill-rule="nonzero">
                    <path d="M20.2752976,7.56289573 L19.2632547,7.56289573 C19.2948881,7.66621311 19.3121997,7.77430439 19.3137324,7.88473238 C19.3180038,8.19101616 19.202224,8.47782741 18.9876998,8.69235167 C18.7773715,8.90267992 18.4962387,9.01848482 18.1960605,9.01848482 C17.8875405,9.01848482 17.5963071,8.89717736 17.3760039,8.67689927 L16.2620255,7.56289573 L5.85825183,7.56289573 L4.74427338,8.67689929 C4.52397017,8.89717736 4.23276189,9.01848485 3.9242168,9.01848485 C3.62403861,9.01848485 3.34290579,8.90267994 3.13257754,8.69235169 C2.91805329,8.47782743 2.8022735,8.19101616 2.80654489,7.8847324 C2.80807757,7.77432955 2.82538926,7.66623825 2.85702266,7.56289573 L1.73334565,7.56289573 C0.786303179,7.56289573 0.0185836897,8.33061524 0.0185836897,9.27765771 C0.0185836897,10.1872125 0.726855471,10.9309368 1.62188751,10.9884247 C1.82942679,12.926907 2.51754768,16.5149245 2.89581693,18.3917481 C3.25516643,20.1747266 4.44258765,21.6796629 6.35064257,21.6796629 L15.6493072,21.6796629 C17.5573621,21.6796629 18.7596578,20.1774402 19.1041329,18.3917481 C19.4651407,16.5203768 20.1695431,12.9279622 20.3779618,10.9891031 C21.2771647,10.9359619 21.9900345,10.1902024 21.9900345,9.27768283 C21.9900345,8.33061522 21.2223401,7.56289573 20.2752976,7.56289573 Z M7.4792191,18.20941 C7.4792191,18.8234097 6.98147656,19.3211773 6.36745173,19.3211773 C5.75342689,19.3211773 5.25568435,18.8234348 5.25568435,18.20941 L5.25568435,12.1041619 C5.25568435,11.4901622 5.75342689,10.9923945 6.36745173,10.9923945 C6.98147656,10.9923945 7.4792191,11.4901371 7.4792191,12.1041619 L7.4792191,18.20941 Z M12.1147071,18.1717464 C12.1147071,18.7857461 11.6169645,19.2835137 11.0029397,19.2835137 C10.3889149,19.2835137 9.89117233,18.7857712 9.89117233,18.1717464 L9.89117233,12.0664732 C9.89117233,11.5518461 10.2409238,11.1190789 10.7156259,10.9923945 L11.2902283,10.9923945 C11.7649305,11.1190538 12.1146819,11.5518461 12.1146819,12.0664732 L12.114682,18.1717464 L12.1147071,18.1717464 Z M16.90095,18.1717464 C16.90095,18.7857461 16.4032075,19.2835137 15.7891827,19.2835137 C15.1751578,19.2835137 14.6774153,18.7857712 14.6774153,18.1717464 L14.6774153,12.0664732 C14.6774153,11.5518461 15.0271667,11.1190789 15.5018689,10.9923945 L16.0764713,10.9923945 C16.5511734,11.1190538 16.9009249,11.5518461 16.9009249,12.0664732 L16.9009249,18.1717464 L16.90095,18.1717464 Z" id="形状"></path>
                    <path d="M18.7483763,7.34048197 L11.6510101,0.243140808 C11.6477186,0.239849328 11.6442763,0.236783987 11.6409346,0.233567862 C11.6378944,0.230401998 11.6350049,0.227160779 11.6318893,0.224045176 C11.3301784,-0.0776656964 10.8339686,-0.0706304598 10.5235893,0.239748806 L3.42308229,7.34023071 C3.11270302,7.65060998 3.10566779,8.14681985 3.40737866,8.4485307 C3.70908953,8.75024157 4.20529939,8.74320634 4.51567865,8.43282707 L11.0856037,1.86290205 L17.6557799,8.43307833 C17.9660336,8.74333198 18.4621178,8.75024157 18.7638287,8.4485307 C19.0655396,8.14681983 19.05863,7.65073562 18.7483763,7.34048197 Z M11.0837444,1.49254742 C10.7715309,1.49254742 10.5184134,1.23942989 10.5184134,0.927216444 C10.5184134,0.615002978 10.7715309,0.361885464 11.0837444,0.361885464 C11.3959578,0.361885464 11.6490754,0.615003002 11.6490754,0.927216444 C11.6490754,1.23945503 11.3959578,1.49254742 11.0837444,1.49254742 Z" id="形状"></path>
                </g>
            </g>
        </g>
    </g>
</svg>