<?xml version="1.0" encoding="UTF-8"?>
<svg width="14px" height="14px" viewBox="0 0 14 14" version="1.1" xmlns="http://www.w3.org/2000/svg" xmlns:xlink="http://www.w3.org/1999/xlink">
    <!-- Generator: Sketch 61.2 (89653) - https://sketch.com -->
    <title>形状@2x</title>
    <desc>Created with Sketch.</desc>
    <g id="针线互联用户端" stroke="none" stroke-width="1" fill="none" fill-rule="evenodd">
        <g id="联系人_组织架构" transform="translate(-479.000000, -174.000000)" fill="#C0C4CC" fill-rule="nonzero">
            <g id="编组备份-2" transform="translate(479.000000, 174.000000)">
                <path d="M13.461409,4.82660873 L5.08677885,4.82660873 C4.8273744,4.82660622 4.61676524,5.03628963 4.615625,5.29569157 L4.615625,6.2162537 L2.3597818,6.2162537 L2.3597818,3.96558802 L3.55837648,3.96558802 C3.72545305,3.96558826 3.86097549,3.83029748 3.86126109,3.66322115 L3.86126109,0.316993343 C3.86097549,0.149917019 3.72545305,0.0146264793 3.55837648,0.0146264793 L0.307414941,0.0146264793 C0.140540532,0.0149114917 0.00533308935,0.150118934 0.00504807692,0.316993343 L0.00504807692,3.66373891 C0.00504807692,3.83045488 0.140698964,3.96610577 0.307414941,3.96610577 L1.32376109,3.96610577 L1.32376109,11.6645525 C1.32376109,11.9508691 1.55467825,12.182304 1.84151257,12.182304 L4.61769601,12.182304 L4.61769601,13.1158099 C4.61769601,13.3746857 4.82790311,13.5848928 5.08884985,13.5848928 L13.4608913,13.5848928 C13.719767,13.5848928 13.9320451,13.3746857 13.9320451,13.1158099 L13.9320451,10.1061206 C13.9320451,9.84724482 13.7213203,9.63703772 13.4608913,9.63703772 L5.08677885,9.63703772 C4.82717314,9.63703631 4.61648084,9.84703402 4.615625,10.1066383 L4.615625,11.146801 L2.3597818,11.146801 L2.3597818,7.25175666 L4.61821376,7.25175666 L4.61821376,8.30641642 C4.61821376,8.56529216 4.82842086,8.77601701 5.0893676,8.77601701 L13.4608913,8.77601701 C13.719767,8.77601701 13.9320451,8.56529216 13.9320451,8.30641642 L13.9320451,5.29569157 C13.9303407,5.03652588 13.720062,4.82717148 13.4608913,4.82660873 L13.461409,4.82660873 Z M1.04055104,1.05168269 L2.82316938,1.05168269 L2.82316938,2.93163831 L1.04055104,2.93163831 L1.04055104,1.05168269 Z M5.65319896,10.6704697 L12.8955067,10.6704697 L12.8955067,12.5504253 L5.65319896,12.5504253 L5.65319896,10.6709874 L5.65319896,10.6704697 Z M12.8955067,7.7399963 L5.65319896,7.7399963 L5.65319896,5.86211169 L12.8955067,5.86211169 L12.8955067,7.74051405 L12.8955067,7.7399963 Z" id="形状"></path>
            </g>
        </g>
    </g>
</svg>