<?xml version="1.0" encoding="UTF-8"?>
<svg width="40px" height="40px" viewBox="0 0 40 40" version="1.1" xmlns="http://www.w3.org/2000/svg" xmlns:xlink="http://www.w3.org/1999/xlink">
    <!-- Generator: Sketch 61.2 (89653) - https://sketch.com -->
    <title>椭圆形备份 26@2x</title>
    <desc>Created with Sketch.</desc>
    <g id="针线互联用户端" stroke="none" stroke-width="1" fill="none" fill-rule="evenodd">
        <g id="工作台" transform="translate(-774.000000, -760.000000)">
            <g id="编组-30" transform="translate(774.000000, 760.000000)">
                <circle id="椭圆形备份-26" fill="#FF8802" cx="20" cy="20" r="20"></circle>
                <g id="编组" transform="translate(11.000000, 10.000000)" fill="#FFFFFF" fill-rule="nonzero">
                    <path d="M12.7558745,5.05750025 L12.7558745,3.52550352 C12.7558745,3.41504657 12.6663315,3.32550352 12.5558745,3.32550352 L11.0238778,3.32550352 C10.9134209,3.32550352 10.8238778,3.41504657 10.8238778,3.52550352 C10.8238778,3.57854682 10.8449492,3.6294176 10.8824564,3.66692488 L11.2569819,4.04145038 L11.2569819,4.04145038 L8.87990552,6.41852678 L6.5028291,4.04145038 C6.28660549,3.82529206 5.93610699,3.82529206 5.71988338,4.04145038 L2.39762423,7.36370951 C2.18778305,7.58097348 2.19078382,7.92632601 2.40436864,8.13991084 C2.61795347,8.35349566 2.963306,8.35649643 3.18056997,8.14665525 L6.11135624,5.21586898 L8.48843266,7.59294538 C8.70465628,7.8091037 9.05515477,7.8091037 9.27137838,7.59294538 L12.0399277,4.82439612 L12.4144532,5.19892161 C12.492558,5.27702647 12.619191,5.27702647 12.6972959,5.19892161 C12.7348032,5.16141433 12.7558745,5.11054355 12.7558745,5.05750025 Z M2.02054783,0.00324439044 L13.588577,0.00324439044 C14.1190099,0.00324439044 14.6277178,0.213958071 15.0027905,0.589030828 L17.1534768,2.73971708 C17.5285495,3.11478984 17.7392632,3.62349767 17.7392632,4.15393064 L17.7392632,17.9367992 C17.7392632,19.0413687 16.8438327,19.9367992 15.7392632,19.9367992 L2.02054783,19.9367992 C0.915978329,19.9367992 0.0205478289,19.0413687 0.0205478289,17.9367992 L0.0205478289,2.00324439 C0.0205478289,0.898674891 0.915978329,0.00324439044 2.02054783,0.00324439044 Z M13.8632942,1.83492818 L13.8632942,3.57921339 C13.8632942,3.74489882 13.9976088,3.87921339 14.1632942,3.87921339 L15.9075794,3.87921339 C16.0732649,3.87921339 16.2075794,3.74489882 16.2075794,3.57921339 C16.2075794,3.49964844 16.1759724,3.42334227 16.1197115,3.36708136 L14.3754263,1.62279614 C14.258269,1.50563885 14.0683195,1.50563885 13.9511622,1.62279614 C13.8949013,1.67905706 13.8632942,1.75536323 13.8632942,1.83492818 Z M2.78909711,13.2922809 C2.4832916,13.2922809 2.23538725,13.5401853 2.23538725,13.8459908 C2.23538725,14.1517963 2.4832916,14.3997006 2.78909711,14.3997006 L14.9707139,14.3997006 C15.2765194,14.3997006 15.5244238,14.1517963 15.5244238,13.8459908 C15.5244238,13.5401853 15.2765194,13.2922809 14.9707139,13.2922809 L2.78909711,13.2922809 Z M2.78909711,10.5237316 C2.4832916,10.5237316 2.23538725,10.771636 2.23538725,11.0774415 C2.23538725,11.383247 2.4832916,11.6311514 2.78909711,11.6311514 L14.9707139,11.6311514 C15.2765194,11.6311514 15.5244238,11.383247 15.5244238,11.0774415 C15.5244238,10.771636 15.2765194,10.5237316 14.9707139,10.5237316 L2.78909711,10.5237316 Z M2.78909711,16.0608302 C2.4832916,16.0608302 2.23538725,16.3087346 2.23538725,16.6145401 C2.23538725,16.9203456 2.4832916,17.1682499 2.78909711,17.1682499 L14.9707139,17.1682499 C15.2765194,17.1682499 15.5244238,16.9203456 15.5244238,16.6145401 C15.5244238,16.3087346 15.2765194,16.0608302 14.9707139,16.0608302 L2.78909711,16.0608302 Z" id="形状"></path>
                </g>
            </g>
        </g>
    </g>
</svg>