<?xml version="1.0" encoding="UTF-8"?>
<svg width="20px" height="20px" viewBox="0 0 20 20" version="1.1" xmlns="http://www.w3.org/2000/svg" xmlns:xlink="http://www.w3.org/1999/xlink">
  <path d="M17.5,11 C18.8807119,11 20,12.1192881 20,13.5 L20,17.5 C20,18.8807119 18.8807119,20 17.5,20 L13.5,20 C12.1192881,20 11,18.8807119 11,17.5 L11,13.5 C11,12.1192881 12.1192881,11 13.5,11 L17.5,11 Z M6.5,11 C7.88071187,11 9,12.1192881 9,13.5 L9,17.5 C9,18.8807119 7.88071187,20 6.5,20 L2.5,20 C1.11928813,20 1.69088438e-16,18.8807119 0,17.5 L0,13.5 C-1.69088438e-16,12.1192881 1.11928813,11 2.5,11 L6.5,11 Z M17.5,0 C18.8807119,-2.53632657e-16 20,1.11928813 20,2.5 L20,6.5 C20,7.88071187 18.8807119,9 17.5,9 L13.5,9 C12.1192881,9 11,7.88071187 11,6.5 L11,2.5 C11,1.11928813 12.1192881,2.53632657e-16 13.5,0 L17.5,0 Z M4.5,0 C6.98528137,0 9,2.01471863 9,4.5 C9,6.98528137 6.98528137,9 4.5,9 C2.01471863,9 0,6.98528137 0,4.5 C0,2.01471863 2.01471863,0 4.5,0 Z M4.5,2 C3.11928813,2 2,3.11928813 2,4.5 C2,5.88071187 3.11928813,7 4.5,7 C5.88071187,7 7,5.88071187 7,4.5 C7,3.11928813 5.88071187,2 4.5,2 Z" id="形状结合"></path>
</svg>
