<?xml version="1.0" encoding="UTF-8"?>
<svg width="440px" height="280px" viewBox="0 0 440 280" version="1.1" xmlns="http://www.w3.org/2000/svg" xmlns:xlink="http://www.w3.org/1999/xlink">
    <!-- Generator: Sketch 61.2 (89653) - https://sketch.com -->
    <title>编组 38@2x</title>
    <desc>Created with Sketch.</desc>
    <defs>
        <rect id="path-1" x="0" y="0" width="80.3" height="102.3" rx="6.6"></rect>
        <filter x="-23.0%" y="-14.2%" width="146.1%" height="136.2%" filterUnits="objectBoundingBox" id="filter-2">
            <feOffset dx="0" dy="4" in="SourceAlpha" result="shadowOffsetOuter1"></feOffset>
            <feGaussianBlur stdDeviation="5.5" in="shadowOffsetOuter1" result="shadowBlurOuter1"></feGaussianBlur>
            <feColorMatrix values="0 0 0 0 0   0 0 0 0 0   0 0 0 0 0  0 0 0 0.1 0" type="matrix" in="shadowBlurOuter1"></feColorMatrix>
        </filter>
        <linearGradient x1="100%" y1="50%" x2="0%" y2="50%" id="linearGradient-3">
            <stop stop-color="#3D7EFF" offset="0%"></stop>
            <stop stop-color="#409EFF" offset="100%"></stop>
        </linearGradient>
        <circle id="path-4" cx="22.55" cy="22.55" r="22.55"></circle>
        <linearGradient x1="100%" y1="50%" x2="0%" y2="50%" id="linearGradient-6">
            <stop stop-color="#D1EDFD" offset="0%"></stop>
            <stop stop-color="#F3FCFF" offset="100%"></stop>
        </linearGradient>
        <rect id="path-7" x="0" y="0" width="80.3" height="89.1" rx="6.6"></rect>
        <filter x="-23.0%" y="-16.3%" width="146.1%" height="141.5%" filterUnits="objectBoundingBox" id="filter-8">
            <feOffset dx="0" dy="4" in="SourceAlpha" result="shadowOffsetOuter1"></feOffset>
            <feGaussianBlur stdDeviation="5.5" in="shadowOffsetOuter1" result="shadowBlurOuter1"></feGaussianBlur>
            <feColorMatrix values="0 0 0 0 0   0 0 0 0 0   0 0 0 0 0  0 0 0 0.1 0" type="matrix" in="shadowBlurOuter1"></feColorMatrix>
        </filter>
        <linearGradient x1="100%" y1="50%" x2="0%" y2="50%" id="linearGradient-9">
            <stop stop-color="#FCBE6F" offset="0%"></stop>
            <stop stop-color="#FDED88" offset="100%"></stop>
        </linearGradient>
        <circle id="path-10" cx="22.55" cy="22.55" r="22.55"></circle>
        <linearGradient x1="100%" y1="50%" x2="0%" y2="50%" id="linearGradient-12">
            <stop stop-color="#D1EDFD" offset="0%"></stop>
            <stop stop-color="#F3FCFF" offset="100%"></stop>
        </linearGradient>
        <linearGradient x1="50%" y1="100%" x2="50%" y2="3.061617e-15%" id="linearGradient-13">
            <stop stop-color="#409EFF" offset="0%"></stop>
            <stop stop-color="#3D7EFF" offset="100%"></stop>
        </linearGradient>
        <linearGradient x1="100%" y1="50%" x2="0%" y2="50%" id="linearGradient-14">
            <stop stop-color="#D1EDFD" offset="0%"></stop>
            <stop stop-color="#F3FCFF" offset="100%"></stop>
        </linearGradient>
        <circle id="path-15" cx="17.9164384" cy="17.9164384" r="17.9164384"></circle>
        <linearGradient x1="100%" y1="50%" x2="0%" y2="50%" id="linearGradient-17">
            <stop stop-color="#3D7EFF" offset="0%"></stop>
            <stop stop-color="#409EFF" offset="100%"></stop>
        </linearGradient>
        <linearGradient x1="62.09953%" y1="40.4213252%" x2="37.90047%" y2="0%" id="linearGradient-18">
            <stop stop-color="#84B4C5" offset="0%"></stop>
            <stop stop-color="#DBF7FF" offset="100%"></stop>
        </linearGradient>
        <linearGradient x1="50%" y1="100%" x2="50%" y2="3.061617e-15%" id="linearGradient-19">
            <stop stop-color="#FDED88" offset="0%"></stop>
            <stop stop-color="#FCBE6F" offset="100%"></stop>
        </linearGradient>
        <circle id="path-20" cx="14.1159817" cy="14.1159817" r="14.1159817"></circle>
        <linearGradient x1="100%" y1="50%" x2="0%" y2="50%" id="linearGradient-22">
            <stop stop-color="#FCBE6F" offset="0%"></stop>
            <stop stop-color="#FDED88" offset="100%"></stop>
        </linearGradient>
        <linearGradient x1="84.3169573%" y1="34.7788308%" x2="4.30944291%" y2="75.6235553%" id="linearGradient-23">
            <stop stop-color="#84B4C5" offset="0%"></stop>
            <stop stop-color="#DBF7FF" offset="100%"></stop>
        </linearGradient>
    </defs>
    <g id="针线互联用户端" stroke="none" stroke-width="1" fill="none" fill-rule="evenodd">
        <g id="注册" transform="translate(-200.000000, -245.000000)">
            <g id="编组-39" transform="translate(200.000000, 157.000000)">
                <g id="编组-38" transform="translate(41.000000, 0.000000)">
                    <path d="M243.737343,116.350189 L331.455851,264.142584 C343.858739,285.039572 336.972911,312.034454 316.075924,324.437343 C309.279455,328.471218 301.521933,330.6 293.618508,330.6 L118.181492,330.6 C93.880963,330.6 74.181492,310.900529 74.181492,286.6 C74.181492,278.696575 76.3102744,270.939053 80.3441495,264.142584 L168.062657,116.350189 C180.465546,95.453202 207.460428,88.5673741 228.357416,100.970262 C234.690366,104.729028 239.978577,110.017239 243.737343,116.350189 Z" id="三角形" fill="#29CE90" transform="translate(205.900000, 191.600000) rotate(-22.000000) translate(-205.900000, -191.600000) "></path>
                    <g id="编组-37" transform="translate(102.500000, 101.400000)">
                        <g id="矩形">
                            <use fill="black" fill-opacity="1" filter="url(#filter-2)" xlink:href="#path-1"></use>
                            <use fill="#FFFFFF" fill-rule="evenodd" xlink:href="#path-1"></use>
                        </g>
                        <g id="椭圆形" transform="translate(17.600000, 16.500000)">
                            <mask id="mask-5" fill="white">
                                <use xlink:href="#path-4"></use>
                            </mask>
                            <use id="蒙版" fill="url(#linearGradient-3)" xlink:href="#path-4"></use>
                            <ellipse fill="url(#linearGradient-6)" mask="url(#mask-5)" cx="22.55" cy="40.7" rx="19.25" ry="8.8"></ellipse>
                        </g>
                        <path d="M36.3,45.1 L44,45.1 L44,49.5 C42.3129163,50.1091216 41.029583,50.4136824 40.15,50.4136824 C39.270417,50.4136824 37.9870837,50.1091216 36.3,49.5 L36.3,45.1 Z" id="矩形" fill="#C6A286"></path>
                        <ellipse id="椭圆形" fill="#EDD6C3" cx="40.15" cy="36.85" rx="8.25" ry="9.35"></ellipse>
                        <path d="M32.4016126,29.2388137 C33.2191054,27.5059013 36.5352345,25.8262967 42.35,24.2 C43.217294,25.4234335 43.9584134,26.3448005 44.5733581,26.964101 C45.2115052,27.6067682 46.7654301,28.7944036 47.262393,29.2388137 C48.4776966,30.3256014 48.7094316,32.005206 47.9575978,34.2776274 C47.2513301,33.4593959 44.6695268,33.0502802 40.2121879,33.0502802 C35.7548491,33.0502802 33.0429735,33.4593959 32.0765611,34.2776274 C31.4757693,32.6513307 31.5841198,30.9717261 32.4016126,29.2388137 Z" id="矩形" fill="#03154F"></path>
                        <rect id="矩形" fill="#DDDDDD" x="24.2" y="71.5" width="7.7" height="9.9"></rect>
                        <rect id="矩形备份-128" fill="#DDDDDD" x="36.3" y="71.5" width="7.7" height="9.9"></rect>
                        <rect id="矩形备份-129" fill="#DDDDDD" x="48.4" y="71.5" width="7.7" height="9.9"></rect>
                        <rect id="矩形" fill="#EEEEEE" x="24.2" y="85.8" width="31.9" height="3.3"></rect>
                    </g>
                    <g id="编组-37备份-2" transform="translate(9.000000, 249.900000)">
                        <g id="矩形">
                            <use fill="black" fill-opacity="1" filter="url(#filter-8)" xlink:href="#path-7"></use>
                            <use fill="#FFFFFF" fill-rule="evenodd" xlink:href="#path-7"></use>
                        </g>
                        <g id="椭圆形" transform="translate(17.600000, 12.100000)">
                            <mask id="mask-11" fill="white">
                                <use xlink:href="#path-10"></use>
                            </mask>
                            <use id="蒙版" fill="url(#linearGradient-9)" xlink:href="#path-10"></use>
                            <polygon id="矩形" fill="url(#linearGradient-12)" mask="url(#mask-11)" points="8.8 36.3 22.55 27.5 36.3 36.3 36.3 46.2 8.8 46.2"></polygon>
                            <path d="M22.55,29.7 C31.9,29.7 31.9,28.5547363 31.9,19.8 C31.9,11.0452637 27.7138624,6.6 22.55,6.6 C17.3861376,6.6 13.2,11.3158019 13.2,19.8 C13.2,28.2841981 13.2,29.7 22.55,29.7 Z" fill="#03154F" mask="url(#mask-11)"></path>
                            <polygon id="矩形" fill="#E6C0A1" mask="url(#mask-11)" points="18.7 27.5 26.4 27.5 26.4 31.9 22.55 35.2 18.7 31.9"></polygon>
                            <path d="M15.4,16.5 L18.7,16.5 C19.9938811,16.4037059 21.2950056,15.2555589 22.6033733,13.0555589 C23.911741,15.2555589 25.2220999,16.4037059 26.5344501,16.5 L29.7,16.5 L29.7,17.6988983 L30.7065661,17.6988983 L30.7065661,21.0144375 L29.7,21.0144375 L29.7,22 C29.7825985,24.2654694 28.6825985,26.0988028 26.4,27.5 C24.6888889,28.5191249 23.4055556,29.0286873 22.55,29.0286873 C21.6944444,29.0286873 20.4111111,28.5191249 18.7,27.5 C17.1685935,26.6922594 16.0685935,24.8589261 15.4,22 L15.4,21.0144375 L14.2671287,21.0144375 L14.2671287,17.6988983 L15.4,17.6988983 L15.4,16.5 Z" id="矩形" fill="#EDD6C3" mask="url(#mask-11)"></path>
                        </g>
                        <rect id="矩形" fill="#DDDDDD" x="24.2" y="67.1" width="7.7" height="9.9"></rect>
                        <rect id="矩形备份-128" fill="#DDDDDD" x="36.3" y="67.1" width="7.7" height="9.9"></rect>
                        <rect id="矩形备份-129" fill="#DDDDDD" x="48.4" y="67.1" width="7.7" height="9.9"></rect>
                    </g>
                    <g id="编组-37备份" transform="translate(26.600000, 152.000000)">
                        <rect id="矩形" fill="url(#linearGradient-13)" x="0" y="0.979452055" width="63.8" height="78.1" rx="5.24383562"></rect>
                        <g id="椭圆形" transform="translate(13.983562, 10.909589)">
                            <mask id="mask-16" fill="white">
                                <use xlink:href="#path-15"></use>
                            </mask>
                            <use id="蒙版" fill="url(#linearGradient-14)" xlink:href="#path-15"></use>
                            <ellipse fill="url(#linearGradient-17)" mask="url(#mask-16)" cx="17.9164384" cy="32.3369863" rx="15.2945205" ry="6.99178082"></ellipse>
                        </g>
                        <path d="M28.8410959,33.6328767 L34.9589041,33.6328767 L34.9589041,37.1287671 C33.6184815,37.6127268 32.5988468,37.8547066 31.9,37.8547066 C31.2011532,37.8547066 30.1815185,37.6127268 28.8410959,37.1287671 L28.8410959,33.6328767 Z" id="矩形" fill="#C6A286"></path>
                        <ellipse id="椭圆形" fill="#EDD6C3" cx="31.9" cy="27.0780822" rx="6.55479452" ry="7.42876712"></ellipse>
                        <path d="M25.743747,21.0308383 C26.3932618,19.6540037 29.0279946,18.3195234 33.6479452,17.0273973 C34.3370281,17.9994403 34.9258627,18.7314853 35.4144489,19.2235323 C35.9214699,19.7341446 37.1560952,20.6777453 37.5509424,21.0308383 C38.5165261,21.8943135 38.7006443,23.2287938 38.1032969,25.0342793 C37.5421527,24.3841776 35.4908569,24.0591267 31.9494096,24.0591267 C28.4079623,24.0591267 26.2533214,24.3841776 25.4854869,25.0342793 C25.0081454,23.7421531 25.0942321,22.4076728 25.743747,21.0308383 Z" id="矩形" fill="#03154F"></path>
                        <rect id="矩形" fill="#FFFFFF" opacity="0.900000036" x="19.2273973" y="54.6082192" width="6.11780822" height="7.86575342"></rect>
                        <rect id="矩形备份-128" fill="#FFFFFF" opacity="0.900000036" x="28.8410959" y="54.6082192" width="6.11780822" height="7.86575342"></rect>
                        <rect id="矩形备份-129" fill="#FFFFFF" opacity="0.900000036" x="38.4547945" y="54.6082192" width="6.11780822" height="7.86575342"></rect>
                        <rect id="矩形" fill="#FFFFFF" opacity="0.699999988" x="19.2273973" y="65.969863" width="25.3452055" height="2.62191781"></rect>
                    </g>
                    <path d="M175.935354,248.799946 L175.935354,248.799946 L175.935354,248.799946 L186.660684,248.799946 C189.209632,249.331035 190.85607,251.312367 191.6,254.743943 C192.02539,256.706168 190.484106,262.638716 190.57208,270.820316 C190.60836,274.194349 190.951,279.687577 191.6,287.3 C188.331362,288.344645 185.043763,288.958817 181.737203,289.142514 C178.430643,289.326212 175.118242,289.078707 171.8,288.4 L171.8,252.9353 C171.8,250.651407 173.651461,248.799946 175.935354,248.799946 Z" id="矩形" fill="url(#linearGradient-18)"></path>
                    <path d="M181.7,287.3 L191.6,287.3 C192.924847,297.138767 193.250508,306.62854 192.576983,315.76932 C197.256221,321.303981 199.913565,329.782086 200.549015,341.203635 C200.820432,346.082068 194.516922,350.191628 192.576983,350.481302 C191.28369,350.674418 192.425632,347.754424 196.002809,341.72132 C190.265563,329.942256 186.747344,322.344044 185.448152,318.926682 C184.148959,315.50932 182.899576,304.967093 181.7,287.3 Z" id="矩形" fill="#062170"></path>
                    <path d="M161.873388,288.15232 L171.773388,288.15232 C173.098235,297.991087 173.423896,307.48086 172.75037,316.62164 C177.429609,322.156301 180.086953,330.634406 180.722403,342.055955 C180.993819,346.934388 174.568338,351.344041 172.628399,351.633715 C171.335106,351.826831 172.517705,348.806806 176.176196,342.57364 C170.43895,330.794577 166.920731,323.196364 165.621539,319.779002 C164.322347,316.361641 163.072963,305.819413 161.873388,288.15232 Z" id="矩形备份-130" fill="#0A1751" transform="translate(171.302068, 319.897370) rotate(18.000000) translate(-171.302068, -319.897370) "></path>
                    <path d="M176.75,235.6 C178.328663,235.6 179.685406,236.957363 180.279553,238.899696 L183.9,238.9 L183.9,248.8 L177.3,248.8 L177.300527,246.544194 C177.120728,246.580971 176.93692,246.6 176.75,246.6 C174.623704,246.6 172.9,244.137566 172.9,241.1 C172.9,238.062434 174.623704,235.6 176.75,235.6 Z" id="形状结合" fill="#DEB598"></path>
                    <path d="M175.65,237.8 C176.353181,237.8 178.067195,238.980764 180.222939,238.9 C187.1331,246.6 191.802473,236.804295 190.349977,234.961209 C187.440198,231.268962 179.420009,231.017974 179.273234,230.435863 C178.73867,228.315783 177.318246,226.8 175.65,226.8 C173.523704,226.8 171.8,229.262434 171.8,232.3 C171.8,235.337566 173.523704,237.8 175.65,237.8 Z" id="椭圆形" fill="#06216C"></path>
                    <g id="编组-37备份-3" transform="translate(144.395106, 264.169098) rotate(-18.000000) translate(-144.395106, -264.169098) translate(112.395106, 225.669098)">
                        <rect id="矩形" fill="url(#linearGradient-19)" x="-3.90798505e-15" y="0" width="63.8" height="77" rx="5.24383562"></rect>
                        <g id="椭圆形" transform="translate(17.377228, 15.016271)">
                            <mask id="mask-21" fill="white">
                                <use xlink:href="#path-20"></use>
                            </mask>
                            <use id="蒙版" fill="url(#linearGradient-14)" xlink:href="#path-20"></use>
                            <polygon id="矩形" fill="url(#linearGradient-22)" mask="url(#mask-21)" points="5.5086758 22.7232877 14.1159817 17.2146119 22.7232877 22.7232877 22.7232877 28.9205479 5.5086758 28.9205479"></polygon>
                            <path d="M14.1159817,18.5917808 C19.9689498,18.5917808 19.9689498,17.8748619 19.9689498,12.3945205 C19.9689498,6.9141792 17.3484867,4.13150685 14.1159817,4.13150685 C10.8834767,4.13150685 8.2630137,7.08353227 8.2630137,12.3945205 C8.2630137,17.7055088 8.2630137,18.5917808 14.1159817,18.5917808 Z" fill="#03154F" mask="url(#mask-21)"></path>
                            <polygon id="矩形" fill="#E6C0A1" mask="url(#mask-21)" points="11.7059361 17.2146119 16.5260274 17.2146119 16.5260274 19.9689498 14.1159817 22.0347032 11.7059361 19.9689498"></polygon>
                            <path d="M9.64018265,10.3287671 L11.7059361,10.3287671 C12.5158874,10.2684884 13.3303729,9.54976456 14.1493927,8.17259561 C14.9684124,9.54976456 15.7886786,10.2684884 16.6101912,10.3287671 L18.5917808,10.3287671 L18.5917808,11.0792605 L19.221877,11.0792605 L19.221877,13.1547413 L18.5917808,13.1547413 L18.5917808,13.7716895 C18.6434863,15.1898414 17.9549018,16.3374822 16.5260274,17.2146119 C15.454896,17.8525697 14.6515474,18.1715486 14.1159817,18.1715486 C13.580416,18.1715486 12.7770675,17.8525697 11.7059361,17.2146119 C10.7472972,16.7089777 10.0587127,15.5613369 9.64018265,13.7716895 L9.64018265,13.1547413 L8.93102118,13.1547413 L8.93102118,11.0792605 L9.64018265,11.0792605 L9.64018265,10.3287671 Z" id="矩形" fill="#EDD6C3" mask="url(#mask-21)"></path>
                        </g>
                        <rect id="矩形" fill="#FFFFFF" x="19.2273973" y="53.3123288" width="6.11780822" height="7.86575342"></rect>
                        <rect id="矩形备份-128" fill="#FFFFFF" x="28.8410959" y="53.3123288" width="6.11780822" height="7.86575342"></rect>
                        <rect id="矩形备份-129" fill="#FFFFFF" x="38.4547945" y="53.3123288" width="6.11780822" height="7.86575342"></rect>
                    </g>
                    <path d="M156.4,273.53322 C164.574036,270.511458 170.074036,268.615502 172.9,267.845353 C174.610046,265.139549 177.791643,260.273029 182.444791,253.245794 C183.556415,251.567058 185.760701,251.006207 187.539457,251.949546 C189.212842,252.837002 189.849962,254.912974 188.962506,256.586358 C188.940073,256.628657 188.916757,256.670482 188.892545,256.711788 C184.677849,263.913362 180.813668,269.520506 177.3,273.53322 C174.791045,274.28907 167.824378,275.175309 156.4,276.191939 L156.4,273.53322 Z" id="矩形" fill="url(#linearGradient-23)"></path>
                    <path d="M146.515044,277.53154 C150.819089,276.715571 152.971111,275.620622 152.971111,274.246692 C153.812286,273.95468 154.955249,273.905782 156.4,274.1 C157.393531,275.111204 157.393531,275.844538 156.4,276.3 C154.098545,277.355051 150.80356,278.132231 146.515044,278.63154 L146.515044,277.53154 Z" id="矩形" fill="#E1B18E"></path>
                </g>
            </g>
        </g>
    </g>
</svg>