<?xml version="1.0" encoding="UTF-8"?>
<svg width="440px" height="280px" viewBox="0 0 440 280" version="1.1" xmlns="http://www.w3.org/2000/svg" xmlns:xlink="http://www.w3.org/1999/xlink">
    <!-- Generator: Sketch 61.2 (89653) - https://sketch.com -->
    <title>编组 35@2x</title>
    <desc>Created with Sketch.</desc>
    <defs>
        <linearGradient x1="50%" y1="0%" x2="50%" y2="100%" id="linearGradient-1">
            <stop stop-color="#409EFF" offset="0%"></stop>
            <stop stop-color="#3D7EFF" offset="100%"></stop>
        </linearGradient>
        <linearGradient x1="100%" y1="50%" x2="0%" y2="50%" id="linearGradient-2">
            <stop stop-color="#2CD47D" offset="0%"></stop>
            <stop stop-color="#1FBE9A" offset="100%"></stop>
        </linearGradient>
        <linearGradient x1="62.9235226%" y1="11.6112212%" x2="41.6008281%" y2="87.1415123%" id="linearGradient-3">
            <stop stop-color="#FCB85C" offset="0%"></stop>
            <stop stop-color="#FDE06D" offset="100%"></stop>
        </linearGradient>
        <polygon id="path-4" points="9.49327181 1.21715971e-12 22.5505841 5.25757278 25.5805935 12.846422 18.0949275 32.0439579 2.0250468e-13 24.3226277"></polygon>
        <polygon id="path-6" points="22.5505841 5.25757278 25.5805935 12.846422 20.1481943 10.5852031"></polygon>
        <filter x="-64.4%" y="-32.9%" width="228.9%" height="192.2%" filterUnits="objectBoundingBox" id="filter-7">
            <feOffset dx="0" dy="1" in="SourceAlpha" result="shadowOffsetOuter1"></feOffset>
            <feGaussianBlur stdDeviation="1" in="shadowOffsetOuter1" result="shadowBlurOuter1"></feGaussianBlur>
            <feColorMatrix values="0 0 0 0 1   0 0 0 0 0.462228468   0 0 0 0 0.0781059451  0 0 0 1 0" type="matrix" in="shadowBlurOuter1"></feColorMatrix>
        </filter>
        <linearGradient x1="32.7096567%" y1="33.7751588%" x2="73.7510171%" y2="59.0891984%" id="linearGradient-8">
            <stop stop-color="#F8FDFF" offset="0%"></stop>
            <stop stop-color="#DBF4FD" offset="100%"></stop>
        </linearGradient>
        <polygon id="path-9" points="12.3412534 1.58230762e-12 29.3157593 6.83484462 33.2547716 16.7003486 23.5234058 41.6571453 2.63256084e-13 31.619416"></polygon>
        <polygon id="path-11" points="29.3157593 6.83484462 33.2547716 16.7003486 26.1926526 13.760764"></polygon>
        <filter x="-92.0%" y="-55.7%" width="284.1%" height="231.8%" filterUnits="objectBoundingBox" id="filter-12">
            <feOffset dx="0" dy="1" in="SourceAlpha" result="shadowOffsetOuter1"></feOffset>
            <feGaussianBlur stdDeviation="2" in="shadowOffsetOuter1" result="shadowBlurOuter1"></feGaussianBlur>
            <feColorMatrix values="0 0 0 0 0.644904153   0 0 0 0 0.8217884   0 0 0 0 0.875622736  0 0 0 1 0" type="matrix" in="shadowBlurOuter1"></feColorMatrix>
        </filter>
        <linearGradient x1="100%" y1="50%" x2="0%" y2="50%" id="linearGradient-13">
            <stop stop-color="#2CD47D" offset="0%"></stop>
            <stop stop-color="#1FBE9A" offset="100%"></stop>
        </linearGradient>
        <rect id="path-14" x="7.2" y="102.6" width="219.6" height="67.2" rx="3.6"></rect>
        <filter x="-10.5%" y="-28.3%" width="120.9%" height="168.5%" filterUnits="objectBoundingBox" id="filter-15">
            <feOffset dx="0" dy="4" in="SourceAlpha" result="shadowOffsetOuter1"></feOffset>
            <feGaussianBlur stdDeviation="7" in="shadowOffsetOuter1" result="shadowBlurOuter1"></feGaussianBlur>
            <feColorMatrix values="0 0 0 0 0   0 0 0 0 0   0 0 0 0 0  0 0 0 0.148737981 0" type="matrix" in="shadowBlurOuter1"></feColorMatrix>
        </filter>
        <filter x="-75.0%" y="-36.4%" width="250.0%" height="172.7%" filterUnits="objectBoundingBox" id="filter-16">
            <feOffset dx="2" dy="0" in="SourceAlpha" result="shadowOffsetOuter1"></feOffset>
            <feGaussianBlur stdDeviation="2" in="shadowOffsetOuter1" result="shadowBlurOuter1"></feGaussianBlur>
            <feColorMatrix values="0 0 0 0 0   0 0 0 0 0   0 0 0 0 0  0 0 0 0.630217439 0" type="matrix" in="shadowBlurOuter1" result="shadowMatrixOuter1"></feColorMatrix>
            <feMerge>
                <feMergeNode in="shadowMatrixOuter1"></feMergeNode>
                <feMergeNode in="SourceGraphic"></feMergeNode>
            </feMerge>
        </filter>
    </defs>
    <g id="针线互联用户端" stroke="none" stroke-width="1" fill="none" fill-rule="evenodd">
        <g id="登录" transform="translate(-200.000000, -245.000000)">
            <g id="编组-37" transform="translate(200.000000, 245.000000)">
                <g id="编组-35" transform="translate(24.000000, 11.000000)">
                    <circle id="椭圆形" fill="url(#linearGradient-1)" cx="262.8" cy="128.4" r="128.4"></circle>
                    <path d="M28.2426407,198.042641 L43.7573593,213.557359 C46.1005051,215.900505 46.1005051,219.699495 43.7573593,222.042641 L28.2426407,237.557359 C25.8994949,239.900505 22.1005051,239.900505 19.7573593,237.557359 L4.24264069,222.042641 C1.89949494,219.699495 1.89949494,215.900505 4.24264069,213.557359 L19.7573593,198.042641 C22.1005051,195.699495 25.8994949,195.699495 28.2426407,198.042641 Z" id="多边形" fill="url(#linearGradient-2)"></path>
                    <g id="编组-34" transform="translate(0.121707, 34.190926)">
                        <g id="矩形">
                            <mask id="mask-5" fill="white">
                                <use xlink:href="#path-4"></use>
                            </mask>
                            <use id="蒙版" fill="url(#linearGradient-3)" xlink:href="#path-4"></use>
                            <g mask="url(#mask-5)">
                                <use fill="black" fill-opacity="1" filter="url(#filter-7)" xlink:href="#path-6"></use>
                                <use fill="#FDDD71" fill-rule="evenodd" xlink:href="#path-6"></use>
                            </g>
                        </g>
                        <rect id="矩形" fill="#FFFFFF" transform="translate(14.379030, 14.737914) rotate(22.000000) translate(-14.379030, -14.737914) " x="8.97902962" y="14.1379142" width="10.8" height="1.2" rx="0.6"></rect>
                        <rect id="矩形备份-123" fill="#FFFFFF" transform="translate(12.700705, 17.993126) rotate(22.000000) translate(-12.700705, -17.993126) " x="7.30070482" y="17.3931259" width="10.8" height="1.2" rx="0.6"></rect>
                        <rect id="矩形备份-124" fill="#FFFFFF" transform="translate(11.324329, 21.418627) rotate(22.000000) translate(-11.324329, -21.418627) " x="5.92432869" y="20.8186271" width="10.8" height="1.2" rx="0.6"></rect>
                    </g>
                    <g id="编组-34备份" transform="translate(241.200000, 85.800000)">
                        <g id="矩形">
                            <mask id="mask-10" fill="white">
                                <use xlink:href="#path-9"></use>
                            </mask>
                            <use id="蒙版" fill="url(#linearGradient-8)" xlink:href="#path-9"></use>
                            <g mask="url(#mask-10)">
                                <use fill="black" fill-opacity="1" filter="url(#filter-12)" xlink:href="#path-11"></use>
                                <use fill="#FFFFFF" fill-rule="evenodd" xlink:href="#path-11"></use>
                            </g>
                        </g>
                        <rect id="矩形" fill="#BFD6DD" transform="translate(18.692739, 19.159288) rotate(22.000000) translate(-18.692739, -19.159288) " x="11.6727385" y="18.3792884" width="14.04" height="1.56" rx="0.78"></rect>
                        <rect id="矩形备份-123" fill="#BFD6DD" transform="translate(16.510916, 23.391064) rotate(22.000000) translate(-16.510916, -23.391064) " x="9.49091626" y="22.6110636" width="14.04" height="1.56" rx="0.78"></rect>
                        <rect id="矩形备份-124" fill="#BFD6DD" transform="translate(14.721627, 27.844215) rotate(22.000000) translate(-14.721627, -27.844215) " x="7.7016273" y="27.0642152" width="14.04" height="1.56" rx="0.78"></rect>
                    </g>
                    <path d="M40.8,57 L195.6,57 C197.588225,57 199.2,58.6117749 199.2,60.6 L199.2,102.6 L199.2,102.6 L37.2,102.6 L37.2,60.6 C37.2,58.6117749 38.8117749,57 40.8,57 Z" id="矩形备份-114" fill="#F8F8F8"></path>
                    <path d="M40.8,169.8 L195.6,169.8 C197.588225,169.8 199.2,171.411775 199.2,173.4 L199.2,221.4 L199.2,221.4 L37.2,221.4 L37.2,173.4 C37.2,171.411775 38.8117749,169.8 40.8,169.8 Z" id="矩形备份-118" fill="#F8F8F8" transform="translate(118.200000, 195.600000) scale(1, -1) translate(-118.200000, -195.600000) "></path>
                    <rect id="矩形" fill="#CFCFCF" x="224.4" y="214.2" width="40.8" height="3.6" rx="1.8"></rect>
                    <path d="M243.6,217.8 L248.4,217.8 L248.4,253.8 C248.4,255.125483 247.325483,256.2 246,256.2 C244.674517,256.2 243.6,255.125483 243.6,253.8 L243.6,217.8 L243.6,217.8 Z" id="矩形" fill="#CFCFCF"></path>
                    <path d="M235.2,217.8 L240,217.8 L229.849789,253.889638 C229.465505,255.255982 228.219356,256.2 226.8,256.2 C225.795883,256.2 224.981884,255.386002 224.981884,254.381884 C224.981884,254.215468 225.004733,254.049839 225.049789,253.889638 L235.2,217.8 L235.2,217.8 Z" id="矩形备份-126" fill="#CFCFCF"></path>
                    <path d="M260.4,217.8 L265.2,217.8 L257.312873,253.85544 C257.013432,255.224313 255.801241,256.2 254.4,256.2 C253.333123,256.2 252.468249,255.335126 252.468249,254.268249 C252.468249,254.129442 252.48321,253.99104 252.512873,253.85544 L260.4,217.8 L260.4,217.8 Z" id="矩形备份-127" fill="#CFCFCF" transform="translate(258.600000, 237.000000) scale(-1, 1) translate(-258.600000, -237.000000) "></path>
                    <path d="M237.6,210.6 L254.4,210.6 C266.512224,217.972607 272.714051,222.924167 273.005479,225.454681 C273.442621,229.250452 264.491041,244.68357 263.936818,246.584695 C263.382594,248.48582 269.689613,252.801411 267.372557,255.626453 C266.304157,256.649587 258.441995,250.598047 258.845019,247.956743 C259.248042,245.315439 262.908875,229.282202 262.908875,227.54106 C262.908875,225.799918 247.269599,217.513899 244.907614,217.513899 C242.545629,217.513899 230.92933,222.867916 231.925773,224.161299 C232.922216,225.454681 246.472696,231.930995 246.472696,233.113227 C246.472696,234.295458 244.907614,241.566793 243.31864,241.566793 C241.729666,241.566793 241.730446,234.566152 241.101024,233.659725 C240.471602,232.753298 222.182383,226.226577 222.182383,223.052358 C222.182383,220.936212 227.321588,216.785426 237.6,210.6 Z" id="矩形" fill="#081D63"></path>
                    <path d="M240,162.6 L247.2,163.8 L247.2,171 C242.3292,172.685759 239.5292,172.685759 238.8,171 C238.0708,169.314241 238.4708,166.514241 240,162.6 Z" id="矩形" fill="#E4BB96"></path>
                    <path d="M222.317167,196.153444 C229.549918,182.236503 236.243551,175.052021 242.398067,174.6 L248.387552,174.6 C253.26093,174.77193 258.101371,180.97193 262.908875,193.2 L262.908875,203.545652 C262.167925,206.92241 261.196037,210.476174 259.993212,214.206944 L257.946106,213.119903 L257.946106,197.006555 C257.030234,195.107813 255.848199,193.752997 254.4,192.942105 L254.4,210.6 C251.6,211.4 248.8,211.8 246,211.8 C243.2,211.8 240.4,211.4 237.6,210.6 L237.6,186.773225 C232.082016,190.871094 229.375399,193.41451 229.480148,194.403472 C229.676929,196.261326 236.017134,196.954674 237.105402,197.935989 C237.6,198.381979 238.104555,200.853539 237.105402,200.765786 C230.555008,200.190482 220.930113,197.935989 222.317167,196.153444 Z" id="矩形" fill="url(#linearGradient-13)"></path>
                    <path d="M241.2,171 L247.2,171 C248.191467,171.84288 248.591467,173.04288 248.4,174.6 C248.1128,176.935681 242.474673,177.822488 242.823415,175.8 C243.05591,174.451675 242.514772,172.851675 241.2,171 Z" id="矩形" fill="#E4BB96"></path>
                    <polygon id="矩形" fill="#DEF1FA" points="235.2 190.2 249.6 190.2 253.526088 207 239.126088 207"></polygon>
                    <path d="M236.791853,197.826327 C238.152214,197.924546 238.832394,198.453492 238.832394,199.413164 C238.832394,200.372835 238.245522,200.77959 237.071778,200.633427 L236.791853,197.826327 Z" id="矩形" fill="#E4BB96"></path>
                    <path d="M240.427562,154.2 C243.062236,154.528342 242.500158,156.526339 246,157.991027 C249.499842,159.455714 252.825685,159.861274 253.274199,161.80536 C253.573209,163.101417 253.573209,164.588731 253.274199,166.267303 C251.512017,171.019268 249.487284,172.596834 247.2,171 C244.845432,165.221402 242.445432,162.421402 240,162.6 C236.303859,162.869941 234.696825,153.485815 240.427562,154.2 Z" id="矩形" fill="#081D63"></path>
                    <rect id="矩形备份-116" fill="#D0D0D0" x="90" y="76.2" width="81.6" height="6" rx="3"></rect>
                    <rect id="矩形备份-117" fill="#D0D0D0" x="90" y="88.2" width="44.4" height="6" rx="3"></rect>
                    <rect id="矩形备份-122" fill="#D0D0D0" x="90" y="185.4" width="81.6" height="6" rx="3"></rect>
                    <rect id="矩形备份-121" fill="#D0D0D0" x="90" y="197.4" width="44.4" height="6" rx="3"></rect>
                    <rect id="矩形" fill="#D0D0D0" x="48" y="70.2" width="30" height="30" rx="3.6"></rect>
                    <rect id="矩形备份-119" fill="#D0D0D0" x="48" y="179.4" width="30" height="30" rx="3.6"></rect>
                    <polygon id="矩形" fill="#FFFFFF" points="57.6 85.8 60.875811 87 64.8 82.2 69.6 89.4 55.2 89.4"></polygon>
                    <circle id="椭圆形" fill="#FFFFFF" cx="58.8" cy="82.2" r="1.2"></circle>
                    <polygon id="矩形备份-120" fill="#FFFFFF" points="57.6 195 60.875811 196.2 64.8 191.4 69.6 198.6 55.2 198.6"></polygon>
                    <circle id="椭圆形备份-45" fill="#FFFFFF" cx="58.8" cy="191.4" r="1.2"></circle>
                    <g id="矩形">
                        <use fill="black" fill-opacity="1" filter="url(#filter-15)" xlink:href="#path-14"></use>
                        <use fill="#FFFFFF" fill-rule="evenodd" xlink:href="#path-14"></use>
                    </g>
                    <rect id="矩形" fill="#409EFF" x="19.2" y="118.2" width="36" height="36" rx="4.8"></rect>
                    <g id="编组" transform="translate(26.400000, 126.600000)" fill-rule="nonzero">
                        <path d="M1.14552246,3.68439258 C1.81907227,2.67178711 2.49399316,1.66010449 3.1658291,0.646365234 C3.21054785,0.578891602 3.25850977,0.556268532 3.33721582,0.556268532 C8.27468262,0.557929688 13.2121494,0.557876953 18.1496426,0.556901367 C18.2193311,0.556901367 18.2706943,0.566419922 18.3148594,0.633023438 C18.9945,1.65725684 19.6773574,2.67935449 20.3591338,3.7021377 C20.3707881,3.71964551 20.3792256,3.73928906 20.3988955,3.77628223 L1.11348633,3.77628223 C1.09268262,3.73454297 1.12772461,3.71118164 1.14552246,3.68439258 Z" id="路径" fill="#FFFFFF"></path>
                        <path d="M12.8931064,5.39512207 C12.8918145,5.45218066 12.8894414,5.50923926 12.889415,5.56627148 C12.8892305,7.9343877 12.8892568,10.3025039 12.8892568,12.6705938 C12.8892568,12.6969609 12.8893887,12.7233281 12.8892305,12.7496953 C12.8885449,12.897457 12.8881758,12.8980635 12.7600049,12.8350195 C12.551335,12.7323193 12.3430605,12.6288545 12.1346543,12.5256797 C11.7022324,12.3116045 11.2685449,12.099876 10.8383643,11.8813447 C10.7550967,11.8390518 10.6912354,11.8391309 10.6083633,11.8817666 C9.99962402,12.1945605 9.38827441,12.502292 8.77771582,12.8117637 C8.60240039,12.9005947 8.60245312,12.9007529 8.60245312,12.7101445 C8.60242676,10.3288447 8.60245312,7.94757129 8.60229492,5.56627148 C8.60229492,5.50921289 8.60042285,5.45212793 8.5994209,5.39506934 C8.62992773,5.39285449 8.6604873,5.38866211 8.69104687,5.38866211 C10.061165,5.3883457 11.4313096,5.3883457 12.8014277,5.38866211 C12.8319873,5.38871484 12.8625469,5.39288086 12.8931064,5.39512207 L12.8931064,5.39512207 Z" id="路径" fill="#FFFFFF"></path>
                        <path d="M20.9472539,18.7210459 C20.9472012,19.2967471 20.6257588,19.7310938 20.1127852,19.8526992 C20.0178105,19.8752168 19.9211221,19.8759551 19.8245918,19.8759551 C13.766335,19.8762451 7.70815723,19.8765352 1.64990039,19.875665 C1.00952051,19.8755596 0.543902344,19.4119189 0.543717773,18.7720928 C0.542425781,14.3525303 0.543164063,9.93296777 0.541977192,5.51340527 C0.541977192,5.43451465 0.543137695,5.38589355 0.649212891,5.38605176 C2.74036816,5.38924219 4.83152344,5.38847754 6.92267871,5.38884668 C6.94445801,5.38884668 6.96621094,5.3931709 6.98799023,5.39549121 C7.02785742,5.46968848 7.01277539,5.55039844 7.01280176,5.62839258 C7.01356641,8.83965234 7.01343457,12.0508594 7.01346094,15.2620928 C7.01346094,15.5217305 7.01393555,15.5225215 7.23971777,15.393876 C8.35035645,14.7610898 9.45738281,14.1220811 10.5669141,13.4873174 C10.6894424,13.4172334 10.7872119,13.417708 10.908,13.4868164 C12.0401543,14.1350273 13.1743125,14.7797578 14.3067305,15.4274941 C14.3295908,15.4405459 14.3523193,15.4539668 14.3755225,15.4664912 C14.4441035,15.5033262 14.4728174,15.4771172 14.4742939,15.4053457 C14.4752695,15.3570146 14.475085,15.3087363 14.475085,15.2603789 C14.475085,12.0535752 14.4749268,8.84671875 14.4759023,5.6398623 C14.4759814,5.55788672 14.4576035,5.47219336 14.5050117,5.39520117 C14.5531318,5.39290723 14.601252,5.38866211 14.6494248,5.38866211 C16.6967051,5.38831934 18.7438799,5.38955859 20.7911602,5.38546972 C20.9154287,5.38520801 20.9506291,5.41139063 20.9506291,5.54145996 C20.9467529,9.93465527 20.9475439,14.3278506 20.9472539,18.7210459 L20.9472539,18.7210459 Z" id="路径" fill="#FFFFFF"></path>
                        <path d="M14.5083604,15.4506973 C14.5066465,15.4332949 14.5080967,15.4155762 14.5080967,15.3979893 C14.5080967,12.1164082 14.508123,8.83482715 14.5079385,5.55319336 C14.5079385,5.50053809 14.50604,5.44785645 14.5050117,5.3951748 C13.9677012,5.39514844 13.430417,5.39504297 12.8931064,5.39504297 C12.8101289,5.45666309 12.8412158,5.54699707 12.8411631,5.62522852 C12.8393965,7.9614668 12.8398184,10.2976523 12.8395547,12.6338643 C12.8395283,12.8174062 12.8290605,12.8247627 12.6686426,12.7425498 C12.0824473,12.4420957 11.4802471,12.1739941 10.8970049,11.8678975 C10.7711279,11.8017686 10.6640244,11.8001338 10.5387803,11.8682402 C9.99477246,12.1640537 9.43702734,12.4331836 8.88381738,12.7111201 C8.64888574,12.8292187 8.64883301,12.8292187 8.64883301,12.5727979 L8.64880664,7.44809766 C8.64880664,6.82891699 8.64951855,6.20970996 8.64788379,5.59055566 C8.64769922,5.52292383 8.66589258,5.44756641 8.59936816,5.39504297 L6.9879375,5.39546484 C6.98646094,5.4305332 6.98382422,5.46560156 6.98382422,5.50066992 C6.98363965,8.81302148 6.98363965,12.1253994 6.98363965,15.4377246 C6.98363965,15.4596885 6.98435156,15.4816523 6.98363965,15.5035898 C6.98184668,15.5590664 7.00156934,15.5777344 7.05335449,15.5465684 C7.07964258,15.5306953 7.10706445,15.5167998 7.13372168,15.5015332 C8.30239453,14.831833 9.47135742,14.1626865 10.6388174,13.490877 C10.7068184,13.451748 10.7574697,13.4438379 10.8286611,13.485498 C11.1846182,13.6936934 11.5439238,13.8961406 11.9021748,14.1004072 C12.7329785,14.5741729 13.5649424,15.0459873 14.3934785,15.5237607 C14.5055391,15.5884395 14.5180371,15.5510508 14.5083604,15.4506973 L14.5083604,15.4506973 Z" id="路径" fill="#409EFF"></path>
                    </g>
                    <circle id="椭圆形" fill="#24C789" cx="205.2" cy="137.4" r="10.8"></circle>
                    <rect id="矩形" fill="#409EFF" x="70.8" y="125.4" width="97.2" height="7.2" rx="3.6"></rect>
                    <rect id="矩形备份-115" fill="#409EFF" x="70.8" y="139.8" width="52.8" height="7.2" rx="3.6"></rect>
                    <g id="编组-33" filter="url(#filter-16)" transform="translate(18.000000, 201.000000)" stroke="#FFFFFF" stroke-width="1.2">
                        <circle id="椭圆形" cx="12.6" cy="13.8" r="2.4"></circle>
                        <circle id="椭圆形备份-46" cx="3" cy="21" r="2.4"></circle>
                        <rect id="矩形" fill="#D8D8D8" x="3" y="24.6" width="1" height="7.2"></rect>
                        <rect id="矩形" fill="#D8D8D8" transform="translate(7.800000, 17.400000) scale(-1, 1) rotate(40.000000) translate(-7.800000, -17.400000) " x="4.2" y="17.4" width="7.2" height="1"></rect>
                        <rect id="矩形备份-125" fill="#D8D8D8" x="12.6" y="0.6" width="1" height="9.6"></rect>
                    </g>
                    <polygon id="Checkmark" fill="#FFFFFF" points="201.507692 137.04 200.4 138.12 203.353846 141 210 134.88 208.892308 133.8 203.353846 138.84"></polygon>
                </g>
            </g>
        </g>
    </g>
</svg>