<svg xmlns="http://www.w3.org/2000/svg"
 xmlns:xlink="http://www.w3.org/1999/xlink" 
 viewBox="0 0 1024 1024" 
 version="1.1" p-id="9837" width="200" height="200">
    <path d="M425.497101 426.0369V82.251977c0-8.096995-6.612546-14.777016-14.709542-14.777017h-328.603057A14.777016 14.777016 0 0 0 67.47496 82.319452v328.940432c0 8.096995 6.612546 14.777016 14.709542 14.777016h343.312599m46.962572 67.474961H82.184502A82.184502 82.184502 0 0 1 0 411.192409V82.319452C0 36.841328 36.773853 0 82.184502 0h328.603057c45.410648 0 82.184502 36.841328 82.184502 82.319452v390.612546a20.512388 20.512388 0 0 1-20.512388 20.579863z"  p-id="9838"></path>
    <path d="M472.459673 530.420664H82.184502A82.251977 82.251977 0 0 0 0 612.672641v329.007907a82.184502 82.184502 0 0 0 82.184502 82.251977h328.805482a82.184502 82.184502 0 0 0 82.184502-82.251977v-390.680021a20.242488 20.242488 0 0 0-20.714813-20.579863z m-52.360569 411.259884a9.311545 9.311545 0 0 1-9.311545 9.37902H82.117027a9.311545 9.311545 0 0 1-9.24407-9.37902V612.672641a9.311545 9.311545 0 0 1 9.24407-9.379019h337.914602z" p-id="9839"></path>
    <path d="M597.28835 597.895625v343.784923c0 8.096995 6.612546 14.777016 14.709541 14.777017h328.603058c8.096995 0 14.709541-6.680021 14.709541-14.844492V612.672641c0-8.096995-6.545071-14.777016-14.709541-14.777016H597.28835m-46.962572-67.474961h390.275171c45.410648 0 82.184502 36.841328 82.184502 82.319452v328.940432c0 45.410648-36.773853 82.251977-82.184502 82.251977H611.997891a82.184502 82.184502 0 0 1-82.184501-82.319452V551.068002c0-11.403268 9.176595-20.579863 20.512388-20.579863z" p-id="9840"></path>
    <path d="M777.581444 493.376911a246.553506 246.553506 0 1 0-246.35108-246.553506 246.486031 246.486031 0 0 0 246.35108 246.553506z m0-420.234054a173.680548 173.680548 0 1 1-173.410648 173.680548 173.748023 173.748023 0 0 1 173.410648-173.748023z"  p-id="9841"></path>
</svg>